<svg width="1682" height="370" viewBox="0 0 1682 370" fill="none" xmlns="http://www.w3.org/2000/svg">
<path d="M399.5 274.2V254.7H492.2C501 254.7 505.4 250.4 505.4 241.8V219C505.4 211.4 502 206.9 495.2 205.5L434.3 193.2C411.1 188.6 399.5 173 399.5 146.4V129.9C399.5 97.3 415.8 81 448.4 81H518.3L536 94.8V114.3H449.3C440.5 114.3 436.1 118.6 436.1 127.2V147.3C436.1 154.9 439.5 159.4 446.3 160.8L507.2 172.8C530.4 177.6 542 193.2 542 219.6V239.1C542 271.7 525.7 288 493.1 288H417.2L399.5 274.2ZM578.588 240.6V177.9C578.588 146.3 594.388 130.5 625.988 130.5H664.988C696.388 130.5 712.088 146.3 712.088 177.9V222.3H613.688V243.6C613.688 252.8 618.288 257.4 627.488 257.4H706.088V276.3L690.188 288H625.988C594.388 288 578.588 272.2 578.588 240.6ZM613.688 195H676.988V174.9C676.988 165.7 672.388 161.1 663.188 161.1H627.488C618.288 161.1 613.688 165.7 613.688 174.9V195ZM752.319 240.6V177.9C752.319 146.3 768.119 130.5 799.719 130.5H856.419L872.319 142.2V161.1H801.219C792.019 161.1 787.419 165.7 787.419 174.9V243.6C787.419 252.8 792.019 257.4 801.219 257.4H872.319V276.3L856.419 288H799.719C768.119 288 752.319 272.2 752.319 240.6ZM907.327 240.6V130.5H942.427V243.6C942.427 252.8 947.027 257.4 956.227 257.4H1005.73V130.5H1040.83V288H954.727C923.127 288 907.327 272.2 907.327 240.6ZM1084.57 288V150C1091.77 137 1105.57 130.5 1125.97 130.5H1157.47L1173.37 142.2V161.1H1134.07C1127.27 161.1 1122.47 162.8 1119.67 166.2V288H1084.57ZM1201.15 240.6V177.9C1201.15 146.3 1216.95 130.5 1248.55 130.5H1287.55C1318.95 130.5 1334.65 146.3 1334.65 177.9V222.3H1236.25V243.6C1236.25 252.8 1240.85 257.4 1250.05 257.4H1328.65V276.3L1312.75 288H1248.55C1216.95 288 1201.15 272.2 1201.15 240.6ZM1236.25 195H1299.55V174.9C1299.55 165.7 1294.95 161.1 1285.75 161.1H1250.05C1240.85 161.1 1236.25 165.7 1236.25 174.9V195Z" fill="#202B2D"/>
<path d="M1374.58 274.2V254.7H1461.58C1470.18 254.7 1474.48 250.4 1474.48 241.8V210.3C1474.48 201.7 1470.18 197.4 1461.58 197.4H1396.78V164.1H1461.58C1470.18 164.1 1474.48 159.7 1474.48 150.9V127.2C1474.48 118.6 1470.18 114.3 1461.58 114.3H1377.58V94.8L1395.28 81H1462.48C1495.08 81 1511.38 97.3 1511.38 129.9V150C1511.38 158 1508.88 164.5 1503.88 169.5L1493.38 180L1503.88 190.5C1508.88 195.5 1511.38 202 1511.38 210V239.1C1511.38 271.7 1495.08 288 1462.48 288H1392.28L1374.58 274.2Z" fill="url(#paint0_linear_29_43)"/>
<path d="M60.4265 63.5841L165.474 21.4609C165.522 21.4271 165.522 21.4609 165.522 21.4609C167.608 20.7298 169.022 19.1888 169.022 17.3329V4.46539C169.022 2.01337 166.417 0 163.247 0C162.446 0 161.774 0.146232 161.067 0.326197H161.019C160.689 0.438675 160.312 0.58488 159.982 0.764845L35.0985 50.5141C27.6498 52.5387 22.2754 57.9489 22.2754 64.3939C22.2754 70.569 27.2019 75.8442 34.1674 78.0488C34.297 78.0938 34.4031 78.15 34.5328 78.195C69.207 91.8724 101.713 105.032 135.161 118.485C135.208 118.485 135.255 118.519 135.302 118.552C135.727 118.698 136.245 118.845 136.681 119.07C136.729 119.07 136.729 119.103 136.776 119.103C139.145 120.059 141.467 121.004 143.836 121.96H143.883C143.883 121.994 143.883 122.039 143.93 122.073V329.078C143.93 330.945 141.985 332.475 139.522 332.475C138.626 332.475 137.766 332.25 137.059 331.89C136.964 331.856 136.87 331.778 136.776 331.71C136.634 331.643 136.493 331.53 136.351 331.418C136.304 331.384 136.257 331.384 136.257 331.339C97.4579 304.828 29.5237 244.404 25.2572 144.445V144.119C25.2572 143.792 25.2573 143.455 25.2101 143.129C25.2101 143.095 25.163 143.05 25.2101 143.016C24.503 138.483 19.8121 134.895 13.8838 134.423C13.4595 134.389 13.0352 134.389 12.5992 134.389C12.1749 134.389 11.7506 134.389 11.3263 134.423C5.5983 134.895 1.0018 138.303 0.141425 142.69C0.047138 143.163 0 143.635 0 144.119C0 144.85 0.0942759 145.581 0.282851 146.244C7.20119 295.267 143.883 360.595 149.893 363.373L161.785 368.929C162.54 369.334 163.447 369.548 164.39 369.548C166.948 369.548 169.034 367.939 169.034 365.96V117.18C169.034 116.82 169.081 116.449 169.081 116.044C169.081 115.684 169.034 115.279 169.034 114.908C168.562 111.32 166.005 108.215 162.304 106.495C162.304 106.461 162.257 106.461 162.21 106.461L160.689 105.842C160.548 105.763 160.359 105.696 160.124 105.662L60.3793 65.6086" fill="#202B2D"/>
<path d="M286.198 65.7771L186.442 105.853C186.171 105.853 185.97 105.921 185.829 106.044L184.344 106.629C184.273 106.629 184.214 106.629 184.214 106.697C180.561 108.373 177.991 111.533 177.52 115.088C177.52 115.47 177.449 115.864 177.449 116.246C177.449 116.572 177.52 116.831 177.52 117.09V129.935C177.52 131.802 179.146 133.354 181.515 134.063H181.586L202.624 141.486L297.371 175.826C303.523 177.693 308.191 180.865 310.76 185.252C312.587 189.121 313.058 194.092 311.915 199.908C291.089 267.226 241.506 310.148 210.532 331.316C210.532 331.384 210.462 331.384 210.403 331.44C210.273 331.507 210.132 331.631 210.002 331.699C209.931 331.766 209.802 331.822 209.731 331.89C209.731 331.89 209.731 331.89 209.66 331.957C209.589 331.957 209.531 332.025 209.46 332.081C208.918 332.34 207.704 333.048 206.007 334.016C198.841 338.211 183.213 347.052 177.732 349.054V365.959C177.732 367.894 179.83 369.514 182.399 369.514C183.342 369.514 184.226 369.323 184.969 368.929L196.872 363.384C197.686 363.001 200.998 361.517 206.007 358.738C206.077 358.671 206.136 358.671 206.207 358.615C234.953 342.733 320.566 287.551 341.875 183.317C341.875 183.25 341.875 183.193 341.945 183.126C342.217 181.832 342.488 180.539 342.688 179.189C342.759 178.739 342.818 178.345 342.888 177.896C342.959 177.772 342.959 177.569 342.959 177.378C343.159 175.117 342.617 173.115 341.604 171.507C341.062 170.472 340.319 169.572 339.506 168.796C336.866 166.085 333.283 164.409 330.784 163.498C329.429 162.981 328.415 162.722 328.014 162.599C327.885 162.531 327.814 162.531 327.814 162.531L320.236 159.888L320.106 159.82L207.433 120.25C208.246 119.924 208.988 119.609 209.802 119.283C209.872 119.283 209.872 119.283 209.872 119.283C210.344 119.024 210.815 118.901 211.298 118.766C211.298 118.698 211.369 118.698 211.428 118.698C244.841 105.212 277.37 92.0408 312.056 78.3634C312.186 78.3634 312.257 78.2959 312.398 78.2397C319.364 76.0463 324.302 70.7486 324.302 64.551C324.302 58.1623 318.963 52.7408 311.455 50.6712L186.607 0.978252C186.265 0.787039 185.864 0.652072 185.523 0.528345C184.78 0.337132 184.096 0.202148 183.295 0.202148C180.184 0.202148 177.544 2.20425 177.544 4.65628V17.5013C177.544 19.3685 178.958 20.9207 181.056 21.6293C181.056 21.6293 181.056 21.6293 181.126 21.6293L286.151 63.775" fill="url(#paint1_linear_29_43)"/>
<defs>
<linearGradient id="paint0_linear_29_43" x1="1032.5" y1="13" x2="1032.5" y2="299" gradientUnits="userSpaceOnUse">
<stop stop-color="#8798F8"/>
<stop offset="0.739583" stop-color="#5FA7F9"/>
<stop offset="1" stop-color="#4CBFFD"/>
</linearGradient>
<linearGradient id="paint1_linear_29_43" x1="260.225" y1="0.202148" x2="260.225" y2="369.514" gradientUnits="userSpaceOnUse">
<stop stop-color="#8798F8"/>
<stop offset="0.739583" stop-color="#5FA7F9"/>
<stop offset="1" stop-color="#4CBFFD"/>
</linearGradient>
</defs>
</svg>
