<svg width="497" height="496" viewBox="0 0 497 496" fill="none" xmlns="http://www.w3.org/2000/svg">
<path fill-rule="evenodd" clip-rule="evenodd" d="M477.5 235C475.9 235 473.6 235 470.7 234.8C464.9 234.6 456.9 234.2 448 233.4C429.7 231.8 408.8 228.7 394.5 223C371.6 213.9 358.7 201.7 343.9 187.6L343 186.8C328.2 172.6 311.6 156.6 282.8 143.1C254.4 129.7 223 131.9 200 136.6C188.3 139 178.3 142.2 171.1 144.8C167.5 146.1 164.7 147.2 162.7 148.1C151.1 153 139.8 158.8 128.4 164.1C128.4 164.1 150.8 170.2 161.8 173.6C162.2 173.6 162.8 173.9 163.6 174.2C165.2 174.8 167.6 175.6 170.5 176.8C176.3 179.2 184 182.7 191.6 187.6C203.5 195.3 213.4 204.9 217.5 216.7C192.2 220 168.4 231.1 150.7 241.6C139.9 247.9 131 254.3 124.7 259C121.6 261.4 119.1 263.4 117.3 264.8C115.9 266 93 286.1 93 286.1C93 286.1 122.5 289.2 137 292.2C146.7 294.1 159.7 297.3 173.3 302C187 306.8 200.8 313 212.3 321C223.8 329 232.2 338.3 236.4 348.9C248.5 379.8 236.6 409.9 212.8 426.8C189.3 443.5 153.5 447.5 117.7 423V423.2C64.5 383.4 29.9 319.7 29.9 248C29.9 127.3 127.7 29.4 248.4 29.4C369.1 29.4 455.1 88 482.5 178C452.5 77.2 359 3.79999 248.4 3.79999C137.8 3.79999 4.19995 113.1 4.19995 248C4.19995 382.9 113.6 492.2 248.5 492.2C383.4 492.2 492.7 382.8 492.7 247.9V235H477.5ZM205.7 166.2C204 165.1 202.3 164 200.5 163C202 162.6 203.6 162.3 205.3 162C226.1 157.7 251 156.6 272 166.5C297 178.3 311.1 191.8 325.7 205.9L326.2 206.4C341.3 220.9 357.2 236.1 385.1 247.2C400.5 253.4 420.4 256.7 437.5 258.5C437.5 258.5 437.6 258.5 437.7 258.5C437.7 258.5 437.6 258.5 437.5 258.5C427.9 261.8 416.3 264.1 402.8 264.1C380.9 264.1 362.1 255.3 338.2 244.2C336.1 243.2 334 242.2 331.8 241.2C307.9 230.1 280.2 218.4 244.1 216.3C239.3 192.4 221.2 176.1 205.7 166.2ZM248.5 466.6C232.2 466.6 216.4 464.8 201.2 461.5C210.8 458.3 219.8 453.7 227.9 448C260.3 425 277.4 382.7 260.5 339.7C253.9 322.8 241.2 309.9 227.2 300.1C213.1 290.3 197 283.1 182 277.9C172.2 274.5 162.6 271.8 154.3 269.8C157.3 267.9 160.4 265.9 163.8 263.9C183.6 252.3 208.5 241.6 232.4 241.6C268.4 241.6 295.2 252.6 320.9 264.5C323.2 265.6 325.6 266.7 327.9 267.8C350.8 278.5 374.8 289.8 402.8 289.8C430.8 289.8 451 282.1 465.5 274.2C452.6 382.5 360.4 466.6 248.5 466.6Z" fill="white"/>
<mask id="mask0_1_3" style="mask-type:luminance" maskUnits="userSpaceOnUse" x="4" y="3" width="489" height="490">
<path d="M477.5 235C475.9 235 473.6 235 470.7 234.8C464.9 234.6 456.9 234.2 448 233.4C429.7 231.8 408.8 228.7 394.5 223C371.6 213.9 358.7 201.7 343.9 187.6L343 186.8C328.2 172.6 311.6 156.6 282.8 143.1C254.4 129.7 223 131.9 200 136.6C188.3 139 178.3 142.2 171.1 144.8C167.5 146.1 164.7 147.2 162.7 148.1C151.1 153 139.8 158.8 128.4 164.1C128.4 164.1 150.8 170.2 161.8 173.6C162.2 173.6 162.8 173.9 163.6 174.2C165.2 174.8 167.6 175.6 170.5 176.8C176.3 179.2 184 182.7 191.6 187.6C203.5 195.3 213.4 204.9 217.5 216.7C192.2 220 168.4 231.1 150.7 241.6C139.9 247.9 131 254.3 124.7 259C121.6 261.4 119.1 263.4 117.3 264.8C115.9 266 93 286.1 93 286.1C93 286.1 122.5 289.2 137 292.2C146.7 294.1 159.7 297.3 173.3 302C187 306.8 200.8 313 212.3 321C223.8 329 232.2 338.3 236.4 348.9C248.5 379.8 236.6 409.9 212.8 426.8C189.3 443.5 153.5 447.5 117.7 423V423.2C64.5 383.4 29.9 319.7 29.9 248C29.9 127.3 127.7 29.4 248.4 29.4C369.1 29.4 455.1 88 482.5 178C452.5 77.2 359 3.79999 248.4 3.79999C137.8 3.79999 4.19995 113.1 4.19995 248C4.19995 382.9 113.6 492.2 248.5 492.2C383.4 492.2 492.7 382.8 492.7 247.9V235H477.5ZM205.7 166.2C204 165.1 202.3 164 200.5 163C202 162.6 203.6 162.3 205.3 162C226.1 157.7 251 156.6 272 166.5C297 178.3 311.1 191.8 325.7 205.9L326.2 206.4C341.3 220.9 357.2 236.1 385.1 247.2C400.5 253.4 420.4 256.7 437.5 258.5C437.5 258.5 437.6 258.5 437.7 258.5C437.7 258.5 437.6 258.5 437.5 258.5C427.9 261.8 416.3 264.1 402.8 264.1C380.9 264.1 362.1 255.3 338.2 244.2C336.1 243.2 334 242.2 331.8 241.2C307.9 230.1 280.2 218.4 244.1 216.3C239.3 192.4 221.2 176.1 205.7 166.2ZM248.5 466.6C232.2 466.6 216.4 464.8 201.2 461.5C210.8 458.3 219.8 453.7 227.9 448C260.3 425 277.4 382.7 260.5 339.7C253.9 322.8 241.2 309.9 227.2 300.1C213.1 290.3 197 283.1 182 277.9C172.2 274.5 162.6 271.8 154.3 269.8C157.3 267.9 160.4 265.9 163.8 263.9C183.6 252.3 208.5 241.6 232.4 241.6C268.4 241.6 295.2 252.6 320.9 264.5C323.2 265.6 325.6 266.7 327.9 267.8C350.8 278.5 374.8 289.8 402.8 289.8C430.8 289.8 451 282.1 465.5 274.2C452.6 382.5 360.4 466.6 248.5 466.6Z" fill="white"/>
</mask>
<g mask="url(#mask0_1_3)">
<path fill-rule="evenodd" clip-rule="evenodd" d="M157.8 241.6L154.3 434.4V243.8V241.6H157.8Z" fill="white"/>
<path fill-rule="evenodd" clip-rule="evenodd" d="M161.3 241.6L157.2 466.6H154.3V434.4L157.8 241.6H161.3Z" fill="white"/>
<path fill-rule="evenodd" clip-rule="evenodd" d="M164.8 241.6L160.7 466.6H157.2L161.3 241.6H164.8Z" fill="white"/>
<path fill-rule="evenodd" clip-rule="evenodd" d="M168.3 241.6L164.2 466.6H160.7L164.8 241.6H168.3Z" fill="white"/>
<path fill-rule="evenodd" clip-rule="evenodd" d="M171.8 241.6L167.7 466.6H164.2L168.3 241.6H171.8Z" fill="white"/>
<path fill-rule="evenodd" clip-rule="evenodd" d="M175.3 241.6L171.2 466.6H167.7L171.8 241.6H175.3Z" fill="white"/>
<path fill-rule="evenodd" clip-rule="evenodd" d="M178.8 241.6L174.7 466.6H171.2L175.3 241.6H178.8Z" fill="white"/>
<path fill-rule="evenodd" clip-rule="evenodd" d="M182.3 241.6L178.1 466.6H174.7L178.8 241.6H182.3Z" fill="white"/>
<path fill-rule="evenodd" clip-rule="evenodd" d="M185.8 241.6L181.6 466.6H178.1L182.3 241.6H185.8Z" fill="white"/>
<path fill-rule="evenodd" clip-rule="evenodd" d="M189.2 241.6L185.1 466.6H181.6L185.8 241.6H189.2Z" fill="white"/>
<path fill-rule="evenodd" clip-rule="evenodd" d="M192.7 241.6L188.6 466.6H185.1L189.2 241.6H192.7Z" fill="white"/>
<path fill-rule="evenodd" clip-rule="evenodd" d="M196.2 241.6L192.1 466.6H188.6L192.7 241.6H196.2Z" fill="white"/>
<path fill-rule="evenodd" clip-rule="evenodd" d="M199.7 241.6L195.6 466.6H192.1L196.2 241.6H199.7Z" fill="white"/>
<path fill-rule="evenodd" clip-rule="evenodd" d="M203.2 241.6L199.1 466.6H195.6L199.7 241.6H203.2Z" fill="white"/>
<path fill-rule="evenodd" clip-rule="evenodd" d="M206.7 241.6L202.6 466.6H199.1L203.2 241.6H206.7Z" fill="white"/>
<path fill-rule="evenodd" clip-rule="evenodd" d="M210.2 241.6L206.1 466.6H202.6L206.7 241.6H210.2Z" fill="white"/>
<path fill-rule="evenodd" clip-rule="evenodd" d="M213.7 241.6L209.6 466.6H206.1L210.2 241.6H213.7Z" fill="white"/>
<path fill-rule="evenodd" clip-rule="evenodd" d="M217.2 241.6L213 466.6H209.6L213.7 241.6H217.2Z" fill="white"/>
<path fill-rule="evenodd" clip-rule="evenodd" d="M220.7 241.6L216.5 466.6H213L217.2 241.6H220.7Z" fill="white"/>
<path fill-rule="evenodd" clip-rule="evenodd" d="M224.1 241.6L220 466.6H216.5L220.7 241.6H224.1Z" fill="white"/>
<path fill-rule="evenodd" clip-rule="evenodd" d="M227.6 241.6L223.5 466.6H220L224.1 241.6H227.6Z" fill="white"/>
<path fill-rule="evenodd" clip-rule="evenodd" d="M231.1 241.6L227 466.6H223.5L227.6 241.6H231.1Z" fill="white"/>
<path fill-rule="evenodd" clip-rule="evenodd" d="M234.6 241.6L230.5 466.6H227L231.1 241.6H234.6Z" fill="white"/>
<path fill-rule="evenodd" clip-rule="evenodd" d="M238.1 241.6L234 466.6H230.5L234.6 241.6H238.1Z" fill="white"/>
<path fill-rule="evenodd" clip-rule="evenodd" d="M241.6 241.6L237.5 466.6H234L238.1 241.6H241.6Z" fill="white"/>
<path fill-rule="evenodd" clip-rule="evenodd" d="M245.1 241.6L241 466.6H237.5L241.6 241.6H245.1Z" fill="white"/>
<path fill-rule="evenodd" clip-rule="evenodd" d="M248.6 241.6L244.5 466.6H241L245.1 241.6H248.6Z" fill="white"/>
<path fill-rule="evenodd" clip-rule="evenodd" d="M249.5 241.6L245.4 466.6H244.5L248.6 241.6H249.5Z" fill="white"/>
<path fill-rule="evenodd" clip-rule="evenodd" d="M250.5 241.6L246.4 466.6H245.4L249.5 241.6H250.5Z" fill="white"/>
<path fill-rule="evenodd" clip-rule="evenodd" d="M251.5 241.6L247.3 466.6H246.4L250.5 241.6H251.5Z" fill="white"/>
<path fill-rule="evenodd" clip-rule="evenodd" d="M252.4 241.6L248.3 466.6H247.3L251.5 241.6H252.4Z" fill="white"/>
<path fill-rule="evenodd" clip-rule="evenodd" d="M253.4 241.6L249.2 466.6H248.3L252.4 241.6H253.4Z" fill="white"/>
<path fill-rule="evenodd" clip-rule="evenodd" d="M254.3 241.6L250.2 466.6H249.2L253.4 241.6H254.3Z" fill="white"/>
<path fill-rule="evenodd" clip-rule="evenodd" d="M255.3 241.6L251.2 466.6H250.2L254.3 241.6H255.3Z" fill="white"/>
<path fill-rule="evenodd" clip-rule="evenodd" d="M256.2 241.6L252.1 466.6H251.2L255.3 241.6H256.2Z" fill="white"/>
<path fill-rule="evenodd" clip-rule="evenodd" d="M257.2 241.6L253.1 466.6H252.1L256.2 241.6H257.2Z" fill="white"/>
<path fill-rule="evenodd" clip-rule="evenodd" d="M258.2 241.6L254 466.6H253.1L257.2 241.6H258.2Z" fill="white"/>
<path fill-rule="evenodd" clip-rule="evenodd" d="M259.1 241.6L255 466.6H254L258.2 241.6H259.1Z" fill="white"/>
<path fill-rule="evenodd" clip-rule="evenodd" d="M260.1 241.6L256 466.6H255L259.1 241.6H260.1Z" fill="white"/>
<path fill-rule="evenodd" clip-rule="evenodd" d="M261 241.6L256.9 466.6H256L260.1 241.6H261Z" fill="white"/>
<path fill-rule="evenodd" clip-rule="evenodd" d="M262 241.6L257.9 466.6H256.9L261 241.6H262Z" fill="white"/>
<path fill-rule="evenodd" clip-rule="evenodd" d="M262.9 241.6L258.8 466.6H257.9L262 241.6H262.9Z" fill="white"/>
<path fill-rule="evenodd" clip-rule="evenodd" d="M263.9 241.6L259.8 466.6H258.8L262.9 241.6H263.9Z" fill="white"/>
<path fill-rule="evenodd" clip-rule="evenodd" d="M264.9 241.6L260.7 466.6H259.8L263.9 241.6H264.9Z" fill="white"/>
<path fill-rule="evenodd" clip-rule="evenodd" d="M265.8 241.6L261.7 466.6H260.7L264.9 241.6H265.8Z" fill="white"/>
<path fill-rule="evenodd" clip-rule="evenodd" d="M266.8 241.6L262.7 466.6H261.7L265.8 241.6H266.8Z" fill="white"/>
<path fill-rule="evenodd" clip-rule="evenodd" d="M267.7 241.6L263.6 466.6H262.7L266.8 241.6H267.7Z" fill="white"/>
<path fill-rule="evenodd" clip-rule="evenodd" d="M268.7 241.6L264.6 466.6H263.6L267.7 241.6H268.7Z" fill="white"/>
<path fill-rule="evenodd" clip-rule="evenodd" d="M269.7 241.6L265.5 466.6H264.6L268.7 241.6H269.7Z" fill="white"/>
<path fill-rule="evenodd" clip-rule="evenodd" d="M270.6 241.6L266.5 466.6H265.5L269.7 241.6H270.6Z" fill="white"/>
<path fill-rule="evenodd" clip-rule="evenodd" d="M271.6 241.6L267.4 466.6H266.5L270.6 241.6H271.6Z" fill="white"/>
<path fill-rule="evenodd" clip-rule="evenodd" d="M272.5 241.6L268.4 466.6H267.4L271.6 241.6H272.5Z" fill="white"/>
<path fill-rule="evenodd" clip-rule="evenodd" d="M273.5 241.6L269.4 466.6H268.4L272.5 241.6H273.5Z" fill="white"/>
<path fill-rule="evenodd" clip-rule="evenodd" d="M274.4 241.6L270.3 466.6H269.4L273.5 241.6H274.4Z" fill="white"/>
<path fill-rule="evenodd" clip-rule="evenodd" d="M275.4 241.6L271.3 466.6H270.3L274.4 241.6H275.4Z" fill="white"/>
<path fill-rule="evenodd" clip-rule="evenodd" d="M276.4 241.6L272.2 466.6H271.3L275.4 241.6H276.4Z" fill="white"/>
<path fill-rule="evenodd" clip-rule="evenodd" d="M277.3 241.6L273.2 466.6H272.2L276.4 241.6H277.3Z" fill="white"/>
<path fill-rule="evenodd" clip-rule="evenodd" d="M278.3 241.6L274.2 466.6H273.2L277.3 241.6H278.3Z" fill="white"/>
<path fill-rule="evenodd" clip-rule="evenodd" d="M279.2 241.6L275.1 466.6H274.2L278.3 241.6H279.2Z" fill="white"/>
<path fill-rule="evenodd" clip-rule="evenodd" d="M280.2 241.6L276.1 466.6H275.1L279.2 241.6H280.2Z" fill="white"/>
<path fill-rule="evenodd" clip-rule="evenodd" d="M281.1 241.6L277 466.6H276.1L280.2 241.6H281.1Z" fill="white"/>
<path fill-rule="evenodd" clip-rule="evenodd" d="M282.1 241.6L278 466.6H277L281.1 241.6H282.1Z" fill="white"/>
<path fill-rule="evenodd" clip-rule="evenodd" d="M283.1 241.6L278.9 466.6H278L282.1 241.6H283.1Z" fill="white"/>
<path fill-rule="evenodd" clip-rule="evenodd" d="M284 241.6L279.9 466.6H278.9L283.1 241.6H284Z" fill="white"/>
<path fill-rule="evenodd" clip-rule="evenodd" d="M285 241.6L280.9 466.6H279.9L284 241.6H285Z" fill="white"/>
<path fill-rule="evenodd" clip-rule="evenodd" d="M285.9 241.6L281.8 466.6H280.9L285 241.6H285.9Z" fill="white"/>
<path fill-rule="evenodd" clip-rule="evenodd" d="M286.9 241.6L282.8 466.6H281.8L285.9 241.6H286.9Z" fill="white"/>
<path fill-rule="evenodd" clip-rule="evenodd" d="M287.9 241.6L283.7 466.6H282.8L286.9 241.6H287.9Z" fill="white"/>
<path fill-rule="evenodd" clip-rule="evenodd" d="M288.8 241.6L284.7 466.6H283.7L287.9 241.6H288.8Z" fill="white"/>
<path fill-rule="evenodd" clip-rule="evenodd" d="M289.8 241.6L285.7 466.6H284.7L288.8 241.6H289.8Z" fill="white"/>
<path fill-rule="evenodd" clip-rule="evenodd" d="M290.7 241.6L286.6 466.6H285.7L289.8 241.6H290.7Z" fill="white"/>
<path fill-rule="evenodd" clip-rule="evenodd" d="M291.7 241.6L287.6 466.6H286.6L290.7 241.6H291.7Z" fill="white"/>
<path fill-rule="evenodd" clip-rule="evenodd" d="M292.6 241.6L288.5 466.6H287.6L291.7 241.6H292.6Z" fill="white"/>
<path fill-rule="evenodd" clip-rule="evenodd" d="M293.6 241.6L289.5 466.6H288.5L292.6 241.6H293.6Z" fill="white"/>
<path fill-rule="evenodd" clip-rule="evenodd" d="M294.6 241.6L290.4 466.6H289.5L293.6 241.6H294.6Z" fill="white"/>
<path fill-rule="evenodd" clip-rule="evenodd" d="M295.5 241.6L291.4 466.6H290.4L294.6 241.6H295.5Z" fill="white"/>
<path fill-rule="evenodd" clip-rule="evenodd" d="M296.5 241.6L292.4 466.6H291.4L295.5 241.6H296.5Z" fill="white"/>
<path fill-rule="evenodd" clip-rule="evenodd" d="M297.4 241.6L293.3 466.6H292.4L296.5 241.6H297.4Z" fill="white"/>
<path fill-rule="evenodd" clip-rule="evenodd" d="M298.4 241.6L294.3 466.6H293.3L297.4 241.6H298.4Z" fill="white"/>
<path fill-rule="evenodd" clip-rule="evenodd" d="M299.4 241.6L295.2 466.6H294.3L298.4 241.6H299.4Z" fill="white"/>
<path fill-rule="evenodd" clip-rule="evenodd" d="M300.3 241.6L296.2 466.6H295.2L299.4 241.6H300.3Z" fill="white"/>
<path fill-rule="evenodd" clip-rule="evenodd" d="M301.3 241.6L297.1 466.6H296.2L300.3 241.6H301.3Z" fill="white"/>
<path fill-rule="evenodd" clip-rule="evenodd" d="M302.2 241.6L298.1 466.6H297.1L301.3 241.6H302.2Z" fill="white"/>
<path fill-rule="evenodd" clip-rule="evenodd" d="M303.2 241.6L299.1 466.6H298.1L302.2 241.6H303.2Z" fill="white"/>
<path fill-rule="evenodd" clip-rule="evenodd" d="M304.1 241.6L300 466.6H299.1L303.2 241.6H304.1Z" fill="white"/>
<path fill-rule="evenodd" clip-rule="evenodd" d="M305.1 241.6L301 466.6H300L304.1 241.6H305.1Z" fill="white"/>
<path fill-rule="evenodd" clip-rule="evenodd" d="M306.1 241.6L301.9 466.6H301L305.1 241.6H306.1Z" fill="white"/>
<path fill-rule="evenodd" clip-rule="evenodd" d="M307 241.6L302.9 466.6H301.9L306.1 241.6H307Z" fill="white"/>
<path fill-rule="evenodd" clip-rule="evenodd" d="M308 241.6L303.9 466.6H302.9L307 241.6H308Z" fill="white"/>
<path fill-rule="evenodd" clip-rule="evenodd" d="M308.9 241.6L304.8 466.6H303.9L308 241.6H308.9Z" fill="white"/>
<path fill-rule="evenodd" clip-rule="evenodd" d="M309.9 241.6L305.8 466.6H304.8L308.9 241.6H309.9Z" fill="white"/>
<path fill-rule="evenodd" clip-rule="evenodd" d="M310.8 241.6L306.7 466.6H305.8L309.9 241.6H310.8Z" fill="white"/>
<path fill-rule="evenodd" clip-rule="evenodd" d="M311.8 241.6L307.7 466.6H306.7L310.8 241.6H311.8Z" fill="white"/>
<path fill-rule="evenodd" clip-rule="evenodd" d="M312.8 241.6L308.6 466.6H307.7L311.8 241.6H312.8Z" fill="white"/>
<path fill-rule="evenodd" clip-rule="evenodd" d="M313.7 241.6L309.6 466.6H308.6L312.8 241.6H313.7Z" fill="white"/>
<path fill-rule="evenodd" clip-rule="evenodd" d="M314.7 241.6L310.6 466.6H309.6L313.7 241.6H314.7Z" fill="white"/>
<path fill-rule="evenodd" clip-rule="evenodd" d="M315.6 241.6L311.5 466.6H310.6L314.7 241.6H315.6Z" fill="white"/>
<path fill-rule="evenodd" clip-rule="evenodd" d="M316.6 241.6L312.5 466.6H311.5L315.6 241.6H316.6Z" fill="white"/>
<path fill-rule="evenodd" clip-rule="evenodd" d="M317.6 241.6L313.4 466.6H312.5L316.6 241.6H317.6Z" fill="white"/>
<path fill-rule="evenodd" clip-rule="evenodd" d="M318.5 241.6L314.4 466.6H313.4L317.6 241.6H318.5Z" fill="white"/>
<path fill-rule="evenodd" clip-rule="evenodd" d="M319.5 241.6L315.3 466.6H314.4L318.5 241.6H319.5Z" fill="white"/>
<path fill-rule="evenodd" clip-rule="evenodd" d="M320.4 241.6L316.3 466.6H315.3L319.5 241.6H320.4Z" fill="white"/>
<path fill-rule="evenodd" clip-rule="evenodd" d="M321.4 241.6L317.3 466.6H316.3L320.4 241.6H321.4Z" fill="white"/>
<path fill-rule="evenodd" clip-rule="evenodd" d="M322.3 241.6L318.2 466.6H317.3L321.4 241.6H322.3Z" fill="white"/>
<path fill-rule="evenodd" clip-rule="evenodd" d="M323.3 241.6L319.2 466.6H318.2L322.3 241.6H323.3Z" fill="white"/>
<path fill-rule="evenodd" clip-rule="evenodd" d="M324.3 241.6L320.1 466.6H319.2L323.3 241.6H324.3Z" fill="white"/>
<path fill-rule="evenodd" clip-rule="evenodd" d="M325.2 241.6L321.1 466.6H320.1L324.3 241.6H325.2Z" fill="white"/>
<path fill-rule="evenodd" clip-rule="evenodd" d="M326.2 241.6L322.1 466.6H321.1L325.2 241.6H326.2Z" fill="white"/>
<path fill-rule="evenodd" clip-rule="evenodd" d="M327.1 241.6L323 466.6H322.1L326.2 241.6H327.1Z" fill="white"/>
<path fill-rule="evenodd" clip-rule="evenodd" d="M328.1 241.6L324 466.6H323L327.1 241.6H328.1Z" fill="white"/>
<path fill-rule="evenodd" clip-rule="evenodd" d="M329 241.6L324.9 466.6H324L328.1 241.6H329Z" fill="white"/>
<path fill-rule="evenodd" clip-rule="evenodd" d="M330 241.6L325.9 466.6H324.9L329 241.6H330Z" fill="white"/>
<path fill-rule="evenodd" clip-rule="evenodd" d="M331 241.6L326.8 466.6H325.9L330 241.6H331Z" fill="white"/>
<path fill-rule="evenodd" clip-rule="evenodd" d="M331.9 241.6L327.8 466.6H326.8L331 241.6H331.9Z" fill="white"/>
<path fill-rule="evenodd" clip-rule="evenodd" d="M332.9 241.6L328.8 466.6H327.8L331.9 241.6H332.9Z" fill="white"/>
<path fill-rule="evenodd" clip-rule="evenodd" d="M333.8 241.6L329.7 466.6H328.8L332.9 241.6H333.8Z" fill="white"/>
<path fill-rule="evenodd" clip-rule="evenodd" d="M334.8 241.6L330.7 466.6H329.7L333.8 241.6H334.8Z" fill="white"/>
<path fill-rule="evenodd" clip-rule="evenodd" d="M335.8 241.6L331.6 466.6H330.7L334.8 241.6H335.8Z" fill="white"/>
<path fill-rule="evenodd" clip-rule="evenodd" d="M336.7 241.6L332.6 466.6H331.6L335.8 241.6H336.7Z" fill="white"/>
<path fill-rule="evenodd" clip-rule="evenodd" d="M337.7 241.6L333.6 466.6H332.6L336.7 241.6H337.7Z" fill="white"/>
<path fill-rule="evenodd" clip-rule="evenodd" d="M338.6 241.6L334.5 466.6H333.6L337.7 241.6H338.6Z" fill="white"/>
<path fill-rule="evenodd" clip-rule="evenodd" d="M339.6 241.6L335.5 466.6H334.5L338.6 241.6H339.6Z" fill="white"/>
<path fill-rule="evenodd" clip-rule="evenodd" d="M340.5 241.6L336.4 466.6H335.5L339.6 241.6H340.5Z" fill="white"/>
<path fill-rule="evenodd" clip-rule="evenodd" d="M341.5 241.6L337.4 466.6H336.4L340.5 241.6H341.5Z" fill="white"/>
<path fill-rule="evenodd" clip-rule="evenodd" d="M342.5 241.6L338.3 466.6H337.4L341.5 241.6H342.5Z" fill="white"/>
<path fill-rule="evenodd" clip-rule="evenodd" d="M343.4 241.6L339.3 466.6H338.3L342.5 241.6H343.4Z" fill="white"/>
<path fill-rule="evenodd" clip-rule="evenodd" d="M344.4 241.6L340.3 466.6H339.3L343.4 241.6H344.4Z" fill="white"/>
<path fill-rule="evenodd" clip-rule="evenodd" d="M345.3 241.6L341.2 466.6H340.3L344.4 241.6H345.3Z" fill="white"/>
<path fill-rule="evenodd" clip-rule="evenodd" d="M346.3 241.6L342.2 466.6H341.2L345.3 241.6H346.3Z" fill="white"/>
<path fill-rule="evenodd" clip-rule="evenodd" d="M347.3 241.6L343.1 466.6H342.2L346.3 241.6H347.3Z" fill="white"/>
<path fill-rule="evenodd" clip-rule="evenodd" d="M348.2 241.6L344.1 466.6H343.1L347.3 241.6H348.2Z" fill="white"/>
<path fill-rule="evenodd" clip-rule="evenodd" d="M349.2 241.6L345 466.6H344.1L348.2 241.6H349.2Z" fill="white"/>
<path fill-rule="evenodd" clip-rule="evenodd" d="M350.1 241.6L346 466.6H345L349.2 241.6H350.1Z" fill="white"/>
<path fill-rule="evenodd" clip-rule="evenodd" d="M351.1 241.6L347 466.6H346L350.1 241.6H351.1Z" fill="white"/>
<path fill-rule="evenodd" clip-rule="evenodd" d="M352 241.6L347.9 466.6H347L351.1 241.6H352Z" fill="white"/>
<path fill-rule="evenodd" clip-rule="evenodd" d="M353 241.6L348.9 466.6H347.9L352 241.6H353Z" fill="white"/>
<path fill-rule="evenodd" clip-rule="evenodd" d="M354 241.6L349.8 466.6H348.9L353 241.6H354Z" fill="white"/>
<path fill-rule="evenodd" clip-rule="evenodd" d="M354.9 241.6L350.8 466.6H349.8L354 241.6H354.9Z" fill="white"/>
<path fill-rule="evenodd" clip-rule="evenodd" d="M355.9 241.6L351.8 466.6H350.8L354.9 241.6H355.9Z" fill="white"/>
<path fill-rule="evenodd" clip-rule="evenodd" d="M356.8 241.6L352.7 466.6H351.8L355.9 241.6H356.8Z" fill="white"/>
<path fill-rule="evenodd" clip-rule="evenodd" d="M357.8 241.6L353.7 466.6H352.7L356.8 241.6H357.8Z" fill="white"/>
<path fill-rule="evenodd" clip-rule="evenodd" d="M358.7 241.6L354.6 466.6H353.7L357.8 241.6H358.7Z" fill="white"/>
<path fill-rule="evenodd" clip-rule="evenodd" d="M359.7 241.6L355.6 466.6H354.6L358.7 241.6H359.7Z" fill="white"/>
<path fill-rule="evenodd" clip-rule="evenodd" d="M360.7 241.6L356.5 466.6H355.6L359.7 241.6H360.7Z" fill="white"/>
<path fill-rule="evenodd" clip-rule="evenodd" d="M361.6 241.6L357.5 466.6H356.5L360.7 241.6H361.6Z" fill="white"/>
<path fill-rule="evenodd" clip-rule="evenodd" d="M362.6 241.6L358.5 466.6H357.5L361.6 241.6H362.6Z" fill="white"/>
<path fill-rule="evenodd" clip-rule="evenodd" d="M363.5 241.6L359.4 466.6H358.5L362.6 241.6H363.5Z" fill="white"/>
<path fill-rule="evenodd" clip-rule="evenodd" d="M364.5 241.6L360.4 466.6H359.4L363.5 241.6H364.5Z" fill="white"/>
<path fill-rule="evenodd" clip-rule="evenodd" d="M365.5 241.6L361.3 466.6H360.4L364.5 241.6H365.5Z" fill="white"/>
<path fill-rule="evenodd" clip-rule="evenodd" d="M366.4 241.6L362.3 466.6H361.3L365.5 241.6H366.4Z" fill="white"/>
<path fill-rule="evenodd" clip-rule="evenodd" d="M367.4 241.6L363.2 466.6H362.3L366.4 241.6H367.4Z" fill="white"/>
<path fill-rule="evenodd" clip-rule="evenodd" d="M368.3 241.6L364.2 466.6H363.2L367.4 241.6H368.3Z" fill="white"/>
<path fill-rule="evenodd" clip-rule="evenodd" d="M369.3 241.6L365.2 466.6H364.2L368.3 241.6H369.3Z" fill="white"/>
<path fill-rule="evenodd" clip-rule="evenodd" d="M370.2 241.6L366.1 466.6H365.2L369.3 241.6H370.2Z" fill="white"/>
<path fill-rule="evenodd" clip-rule="evenodd" d="M371.2 241.6L367.1 466.6H366.1L370.2 241.6H371.2Z" fill="white"/>
<path fill-rule="evenodd" clip-rule="evenodd" d="M372.2 241.6L368 466.6H367.1L371.2 241.6H372.2Z" fill="white"/>
<path fill-rule="evenodd" clip-rule="evenodd" d="M373.1 241.6L369 466.6H368L372.2 241.6H373.1Z" fill="white"/>
<path fill-rule="evenodd" clip-rule="evenodd" d="M374.1 241.6L370 466.6H369L373.1 241.6H374.1Z" fill="white"/>
<path fill-rule="evenodd" clip-rule="evenodd" d="M375 241.6L370.9 466.6H370L374.1 241.6H375Z" fill="white"/>
<path fill-rule="evenodd" clip-rule="evenodd" d="M376 241.6L371.9 466.6H370.9L375 241.6H376Z" fill="white"/>
<path fill-rule="evenodd" clip-rule="evenodd" d="M376.9 241.6L372.8 466.6H371.9L376 241.6H376.9Z" fill="white"/>
<path fill-rule="evenodd" clip-rule="evenodd" d="M377.7 241.6L377.9 241.7L373.8 466.6H372.8L376.9 241.6H377.7Z" fill="white"/>
<path fill-rule="evenodd" clip-rule="evenodd" d="M377.9 241.7H378.9L374.7 466.6H373.8L377.9 241.7Z" fill="white"/>
<path fill-rule="evenodd" clip-rule="evenodd" d="M378.9 241.7H379.8L375.7 466.6H374.7L378.9 241.7Z" fill="white"/>
<path fill-rule="evenodd" clip-rule="evenodd" d="M379.8 241.7H380.8L376.7 466.6H375.7L379.8 241.7Z" fill="white"/>
<path fill-rule="evenodd" clip-rule="evenodd" d="M380.8 241.7H381.7L377.6 466.6H376.7L380.8 241.7Z" fill="white"/>
<path fill-rule="evenodd" clip-rule="evenodd" d="M381.7 241.7H382.7L378.6 466.6H377.6L381.7 241.7Z" fill="white"/>
<path fill-rule="evenodd" clip-rule="evenodd" d="M382.7 241.7L383.7 241.8L379.5 466.6H378.6L382.7 241.7Z" fill="white"/>
<path fill-rule="evenodd" clip-rule="evenodd" d="M383.7 241.8H384.6L380.5 466.6H379.5L383.7 241.8Z" fill="white"/>
<path fill-rule="evenodd" clip-rule="evenodd" d="M384.6 241.8H385.6L381.5 466.6H380.5L384.6 241.8Z" fill="white"/>
<path fill-rule="evenodd" clip-rule="evenodd" d="M385.6 241.8H386.5L382.4 466.6H381.5L385.6 241.8Z" fill="white"/>
<path fill-rule="evenodd" clip-rule="evenodd" d="M386.5 241.8H387.5L383.4 466.6H382.4L386.5 241.8Z" fill="white"/>
<path fill-rule="evenodd" clip-rule="evenodd" d="M387.5 241.8H388.4L384.3 466.6H383.4L387.5 241.8Z" fill="white"/>
<path fill-rule="evenodd" clip-rule="evenodd" d="M388.4 241.8L389.4 241.9L385.3 466.6H384.3L388.4 241.8Z" fill="white"/>
<path fill-rule="evenodd" clip-rule="evenodd" d="M389.4 241.9H390.4L386.2 466.6H385.3L389.4 241.9Z" fill="white"/>
<path fill-rule="evenodd" clip-rule="evenodd" d="M390.4 241.9H391.3L387.2 466.6H386.2L390.4 241.9Z" fill="white"/>
<path fill-rule="evenodd" clip-rule="evenodd" d="M391.3 241.9H392.3L388.2 466.6H387.2L391.3 241.9Z" fill="white"/>
<path fill-rule="evenodd" clip-rule="evenodd" d="M392.3 241.9H393.2L389.1 466.6H388.2L392.3 241.9Z" fill="white"/>
<path fill-rule="evenodd" clip-rule="evenodd" d="M393.2 241.9L394.2 242L390.1 466.6H389.1L393.2 241.9Z" fill="white"/>
<path fill-rule="evenodd" clip-rule="evenodd" d="M394.2 242H395.1L391 466.6H390.1L394.2 242Z" fill="white"/>
<path fill-rule="evenodd" clip-rule="evenodd" d="M395.1 242H396.1L392 466.6H391L395.1 242Z" fill="white"/>
<path fill-rule="evenodd" clip-rule="evenodd" d="M396.1 242H397.1L392.9 466.6H392L396.1 242Z" fill="white"/>
<path fill-rule="evenodd" clip-rule="evenodd" d="M397.1 242H398L393.9 466.6H392.9L397.1 242Z" fill="white"/>
<path fill-rule="evenodd" clip-rule="evenodd" d="M398 242H399L394.9 466.6H393.9L398 242Z" fill="white"/>
<path fill-rule="evenodd" clip-rule="evenodd" d="M399 242L399.9 242.1L395.8 466.6H394.9L399 242Z" fill="white"/>
<path fill-rule="evenodd" clip-rule="evenodd" d="M399.9 242.1H400.9L396.8 466.6H395.8L399.9 242.1Z" fill="white"/>
<path fill-rule="evenodd" clip-rule="evenodd" d="M400.9 242.1H401.8L397.7 466.6H396.8L400.9 242.1Z" fill="white"/>
<path fill-rule="evenodd" clip-rule="evenodd" d="M401.8 242.1H402.8L398.7 466.6H397.7L401.8 242.1Z" fill="white"/>
<path fill-rule="evenodd" clip-rule="evenodd" d="M402.8 242.1H403.8L399.7 466.6H398.7L402.8 242.1Z" fill="white"/>
<path fill-rule="evenodd" clip-rule="evenodd" d="M403.8 242.1H404.7L400.6 466.6H399.7L403.8 242.1Z" fill="white"/>
<path fill-rule="evenodd" clip-rule="evenodd" d="M404.7 242.1L405.7 242.2L401.6 466.6H400.6L404.7 242.1Z" fill="white"/>
<path fill-rule="evenodd" clip-rule="evenodd" d="M405.7 242.2H406.6L402.5 466.6H401.6L405.7 242.2Z" fill="white"/>
<path fill-rule="evenodd" clip-rule="evenodd" d="M406.6 242.2H407.6L403.5 466.6H402.5L406.6 242.2Z" fill="white"/>
<path fill-rule="evenodd" clip-rule="evenodd" d="M407.6 242.2H408.6L404.4 466.6H403.5L407.6 242.2Z" fill="white"/>
<path fill-rule="evenodd" clip-rule="evenodd" d="M408.6 242.2H409.5L405.4 466.6H404.4L408.6 242.2Z" fill="white"/>
<path fill-rule="evenodd" clip-rule="evenodd" d="M409.5 242.2L410.5 242.3L406.4 466.6H405.4L409.5 242.2Z" fill="white"/>
<path fill-rule="evenodd" clip-rule="evenodd" d="M410.5 242.3H411.4L407.3 466.6H406.4L410.5 242.3Z" fill="white"/>
<path fill-rule="evenodd" clip-rule="evenodd" d="M411.4 242.3H412.4L408.3 466.6H407.3L411.4 242.3Z" fill="white"/>
<path fill-rule="evenodd" clip-rule="evenodd" d="M412.4 242.3H413.3L409.2 466.6H408.3L412.4 242.3Z" fill="white"/>
<path fill-rule="evenodd" clip-rule="evenodd" d="M413.3 242.3H414.3L410.2 466.6H409.2L413.3 242.3Z" fill="white"/>
<path fill-rule="evenodd" clip-rule="evenodd" d="M414.3 242.3H415.3L411.1 466.6H410.2L414.3 242.3Z" fill="white"/>
<path fill-rule="evenodd" clip-rule="evenodd" d="M415.3 242.3L416.2 242.4L412.1 466.6H411.1L415.3 242.3Z" fill="white"/>
<path fill-rule="evenodd" clip-rule="evenodd" d="M416.2 242.4H417.2L413.1 466.6H412.1L416.2 242.4Z" fill="white"/>
<path fill-rule="evenodd" clip-rule="evenodd" d="M417.2 242.4H418.1L414 466.6H413.1L417.2 242.4Z" fill="white"/>
<path fill-rule="evenodd" clip-rule="evenodd" d="M418.1 242.4H419.1L415 466.6H414L418.1 242.4Z" fill="white"/>
<path fill-rule="evenodd" clip-rule="evenodd" d="M419.1 242.4H420L415.9 466.6H415L419.1 242.4Z" fill="white"/>
<path fill-rule="evenodd" clip-rule="evenodd" d="M420 242.4H421L416.9 466.6H415.9L420 242.4Z" fill="white"/>
<path fill-rule="evenodd" clip-rule="evenodd" d="M421 242.4L422 242.5L417.9 466.6H416.9L421 242.4Z" fill="white"/>
<path fill-rule="evenodd" clip-rule="evenodd" d="M422 242.5H422.9L418.8 466.6H417.9L422 242.5Z" fill="white"/>
<path fill-rule="evenodd" clip-rule="evenodd" d="M422.9 242.5H423.9L419.8 466.6H418.8L422.9 242.5Z" fill="white"/>
<path fill-rule="evenodd" clip-rule="evenodd" d="M423.9 242.5H424.8L420.7 466.6H419.8L423.9 242.5Z" fill="white"/>
<path fill-rule="evenodd" clip-rule="evenodd" d="M424.8 242.5H425.8L421.7 466.6H420.7L424.8 242.5Z" fill="white"/>
<path fill-rule="evenodd" clip-rule="evenodd" d="M425.8 242.5H426.7L422.6 466.6H421.7L425.8 242.5Z" fill="white"/>
<path fill-rule="evenodd" clip-rule="evenodd" d="M426.7 242.5L427.7 242.6L423.6 466.6H422.6L426.7 242.5Z" fill="white"/>
<path fill-rule="evenodd" clip-rule="evenodd" d="M427.7 242.6H428.7L424.6 466.6H423.6L427.7 242.6Z" fill="white"/>
<path fill-rule="evenodd" clip-rule="evenodd" d="M428.7 242.6H429.6L425.5 466.6H424.6L428.7 242.6Z" fill="white"/>
<path fill-rule="evenodd" clip-rule="evenodd" d="M429.6 242.6H430.6L426.5 466.6H425.5L429.6 242.6Z" fill="white"/>
<path fill-rule="evenodd" clip-rule="evenodd" d="M430.6 242.6H431.5L427.4 466.6H426.5L430.6 242.6Z" fill="white"/>
<path fill-rule="evenodd" clip-rule="evenodd" d="M431.5 242.6L432.5 242.7L428.4 466.6H427.4L431.5 242.6Z" fill="white"/>
<path fill-rule="evenodd" clip-rule="evenodd" d="M432.5 242.7H433.5L429.4 466.6H428.4L432.5 242.7Z" fill="white"/>
<path fill-rule="evenodd" clip-rule="evenodd" d="M433.5 242.7H434.4L430.3 466.6H429.4L433.5 242.7Z" fill="white"/>
<path fill-rule="evenodd" clip-rule="evenodd" d="M434.4 242.7H435.4L431.3 466.6H430.3L434.4 242.7Z" fill="white"/>
<path fill-rule="evenodd" clip-rule="evenodd" d="M435.4 242.7H436.3L432.2 466.6H431.3L435.4 242.7Z" fill="white"/>
<path fill-rule="evenodd" clip-rule="evenodd" d="M436.3 242.7H437.3L433.2 466.6H432.2L436.3 242.7Z" fill="white"/>
<path fill-rule="evenodd" clip-rule="evenodd" d="M437.3 242.7L438.2 242.8L434.1 466.6H433.2L437.3 242.7Z" fill="white"/>
<path fill-rule="evenodd" clip-rule="evenodd" d="M438.2 242.8H439.2L435.1 466.6H434.1L438.2 242.8Z" fill="white"/>
<path fill-rule="evenodd" clip-rule="evenodd" d="M439.2 242.8H440.2L436.1 466.6H435.1L439.2 242.8Z" fill="white"/>
<path fill-rule="evenodd" clip-rule="evenodd" d="M440.2 242.8H441.1L437 466.6H436.1L440.2 242.8Z" fill="white"/>
<path fill-rule="evenodd" clip-rule="evenodd" d="M441.1 242.8H442.1L438 466.6H437L441.1 242.8Z" fill="white"/>
<path fill-rule="evenodd" clip-rule="evenodd" d="M442.1 242.8H443L438.9 466.6H438L442.1 242.8Z" fill="white"/>
<path fill-rule="evenodd" clip-rule="evenodd" d="M443 242.8L444 242.9L439.9 466.6H438.9L443 242.8Z" fill="white"/>
<path fill-rule="evenodd" clip-rule="evenodd" d="M444 242.9H444.9L440.8 466.6H439.9L444 242.9Z" fill="white"/>
<path fill-rule="evenodd" clip-rule="evenodd" d="M444.9 242.9H445.9L441.8 466.6H440.8L444.9 242.9Z" fill="white"/>
<path fill-rule="evenodd" clip-rule="evenodd" d="M445.9 242.9H446.9L442.8 466.6H441.8L445.9 242.9Z" fill="white"/>
<path fill-rule="evenodd" clip-rule="evenodd" d="M446.9 242.9H447.8L443.7 466.6H442.8L446.9 242.9Z" fill="white"/>
<path fill-rule="evenodd" clip-rule="evenodd" d="M447.8 242.9L448.8 243L444.7 466.6H443.7L447.8 242.9Z" fill="white"/>
<path fill-rule="evenodd" clip-rule="evenodd" d="M448.8 243H449.7L445.6 466.6H444.7L448.8 243Z" fill="white"/>
<path fill-rule="evenodd" clip-rule="evenodd" d="M449.7 243H450.7L446.6 466.6H445.6L449.7 243Z" fill="white"/>
<path fill-rule="evenodd" clip-rule="evenodd" d="M450.7 243H451.6L447.6 466.6H446.6L450.7 243Z" fill="white"/>
<path fill-rule="evenodd" clip-rule="evenodd" d="M451.6 243H452.6L448.5 466.6H447.6L451.6 243Z" fill="white"/>
<path fill-rule="evenodd" clip-rule="evenodd" d="M452.6 243H453.6L449.5 466.6H448.5L452.6 243Z" fill="white"/>
<path fill-rule="evenodd" clip-rule="evenodd" d="M453.6 243L454.5 243.1L450.4 466.6H449.5L453.6 243Z" fill="white"/>
<path fill-rule="evenodd" clip-rule="evenodd" d="M454.5 243.1H455.5L451.4 466.6H450.4L454.5 243.1Z" fill="white"/>
<path fill-rule="evenodd" clip-rule="evenodd" d="M455.5 243.1H456.4L452.3 466.6H451.4L455.5 243.1Z" fill="white"/>
<path fill-rule="evenodd" clip-rule="evenodd" d="M456.4 243.1H457.4L453.3 466.6H452.3L456.4 243.1Z" fill="white"/>
<path fill-rule="evenodd" clip-rule="evenodd" d="M457.4 243.1H458.4L454.3 466.6H453.3L457.4 243.1Z" fill="white"/>
<path fill-rule="evenodd" clip-rule="evenodd" d="M458.4 243.1H459.3L455.2 466.6H454.3L458.4 243.1Z" fill="white"/>
<path fill-rule="evenodd" clip-rule="evenodd" d="M459.3 243.1L460.3 243.2L456.2 466.6H455.2L459.3 243.1Z" fill="white"/>
<path fill-rule="evenodd" clip-rule="evenodd" d="M460.3 243.2H461.2L457.1 466.6H456.2L460.3 243.2Z" fill="white"/>
<path fill-rule="evenodd" clip-rule="evenodd" d="M461.2 243.2H462.2L458.1 466.6H457.1L461.2 243.2Z" fill="white"/>
<path fill-rule="evenodd" clip-rule="evenodd" d="M462.2 243.2H463.1L459 466.6H458.1L462.2 243.2Z" fill="white"/>
<path fill-rule="evenodd" clip-rule="evenodd" d="M463.1 243.2H464.1L460 466.6H459L463.1 243.2Z" fill="white"/>
<path fill-rule="evenodd" clip-rule="evenodd" d="M464.1 243.2L465.1 243.3L461 466.6H460L464.1 243.2Z" fill="white"/>
<path fill-rule="evenodd" clip-rule="evenodd" d="M465.1 243.3H465.5V270.8L461.9 466.6H461L465.1 243.3Z" fill="white"/>
<path fill-rule="evenodd" clip-rule="evenodd" d="M465.5 323.1L462.9 466.6H461.9L465.5 270.8V323.1Z" fill="white"/>
<path fill-rule="evenodd" clip-rule="evenodd" d="M465.5 375.4L463.8 466.6H462.9L465.5 323.1V375.4Z" fill="white"/>
<path fill-rule="evenodd" clip-rule="evenodd" d="M465.5 427.7L464.8 466.6H463.8L465.5 375.4V427.7Z" fill="white"/>
<path fill-rule="evenodd" clip-rule="evenodd" d="M464.8 466.6L465.5 427.7V466.6H464.8Z" fill="white"/>
<path fill-rule="evenodd" clip-rule="evenodd" d="M201.3 156.6L200.5 198.4V156.6H201.3Z" fill="white"/>
<path fill-rule="evenodd" clip-rule="evenodd" d="M204.8 156.6L202.8 262.9L200.5 262.8V198.4L201.3 156.6H204.8Z" fill="white"/>
<path fill-rule="evenodd" clip-rule="evenodd" d="M208.3 156.6L206.3 263L202.8 262.9L204.8 156.6H208.3Z" fill="white"/>
<path fill-rule="evenodd" clip-rule="evenodd" d="M211.7 156.6L209.8 263H206.3L208.3 156.6H211.7Z" fill="white"/>
<path fill-rule="evenodd" clip-rule="evenodd" d="M215.2 156.6L213.3 263.1L209.8 263L211.7 156.6H215.2Z" fill="white"/>
<path fill-rule="evenodd" clip-rule="evenodd" d="M218.7 156.6L216.8 263.1H213.3L215.2 156.6H218.7Z" fill="white"/>
<path fill-rule="evenodd" clip-rule="evenodd" d="M222.2 156.6L220.3 263.2L216.8 263.1L218.7 156.6H222.2Z" fill="white"/>
<path fill-rule="evenodd" clip-rule="evenodd" d="M225.7 156.6L223.8 263.3L220.3 263.2L222.2 156.6H225.7Z" fill="white"/>
<path fill-rule="evenodd" clip-rule="evenodd" d="M229.2 156.6L227.2 263.3H223.8L225.7 156.6H229.2Z" fill="white"/>
<path fill-rule="evenodd" clip-rule="evenodd" d="M232.7 156.6L230.7 263.4L227.2 263.3L229.2 156.6H232.7Z" fill="white"/>
<path fill-rule="evenodd" clip-rule="evenodd" d="M236.2 156.6L234.2 263.5L230.7 263.4L232.7 156.6H236.2Z" fill="white"/>
<path fill-rule="evenodd" clip-rule="evenodd" d="M239.7 156.6L237.7 263.5H234.2L236.2 156.6H239.7Z" fill="white"/>
<path fill-rule="evenodd" clip-rule="evenodd" d="M243.2 156.6L241.2 263.6L237.7 263.5L239.7 156.6H243.2Z" fill="white"/>
<path fill-rule="evenodd" clip-rule="evenodd" d="M246.6 156.6L244.7 263.7L241.2 263.6L243.2 156.6H246.6Z" fill="white"/>
<path fill-rule="evenodd" clip-rule="evenodd" d="M250.1 156.6L248.2 263.7H244.7L246.6 156.6H250.1Z" fill="white"/>
<path fill-rule="evenodd" clip-rule="evenodd" d="M251.1 156.6L249.1 263.7H248.2L250.1 156.6H251.1Z" fill="white"/>
<path fill-rule="evenodd" clip-rule="evenodd" d="M252 156.6L250.1 263.8L249.1 263.7L251.1 156.6H252Z" fill="white"/>
<path fill-rule="evenodd" clip-rule="evenodd" d="M253 156.6L251 263.8H250.1L252 156.6H253Z" fill="white"/>
<path fill-rule="evenodd" clip-rule="evenodd" d="M254 156.6L252 263.8H251L253 156.6H254Z" fill="white"/>
<path fill-rule="evenodd" clip-rule="evenodd" d="M254.9 156.6L253 263.8H252L254 156.6H254.9Z" fill="white"/>
<path fill-rule="evenodd" clip-rule="evenodd" d="M255.9 156.6L253.9 263.8H253L254.9 156.6H255.9Z" fill="white"/>
<path fill-rule="evenodd" clip-rule="evenodd" d="M256.8 156.6L254.9 263.8H253.9L255.9 156.6H256.8Z" fill="white"/>
<path fill-rule="evenodd" clip-rule="evenodd" d="M257.8 156.6L255.8 263.9L254.9 263.8L256.8 156.6H257.8Z" fill="white"/>
<path fill-rule="evenodd" clip-rule="evenodd" d="M258.8 156.6L256.8 263.9H255.8L257.8 156.6H258.8Z" fill="white"/>
<path fill-rule="evenodd" clip-rule="evenodd" d="M259.7 156.6L257.7 263.9H256.8L258.8 156.6H259.7Z" fill="white"/>
<path fill-rule="evenodd" clip-rule="evenodd" d="M260.7 156.6L258.7 263.9H257.7L259.7 156.6H260.7Z" fill="white"/>
<path fill-rule="evenodd" clip-rule="evenodd" d="M261.6 156.6L259.7 263.9H258.7L260.7 156.6H261.6Z" fill="white"/>
<path fill-rule="evenodd" clip-rule="evenodd" d="M262.6 156.6L260.6 263.9H259.7L261.6 156.6H262.6Z" fill="white"/>
<path fill-rule="evenodd" clip-rule="evenodd" d="M263.5 156.6L261.6 264L260.6 263.9L262.6 156.6H263.5Z" fill="white"/>
<path fill-rule="evenodd" clip-rule="evenodd" d="M264.5 156.6L262.5 264H261.6L263.5 156.6H264.5Z" fill="white"/>
<path fill-rule="evenodd" clip-rule="evenodd" d="M265.5 156.6L263.5 264H262.5L264.5 156.6H265.5Z" fill="white"/>
<path fill-rule="evenodd" clip-rule="evenodd" d="M266.4 156.6L264.5 264H263.5L265.5 156.6H266.4Z" fill="white"/>
<path fill-rule="evenodd" clip-rule="evenodd" d="M267.4 156.6L265.4 264H264.5L266.4 156.6H267.4Z" fill="white"/>
<path fill-rule="evenodd" clip-rule="evenodd" d="M268.3 156.6L266.4 264.1L265.4 264L267.4 156.6H268.3Z" fill="white"/>
<path fill-rule="evenodd" clip-rule="evenodd" d="M269.3 156.6L267.3 264.1H266.4L268.3 156.6H269.3Z" fill="white"/>
<path fill-rule="evenodd" clip-rule="evenodd" d="M270.3 156.6L268.3 264.1H267.3L269.3 156.6H270.3Z" fill="white"/>
<path fill-rule="evenodd" clip-rule="evenodd" d="M271.2 156.6L269.2 264.1H268.3L270.3 156.6H271.2Z" fill="white"/>
<path fill-rule="evenodd" clip-rule="evenodd" d="M272.2 156.6L270.2 264.1H269.2L271.2 156.6H272.2Z" fill="white"/>
<path fill-rule="evenodd" clip-rule="evenodd" d="M273.1 156.6L271.2 264.1H270.2L272.2 156.6H273.1Z" fill="white"/>
<path fill-rule="evenodd" clip-rule="evenodd" d="M274.1 156.6L272.1 264.1H271.7H271.2L273.1 156.6H274.1Z" fill="white"/>
<path fill-rule="evenodd" clip-rule="evenodd" d="M275 156.6L273.1 264.1H272.1L274.1 156.6H275Z" fill="white"/>
<path fill-rule="evenodd" clip-rule="evenodd" d="M276 156.6L274 264.1H273.1L275 156.6H276Z" fill="white"/>
<path fill-rule="evenodd" clip-rule="evenodd" d="M277 156.6L275 264.1H274L276 156.6H277Z" fill="white"/>
<path fill-rule="evenodd" clip-rule="evenodd" d="M277.9 156.6L275.9 264.1H275L277 156.6H277.9Z" fill="white"/>
<path fill-rule="evenodd" clip-rule="evenodd" d="M278.9 156.6L276.9 264.1H275.9L277.9 156.6H278.9Z" fill="white"/>
<path fill-rule="evenodd" clip-rule="evenodd" d="M279.8 156.6L277.9 264.1H276.9L278.9 156.6H279.8Z" fill="white"/>
<path fill-rule="evenodd" clip-rule="evenodd" d="M280.8 156.6L278.8 264.1H277.9L279.8 156.6H280.8Z" fill="white"/>
<path fill-rule="evenodd" clip-rule="evenodd" d="M281.7 156.6L279.8 264.1H278.8L280.8 156.6H281.7Z" fill="white"/>
<path fill-rule="evenodd" clip-rule="evenodd" d="M282.7 156.6L280.7 264.1H279.8L281.7 156.6H282.7Z" fill="white"/>
<path fill-rule="evenodd" clip-rule="evenodd" d="M283.7 156.6L281.7 264.1H280.7L282.7 156.6H283.7Z" fill="white"/>
<path fill-rule="evenodd" clip-rule="evenodd" d="M284.6 156.6L282.7 264.1H281.7L283.7 156.6H284.6Z" fill="white"/>
<path fill-rule="evenodd" clip-rule="evenodd" d="M285.6 156.6L283.6 264.1H282.7L284.6 156.6H285.6Z" fill="white"/>
<path fill-rule="evenodd" clip-rule="evenodd" d="M286.5 156.6L284.6 264.1H283.6L285.6 156.6H286.5Z" fill="white"/>
<path fill-rule="evenodd" clip-rule="evenodd" d="M287.5 156.6L285.5 264.1H284.6L286.5 156.6H287.5Z" fill="white"/>
<path fill-rule="evenodd" clip-rule="evenodd" d="M288.5 156.6L286.5 264.1H285.5L287.5 156.6H288.5Z" fill="white"/>
<path fill-rule="evenodd" clip-rule="evenodd" d="M289.4 156.6L287.4 264.1H286.5L288.5 156.6H289.4Z" fill="white"/>
<path fill-rule="evenodd" clip-rule="evenodd" d="M290.4 156.6L288.4 264.1H287.4L289.4 156.6H290.4Z" fill="white"/>
<path fill-rule="evenodd" clip-rule="evenodd" d="M291.3 156.6L289.4 264.1H288.4L290.4 156.6H291.3Z" fill="white"/>
<path fill-rule="evenodd" clip-rule="evenodd" d="M292.3 156.6L290.3 264.1H289.4L291.3 156.6H292.3Z" fill="white"/>
<path fill-rule="evenodd" clip-rule="evenodd" d="M293.2 156.6L291.3 264.1H290.3L292.3 156.6H293.2Z" fill="white"/>
<path fill-rule="evenodd" clip-rule="evenodd" d="M294.2 156.6L292.2 264.1H291.3L293.2 156.6H294.2Z" fill="white"/>
<path fill-rule="evenodd" clip-rule="evenodd" d="M295.2 156.6L293.2 264.1H292.2L294.2 156.6H295.2Z" fill="white"/>
<path fill-rule="evenodd" clip-rule="evenodd" d="M296.1 156.6L294.1 264.1H293.2L295.2 156.6H296.1Z" fill="white"/>
<path fill-rule="evenodd" clip-rule="evenodd" d="M297.1 156.6L295.1 264.1H294.1L296.1 156.6H297.1Z" fill="white"/>
<path fill-rule="evenodd" clip-rule="evenodd" d="M298 156.6L296.1 264.1H295.1L297.1 156.6H298Z" fill="white"/>
<path fill-rule="evenodd" clip-rule="evenodd" d="M299 156.6L297 264.1H296.1L298 156.6H299Z" fill="white"/>
<path fill-rule="evenodd" clip-rule="evenodd" d="M299.9 156.6L298 264.1H297L299 156.6H299.9Z" fill="white"/>
<path fill-rule="evenodd" clip-rule="evenodd" d="M300.9 156.6L298.9 264.1H298L299.9 156.6H300.9Z" fill="white"/>
<path fill-rule="evenodd" clip-rule="evenodd" d="M301.9 156.6L299.9 264.1H298.9L300.9 156.6H301.9Z" fill="white"/>
<path fill-rule="evenodd" clip-rule="evenodd" d="M302.8 156.6L300.9 264.1H299.9L301.9 156.6H302.8Z" fill="white"/>
<path fill-rule="evenodd" clip-rule="evenodd" d="M303.8 156.6L301.8 264.1H300.9L302.8 156.6H303.8Z" fill="white"/>
<path fill-rule="evenodd" clip-rule="evenodd" d="M304.7 156.6L302.8 264.1H301.8L303.8 156.6H304.7Z" fill="white"/>
<path fill-rule="evenodd" clip-rule="evenodd" d="M305.7 156.6L303.7 264.1H302.8L304.7 156.6H305.7Z" fill="white"/>
<path fill-rule="evenodd" clip-rule="evenodd" d="M306.7 156.6L304.7 264.1H303.7L305.7 156.6H306.7Z" fill="white"/>
<path fill-rule="evenodd" clip-rule="evenodd" d="M307.6 156.6L305.6 264.1H304.7L306.7 156.6H307.6Z" fill="white"/>
<path fill-rule="evenodd" clip-rule="evenodd" d="M308.6 156.6L306.6 264.1H305.6L307.6 156.6H308.6Z" fill="white"/>
<path fill-rule="evenodd" clip-rule="evenodd" d="M309.5 156.6L307.6 264.1H306.6L308.6 156.6H309.5Z" fill="white"/>
<path fill-rule="evenodd" clip-rule="evenodd" d="M310.5 156.6L308.5 264.1H307.6L309.5 156.6H310.5Z" fill="white"/>
<path fill-rule="evenodd" clip-rule="evenodd" d="M311.4 156.6L309.5 264.1H308.5L310.5 156.6H311.4Z" fill="white"/>
<path fill-rule="evenodd" clip-rule="evenodd" d="M312.4 156.6L310.4 264.1H309.5L311.4 156.6H312.4Z" fill="white"/>
<path fill-rule="evenodd" clip-rule="evenodd" d="M313.4 156.6L311.4 264.1H310.4L312.4 156.6H313.4Z" fill="white"/>
<path fill-rule="evenodd" clip-rule="evenodd" d="M314.3 156.6L312.4 264.1H311.4L313.4 156.6H314.3Z" fill="white"/>
<path fill-rule="evenodd" clip-rule="evenodd" d="M315.3 156.6L313.3 264.1H312.4L314.3 156.6H315.3Z" fill="white"/>
<path fill-rule="evenodd" clip-rule="evenodd" d="M316.2 156.6L314.3 264.1H313.3L315.3 156.6H316.2Z" fill="white"/>
<path fill-rule="evenodd" clip-rule="evenodd" d="M317.2 156.6L315.2 264.1H314.3L316.2 156.6H317.2Z" fill="white"/>
<path fill-rule="evenodd" clip-rule="evenodd" d="M318.2 156.6L316.2 264.1H315.2L317.2 156.6H318.2Z" fill="white"/>
<path fill-rule="evenodd" clip-rule="evenodd" d="M319.1 156.6L317.1 264.1H316.2L318.2 156.6H319.1Z" fill="white"/>
<path fill-rule="evenodd" clip-rule="evenodd" d="M320.1 156.6L318.1 264.1H317.1L319.1 156.6H320.1Z" fill="white"/>
<path fill-rule="evenodd" clip-rule="evenodd" d="M321 156.6L319.1 264.1H318.1L320.1 156.6H321Z" fill="white"/>
<path fill-rule="evenodd" clip-rule="evenodd" d="M322 156.6L320 264.1H319.1L321 156.6H322Z" fill="white"/>
<path fill-rule="evenodd" clip-rule="evenodd" d="M322.9 156.6L321 264.1H320L322 156.6H322.9Z" fill="white"/>
<path fill-rule="evenodd" clip-rule="evenodd" d="M323.9 156.6L321.9 264.1H321L322.9 156.6H323.9Z" fill="white"/>
<path fill-rule="evenodd" clip-rule="evenodd" d="M324.9 156.6L322.9 264.1H321.9L323.9 156.6H324.9Z" fill="white"/>
<path fill-rule="evenodd" clip-rule="evenodd" d="M325.8 156.6L323.8 264.1H322.9L324.9 156.6H325.8Z" fill="white"/>
<path fill-rule="evenodd" clip-rule="evenodd" d="M326.8 156.6L324.8 264.1H323.8L325.8 156.6H326.8Z" fill="white"/>
<path fill-rule="evenodd" clip-rule="evenodd" d="M327.7 156.6L325.8 264.1H324.8L326.8 156.6H327.7Z" fill="white"/>
<path fill-rule="evenodd" clip-rule="evenodd" d="M328.7 156.6L326.7 264.1H325.8L327.7 156.6H328.7Z" fill="white"/>
<path fill-rule="evenodd" clip-rule="evenodd" d="M329.6 156.6L327.7 264.1H326.7L328.7 156.6H329.6Z" fill="white"/>
<path fill-rule="evenodd" clip-rule="evenodd" d="M330.6 156.6L328.6 264.1H327.7L329.6 156.6H330.6Z" fill="white"/>
<path fill-rule="evenodd" clip-rule="evenodd" d="M331.6 156.6L329.6 264.1H328.6L330.6 156.6H331.6Z" fill="white"/>
<path fill-rule="evenodd" clip-rule="evenodd" d="M332.5 156.6L330.6 264.1H329.6L331.6 156.6H332.5Z" fill="white"/>
<path fill-rule="evenodd" clip-rule="evenodd" d="M333.5 156.6L331.5 264.1H330.6L332.5 156.6H333.5Z" fill="white"/>
<path fill-rule="evenodd" clip-rule="evenodd" d="M334.4 156.6L332.5 264.1H331.5L333.5 156.6H334.4Z" fill="white"/>
<path fill-rule="evenodd" clip-rule="evenodd" d="M335.4 156.6L333.4 264.1H332.5L334.4 156.6H335.4Z" fill="white"/>
<path fill-rule="evenodd" clip-rule="evenodd" d="M336.4 156.6L334.4 264.1H333.4L335.4 156.6H336.4Z" fill="white"/>
<path fill-rule="evenodd" clip-rule="evenodd" d="M337.3 156.6L335.3 264.1H334.4L336.4 156.6H337.3Z" fill="white"/>
<path fill-rule="evenodd" clip-rule="evenodd" d="M338.3 156.6L336.3 264.1H335.3L337.3 156.6H338.3Z" fill="white"/>
<path fill-rule="evenodd" clip-rule="evenodd" d="M339.2 156.6L337.3 264.1H336.3L338.3 156.6H339.2Z" fill="white"/>
<path fill-rule="evenodd" clip-rule="evenodd" d="M340.2 156.6L338.2 264.1H337.3L339.2 156.6H340.2Z" fill="white"/>
<path fill-rule="evenodd" clip-rule="evenodd" d="M341.1 156.6L339.2 264.1H338.2L340.2 156.6H341.1Z" fill="white"/>
<path fill-rule="evenodd" clip-rule="evenodd" d="M342.1 156.6L340.1 264.1H339.2L341.1 156.6H342.1Z" fill="white"/>
<path fill-rule="evenodd" clip-rule="evenodd" d="M343.1 156.6L341.1 264.1H340.1L342.1 156.6H343.1Z" fill="white"/>
<path fill-rule="evenodd" clip-rule="evenodd" d="M344 156.6L342 264.1H341.1L343.1 156.6H344Z" fill="white"/>
<path fill-rule="evenodd" clip-rule="evenodd" d="M345 156.6L343 264.1H342L344 156.6H345Z" fill="white"/>
<path fill-rule="evenodd" clip-rule="evenodd" d="M345.9 156.6L344 264.1H343L345 156.6H345.9Z" fill="white"/>
<path fill-rule="evenodd" clip-rule="evenodd" d="M346.9 156.6L344.9 264.1H344L345.9 156.6H346.9Z" fill="white"/>
<path fill-rule="evenodd" clip-rule="evenodd" d="M347.8 156.6L345.9 264.1H344.9L346.9 156.6H347.8Z" fill="white"/>
<path fill-rule="evenodd" clip-rule="evenodd" d="M348.8 156.6L346.8 264.1H345.9L347.8 156.6H348.8Z" fill="white"/>
<path fill-rule="evenodd" clip-rule="evenodd" d="M349.8 156.6L347.8 264.1H346.8L348.8 156.6H349.8Z" fill="white"/>
<path fill-rule="evenodd" clip-rule="evenodd" d="M350.7 156.6L348.8 264.1H347.8L349.8 156.6H350.7Z" fill="white"/>
<path fill-rule="evenodd" clip-rule="evenodd" d="M351.7 156.6L349.7 264.1H348.8L350.7 156.6H351.7Z" fill="white"/>
<path fill-rule="evenodd" clip-rule="evenodd" d="M352.6 156.6L350.7 264.1H349.7L351.7 156.6H352.6Z" fill="white"/>
<path fill-rule="evenodd" clip-rule="evenodd" d="M353.6 156.6L351.6 264.1H350.7L352.6 156.6H353.6Z" fill="white"/>
<path fill-rule="evenodd" clip-rule="evenodd" d="M354.6 156.6L352.6 264.1H351.6L353.6 156.6H354.6Z" fill="white"/>
<path fill-rule="evenodd" clip-rule="evenodd" d="M355.5 156.6L353.5 264.1H352.6L354.6 156.6H355.5Z" fill="white"/>
<path fill-rule="evenodd" clip-rule="evenodd" d="M356.5 156.6L354.5 264.1H353.5L355.5 156.6H356.5Z" fill="white"/>
<path fill-rule="evenodd" clip-rule="evenodd" d="M357.4 156.6L355.5 264.1H354.5L356.5 156.6H357.4Z" fill="white"/>
<path fill-rule="evenodd" clip-rule="evenodd" d="M358.4 156.6L356.4 264.1H355.5L357.4 156.6H358.4Z" fill="white"/>
<path fill-rule="evenodd" clip-rule="evenodd" d="M359.3 156.6L357.4 264.1H356.4L358.4 156.6H359.3Z" fill="white"/>
<path fill-rule="evenodd" clip-rule="evenodd" d="M360.3 156.6V156.7L358.3 264.1H357.4L359.3 156.6H360.3Z" fill="white"/>
<path fill-rule="evenodd" clip-rule="evenodd" d="M360.3 156.7H361.3L359.3 264.1H358.3L360.3 156.7Z" fill="white"/>
<path fill-rule="evenodd" clip-rule="evenodd" d="M361.3 156.7H362.2L360.3 264.1H359.3L361.3 156.7Z" fill="white"/>
<path fill-rule="evenodd" clip-rule="evenodd" d="M362.2 156.7H363.2L361.2 264.1H360.3L362.2 156.7Z" fill="white"/>
<path fill-rule="evenodd" clip-rule="evenodd" d="M363.2 156.7H364.1L362.2 264.1H361.2L363.2 156.7Z" fill="white"/>
<path fill-rule="evenodd" clip-rule="evenodd" d="M364.1 156.7H365.1L363.1 264.1H362.2L364.1 156.7Z" fill="white"/>
<path fill-rule="evenodd" clip-rule="evenodd" d="M365.1 156.7L366 156.8L364.1 264.1H363.1L365.1 156.7Z" fill="white"/>
<path fill-rule="evenodd" clip-rule="evenodd" d="M366 156.8H367L365 264.1H364.1L366 156.8Z" fill="white"/>
<path fill-rule="evenodd" clip-rule="evenodd" d="M367 156.8H368L366 264.1H365L367 156.8Z" fill="white"/>
<path fill-rule="evenodd" clip-rule="evenodd" d="M368 156.8H368.9L367 264.1H366L368 156.8Z" fill="white"/>
<path fill-rule="evenodd" clip-rule="evenodd" d="M368.9 156.8H369.9L367.9 264.1H367L368.9 156.8Z" fill="white"/>
<path fill-rule="evenodd" clip-rule="evenodd" d="M369.9 156.8H370.8L368.9 264.1H367.9L369.9 156.8Z" fill="white"/>
<path fill-rule="evenodd" clip-rule="evenodd" d="M370.8 156.8L371.8 156.9L369.8 264.1H368.9L370.8 156.8Z" fill="white"/>
<path fill-rule="evenodd" clip-rule="evenodd" d="M371.8 156.9H372.8L370.8 264.1H369.8L371.8 156.9Z" fill="white"/>
<path fill-rule="evenodd" clip-rule="evenodd" d="M372.8 156.9H373.7L371.7 264.1H370.8L372.8 156.9Z" fill="white"/>
<path fill-rule="evenodd" clip-rule="evenodd" d="M373.7 156.9H374.7L372.7 264.1H371.7L373.7 156.9Z" fill="white"/>
<path fill-rule="evenodd" clip-rule="evenodd" d="M374.7 156.9H375.6L373.7 264.1H372.7L374.7 156.9Z" fill="white"/>
<path fill-rule="evenodd" clip-rule="evenodd" d="M375.6 156.9H376.6L374.6 264.1H373.7L375.6 156.9Z" fill="white"/>
<path fill-rule="evenodd" clip-rule="evenodd" d="M376.6 156.9L377.5 157L375.6 264.1H374.6L376.6 156.9Z" fill="white"/>
<path fill-rule="evenodd" clip-rule="evenodd" d="M377.5 157H378.5L376.5 264.1H375.6L377.5 157Z" fill="white"/>
<path fill-rule="evenodd" clip-rule="evenodd" d="M378.5 157H379.5L377.5 264.1H376.5L378.5 157Z" fill="white"/>
<path fill-rule="evenodd" clip-rule="evenodd" d="M379.5 157H380.4L378.5 264.1H377.5L379.5 157Z" fill="white"/>
<path fill-rule="evenodd" clip-rule="evenodd" d="M380.4 157H381.4L379.4 264.1H378.5L380.4 157Z" fill="white"/>
<path fill-rule="evenodd" clip-rule="evenodd" d="M381.4 157L382.3 157.1L380.4 264.1H379.4L381.4 157Z" fill="white"/>
<path fill-rule="evenodd" clip-rule="evenodd" d="M382.3 157.1H383.3L381.3 264.1H380.4L382.3 157.1Z" fill="white"/>
<path fill-rule="evenodd" clip-rule="evenodd" d="M383.3 157.1H384.2L382.3 264.1H381.3L383.3 157.1Z" fill="white"/>
<path fill-rule="evenodd" clip-rule="evenodd" d="M384.2 157.1H385.2L383.2 264.1H382.3L384.2 157.1Z" fill="white"/>
<path fill-rule="evenodd" clip-rule="evenodd" d="M385.2 157.1H386.2L384.2 264.1H383.2L385.2 157.1Z" fill="white"/>
<path fill-rule="evenodd" clip-rule="evenodd" d="M386.2 157.1H387.1L385.2 264.1H384.2L386.2 157.1Z" fill="white"/>
<path fill-rule="evenodd" clip-rule="evenodd" d="M387.1 157.1L388.1 157.2L386.1 264.1H385.2L387.1 157.1Z" fill="white"/>
<path fill-rule="evenodd" clip-rule="evenodd" d="M388.1 157.2H389L387.1 264.1H386.1L388.1 157.2Z" fill="white"/>
<path fill-rule="evenodd" clip-rule="evenodd" d="M389 157.2H390L388 264.1H387.1L389 157.2Z" fill="white"/>
<path fill-rule="evenodd" clip-rule="evenodd" d="M390 157.2H390.9L389 264.1H388L390 157.2Z" fill="white"/>
<path fill-rule="evenodd" clip-rule="evenodd" d="M390.9 157.2H391.9L389.9 264.1H389L390.9 157.2Z" fill="white"/>
<path fill-rule="evenodd" clip-rule="evenodd" d="M391.9 157.2H392.9L390.9 264.1H389.9L391.9 157.2Z" fill="white"/>
<path fill-rule="evenodd" clip-rule="evenodd" d="M392.9 157.2L393.8 157.3L391.9 264.1H390.9L392.9 157.2Z" fill="white"/>
<path fill-rule="evenodd" clip-rule="evenodd" d="M393.8 157.3H394.8L392.8 264.1H391.9L393.8 157.3Z" fill="white"/>
<path fill-rule="evenodd" clip-rule="evenodd" d="M394.8 157.3H395.7L393.8 264.1H392.8L394.8 157.3Z" fill="white"/>
<path fill-rule="evenodd" clip-rule="evenodd" d="M395.7 157.3H396.7L394.7 264.1H393.8L395.7 157.3Z" fill="white"/>
<path fill-rule="evenodd" clip-rule="evenodd" d="M396.7 157.3H397.7L395.7 264.1H394.7L396.7 157.3Z" fill="white"/>
<path fill-rule="evenodd" clip-rule="evenodd" d="M397.7 157.3L398.6 157.4L396.7 264.1H395.7L397.7 157.3Z" fill="white"/>
<path fill-rule="evenodd" clip-rule="evenodd" d="M398.6 157.4H399.6L397.6 264.1H396.7L398.6 157.4Z" fill="white"/>
<path fill-rule="evenodd" clip-rule="evenodd" d="M399.6 157.4H400.5L398.6 264.1H397.6L399.6 157.4Z" fill="white"/>
<path fill-rule="evenodd" clip-rule="evenodd" d="M400.5 157.4H401.5L399.5 264.1H398.6L400.5 157.4Z" fill="white"/>
<path fill-rule="evenodd" clip-rule="evenodd" d="M401.5 157.4H402.4L400.5 264.1H399.5L401.5 157.4Z" fill="white"/>
<path fill-rule="evenodd" clip-rule="evenodd" d="M402.4 157.4H403.4L401.4 264.1H400.5L402.4 157.4Z" fill="white"/>
<path fill-rule="evenodd" clip-rule="evenodd" d="M403.4 157.4L404.4 157.5L402.4 264.1H401.4L403.4 157.4Z" fill="white"/>
<path fill-rule="evenodd" clip-rule="evenodd" d="M404.4 157.5H405.3L403.4 264.1H402.4L404.4 157.5Z" fill="white"/>
<path fill-rule="evenodd" clip-rule="evenodd" d="M405.3 157.5H406.3L404.3 264.1H403.4L405.3 157.5Z" fill="white"/>
<path fill-rule="evenodd" clip-rule="evenodd" d="M406.3 157.5H407.2L405.3 264.1H404.3L406.3 157.5Z" fill="white"/>
<path fill-rule="evenodd" clip-rule="evenodd" d="M407.2 157.5H408.2L406.2 264.1H405.3L407.2 157.5Z" fill="white"/>
<path fill-rule="evenodd" clip-rule="evenodd" d="M408.2 157.5H409.1L407.2 264.1H406.2L408.2 157.5Z" fill="white"/>
<path fill-rule="evenodd" clip-rule="evenodd" d="M409.1 157.5L410.1 157.6L408.2 264.1H407.2L409.1 157.5Z" fill="white"/>
<path fill-rule="evenodd" clip-rule="evenodd" d="M410.1 157.6H411.1L409.1 264.1H408.2L410.1 157.6Z" fill="white"/>
<path fill-rule="evenodd" clip-rule="evenodd" d="M411.1 157.6H412L410.1 264.1H409.1L411.1 157.6Z" fill="white"/>
<path fill-rule="evenodd" clip-rule="evenodd" d="M412 157.6H413L411 264.1H410.1L412 157.6Z" fill="white"/>
<path fill-rule="evenodd" clip-rule="evenodd" d="M413 157.6H413.9L412 264.1H411L413 157.6Z" fill="white"/>
<path fill-rule="evenodd" clip-rule="evenodd" d="M413.9 157.6L414.9 157.7L412.9 264.1H412L413.9 157.6Z" fill="white"/>
<path fill-rule="evenodd" clip-rule="evenodd" d="M414.9 157.7H415.8L413.9 264.1H412.9L414.9 157.7Z" fill="white"/>
<path fill-rule="evenodd" clip-rule="evenodd" d="M415.8 157.7H416.8L414.9 264.1H413.9L415.8 157.7Z" fill="white"/>
<path fill-rule="evenodd" clip-rule="evenodd" d="M416.8 157.7H417.8L415.8 264.1H414.9L416.8 157.7Z" fill="white"/>
<path fill-rule="evenodd" clip-rule="evenodd" d="M417.8 157.7H418.7L416.8 264.1H415.8L417.8 157.7Z" fill="white"/>
<path fill-rule="evenodd" clip-rule="evenodd" d="M418.7 157.7H419.7L417.7 264.1H416.8L418.7 157.7Z" fill="white"/>
<path fill-rule="evenodd" clip-rule="evenodd" d="M419.7 157.7L420.6 157.8L418.7 264.1H417.7L419.7 157.7Z" fill="white"/>
<path fill-rule="evenodd" clip-rule="evenodd" d="M420.6 157.8H421.6L419.6 264.1H418.7L420.6 157.8Z" fill="white"/>
<path fill-rule="evenodd" clip-rule="evenodd" d="M421.6 157.8H422.6L420.6 264.1H419.6L421.6 157.8Z" fill="white"/>
<path fill-rule="evenodd" clip-rule="evenodd" d="M422.6 157.8H423.5L421.6 264.1H420.6L422.6 157.8Z" fill="white"/>
<path fill-rule="evenodd" clip-rule="evenodd" d="M423.5 157.8H424.5L422.5 264.1H421.6L423.5 157.8Z" fill="white"/>
<path fill-rule="evenodd" clip-rule="evenodd" d="M424.5 157.8H425.4L423.5 264.1H422.5L424.5 157.8Z" fill="white"/>
<path fill-rule="evenodd" clip-rule="evenodd" d="M425.4 157.8L426.4 157.9L424.4 264.1H423.5L425.4 157.8Z" fill="white"/>
<path fill-rule="evenodd" clip-rule="evenodd" d="M426.4 157.9H427.3L425.4 264.1H424.4L426.4 157.9Z" fill="white"/>
<path fill-rule="evenodd" clip-rule="evenodd" d="M427.3 157.9H428.3L426.4 264.1H425.4L427.3 157.9Z" fill="white"/>
<path fill-rule="evenodd" clip-rule="evenodd" d="M428.3 157.9H429.3L427.3 264.1H426.4L428.3 157.9Z" fill="white"/>
<path fill-rule="evenodd" clip-rule="evenodd" d="M429.3 157.9H430.2L428.3 264.1H427.3L429.3 157.9Z" fill="white"/>
<path fill-rule="evenodd" clip-rule="evenodd" d="M430.2 157.9H431.2L429.2 264.1H428.3L430.2 157.9Z" fill="white"/>
<path fill-rule="evenodd" clip-rule="evenodd" d="M431.2 157.9L432.1 158L430.2 264.1H429.2L431.2 157.9Z" fill="white"/>
<path fill-rule="evenodd" clip-rule="evenodd" d="M432.1 158H433.1L431.1 264.1H430.2L432.1 158Z" fill="white"/>
<path fill-rule="evenodd" clip-rule="evenodd" d="M433.1 158H434L432.1 264.1H431.1L433.1 158Z" fill="white"/>
<path fill-rule="evenodd" clip-rule="evenodd" d="M434 158H435L433.1 264.1H432.1L434 158Z" fill="white"/>
<path fill-rule="evenodd" clip-rule="evenodd" d="M435 158H436L434 264.1H433.1L435 158Z" fill="white"/>
<path fill-rule="evenodd" clip-rule="evenodd" d="M436 158L436.9 158.1L435 264.1H434L436 158Z" fill="white"/>
<path fill-rule="evenodd" clip-rule="evenodd" d="M436.9 158.1H437.7V167.1L435.9 264.1H435L436.9 158.1Z" fill="white"/>
<path fill-rule="evenodd" clip-rule="evenodd" d="M437.7 219.4L436.9 264.1H435.9L437.7 167.1V219.4Z" fill="white"/>
<path fill-rule="evenodd" clip-rule="evenodd" d="M436.9 264.1L437.7 219.4V264.1H436.9Z" fill="white"/>
<path fill-rule="evenodd" clip-rule="evenodd" d="M8.59995 3.79999L4.19995 245.8V3.79999H8.59995Z" fill="white"/>
<path fill-rule="evenodd" clip-rule="evenodd" d="M12.1 3.79999L4.19995 436.4V245.8L8.59995 3.79999H12.1Z" fill="white"/>
<path fill-rule="evenodd" clip-rule="evenodd" d="M15.6 3.79999L6.69995 492.2H4.39995H4.19995V436.4L12.1 3.79999H15.6Z" fill="white"/>
<path fill-rule="evenodd" clip-rule="evenodd" d="M19.1 3.79999L10.2 492.2H6.69995L15.6 3.79999H19.1Z" fill="white"/>
<path fill-rule="evenodd" clip-rule="evenodd" d="M22.5999 3.79999L13.7 492.2H10.2L19.1 3.79999H22.5999Z" fill="white"/>
<path fill-rule="evenodd" clip-rule="evenodd" d="M26.0999 3.79999L17.1 492.2H13.7L22.5999 3.79999H26.0999Z" fill="white"/>
<path fill-rule="evenodd" clip-rule="evenodd" d="M29.6 3.79999L20.6 492.2H17.1L26.1 3.79999H29.6Z" fill="white"/>
<path fill-rule="evenodd" clip-rule="evenodd" d="M33.1 3.79999L24.1 492.2H20.6L29.6 3.79999H33.1Z" fill="white"/>
<path fill-rule="evenodd" clip-rule="evenodd" d="M36.6 3.79999L27.6 492.2H24.1L33.1 3.79999H36.6Z" fill="white"/>
<path fill-rule="evenodd" clip-rule="evenodd" d="M40.1 3.79999L31.1 492.2H27.6L36.6 3.79999H40.1Z" fill="white"/>
<path fill-rule="evenodd" clip-rule="evenodd" d="M43.5 3.79999L34.6 492.2H31.1L40.1 3.79999H43.5Z" fill="white"/>
<path fill-rule="evenodd" clip-rule="evenodd" d="M47 3.79999L38.1 492.2H34.6L43.5 3.79999H47Z" fill="white"/>
<path fill-rule="evenodd" clip-rule="evenodd" d="M50.5 3.79999L41.6 492.2H38.1L47 3.79999H50.5Z" fill="white"/>
<path fill-rule="evenodd" clip-rule="evenodd" d="M54 3.79999L45.1 492.2H41.6L50.5 3.79999H54Z" fill="white"/>
<path fill-rule="evenodd" clip-rule="evenodd" d="M57.5 3.79999L48.6 492.2H45.1L54 3.79999H57.5Z" fill="white"/>
<path fill-rule="evenodd" clip-rule="evenodd" d="M61 3.79999L52 492.2H48.6L57.5 3.79999H61Z" fill="white"/>
<path fill-rule="evenodd" clip-rule="evenodd" d="M64.5 3.79999L55.5 492.2H52L61 3.79999H64.5Z" fill="white"/>
<path fill-rule="evenodd" clip-rule="evenodd" d="M68 3.79999L59 492.2H55.5L64.5 3.79999H68Z" fill="white"/>
<path fill-rule="evenodd" clip-rule="evenodd" d="M71.5 3.79999L62.5 492.2H59L68 3.79999H71.5Z" fill="white"/>
<path fill-rule="evenodd" clip-rule="evenodd" d="M74.9 3.79999L66 492.2H62.5L71.5 3.79999H74.9Z" fill="white"/>
<path fill-rule="evenodd" clip-rule="evenodd" d="M78.4 3.79999L69.5 492.2H66L74.9 3.79999H78.4Z" fill="white"/>
<path fill-rule="evenodd" clip-rule="evenodd" d="M81.9 3.79999L73 492.2H69.5L78.4 3.79999H81.9Z" fill="white"/>
<path fill-rule="evenodd" clip-rule="evenodd" d="M85.4 3.79999L76.5 492.2H73L81.9 3.79999H85.4Z" fill="white"/>
<path fill-rule="evenodd" clip-rule="evenodd" d="M88.9 3.79999L80 492.2H76.5L85.4 3.79999H88.9Z" fill="white"/>
<path fill-rule="evenodd" clip-rule="evenodd" d="M92.4 3.79999L83.5 492.2H80L88.9 3.79999H92.4Z" fill="white"/>
<path fill-rule="evenodd" clip-rule="evenodd" d="M95.9 3.79999L86.9 492.2H83.5L92.4 3.79999H95.9Z" fill="white"/>
<path fill-rule="evenodd" clip-rule="evenodd" d="M99.3999 3.79999L90.3999 492.2H86.8999L95.8999 3.79999H99.3999Z" fill="white"/>
<path fill-rule="evenodd" clip-rule="evenodd" d="M102.9 3.79999L93.8999 492.2H90.3999L99.3999 3.79999H102.9Z" fill="white"/>
<path fill-rule="evenodd" clip-rule="evenodd" d="M106.4 3.79999L97.3999 492.2H93.8999L102.9 3.79999H106.4Z" fill="white"/>
<path fill-rule="evenodd" clip-rule="evenodd" d="M109.8 3.79999L100.9 492.2H97.3999L106.4 3.79999H109.8Z" fill="white"/>
<path fill-rule="evenodd" clip-rule="evenodd" d="M113.3 3.79999L104.4 492.2H100.9L109.8 3.79999H113.3Z" fill="white"/>
<path fill-rule="evenodd" clip-rule="evenodd" d="M116.8 3.79999L107.9 492.2H104.4L113.3 3.79999H116.8Z" fill="white"/>
<path fill-rule="evenodd" clip-rule="evenodd" d="M120.3 3.79999L111.4 492.2H107.9L116.8 3.79999H120.3Z" fill="white"/>
<path fill-rule="evenodd" clip-rule="evenodd" d="M123.8 3.79999L114.9 492.2H111.4L120.3 3.79999H123.8Z" fill="white"/>
<path fill-rule="evenodd" clip-rule="evenodd" d="M127.3 3.79999L118.4 492.2H114.9L123.8 3.79999H127.3Z" fill="white"/>
<path fill-rule="evenodd" clip-rule="evenodd" d="M130.8 3.79999L121.8 492.2H118.4L127.3 3.79999H130.8Z" fill="white"/>
<path fill-rule="evenodd" clip-rule="evenodd" d="M134.3 3.79999L125.3 492.2H121.8L130.8 3.79999H134.3Z" fill="white"/>
<path fill-rule="evenodd" clip-rule="evenodd" d="M137.8 3.79999L128.8 492.2H125.3L134.3 3.79999H137.8Z" fill="white"/>
<path fill-rule="evenodd" clip-rule="evenodd" d="M141.3 3.79999L132.3 492.2H128.8L137.8 3.79999H141.3Z" fill="white"/>
<path fill-rule="evenodd" clip-rule="evenodd" d="M144.7 3.79999L135.8 492.2H132.3L141.3 3.79999H144.7Z" fill="white"/>
<path fill-rule="evenodd" clip-rule="evenodd" d="M148.2 3.79999L139.3 492.2H135.8L144.7 3.79999H148.2Z" fill="white"/>
<path fill-rule="evenodd" clip-rule="evenodd" d="M151.7 3.79999L142.8 492.2H139.3L148.2 3.79999H151.7Z" fill="white"/>
<path fill-rule="evenodd" clip-rule="evenodd" d="M155.2 3.79999L146.3 492.2H142.8L151.7 3.79999H155.2Z" fill="white"/>
<path fill-rule="evenodd" clip-rule="evenodd" d="M158.7 3.79999L149.8 492.2H146.3L155.2 3.79999H158.7Z" fill="white"/>
<path fill-rule="evenodd" clip-rule="evenodd" d="M162.2 3.79999L153.3 492.2H149.8L158.7 3.79999H162.2Z" fill="white"/>
<path fill-rule="evenodd" clip-rule="evenodd" d="M165.7 3.79999L156.7 492.2H153.3L162.2 3.79999H165.7Z" fill="white"/>
<path fill-rule="evenodd" clip-rule="evenodd" d="M169.2 3.79999L160.2 492.2H156.7L165.7 3.79999H169.2Z" fill="white"/>
<path fill-rule="evenodd" clip-rule="evenodd" d="M172.7 3.79999L163.7 492.2H160.2L169.2 3.79999H172.7Z" fill="white"/>
<path fill-rule="evenodd" clip-rule="evenodd" d="M176.2 3.79999L167.2 492.2H163.7L172.7 3.79999H176.2Z" fill="white"/>
<path fill-rule="evenodd" clip-rule="evenodd" d="M179.6 3.79999L170.7 492.2H167.2L176.2 3.79999H179.6Z" fill="white"/>
<path fill-rule="evenodd" clip-rule="evenodd" d="M183.1 3.79999L174.2 492.2H170.7L179.6 3.79999H183.1Z" fill="white"/>
<path fill-rule="evenodd" clip-rule="evenodd" d="M186.6 3.79999L177.7 492.2H174.2L183.1 3.79999H186.6Z" fill="white"/>
<path fill-rule="evenodd" clip-rule="evenodd" d="M190.1 3.79999L181.2 492.2H177.7L186.6 3.79999H190.1Z" fill="white"/>
<path fill-rule="evenodd" clip-rule="evenodd" d="M193.6 3.79999L184.7 492.2H181.2L190.1 3.79999H193.6Z" fill="white"/>
<path fill-rule="evenodd" clip-rule="evenodd" d="M197.1 3.79999L188.1 492.2H184.7L193.6 3.79999H197.1Z" fill="white"/>
<path fill-rule="evenodd" clip-rule="evenodd" d="M200.6 3.79999L191.6 492.2H188.1L197.1 3.79999H200.6Z" fill="white"/>
<path fill-rule="evenodd" clip-rule="evenodd" d="M204.1 3.79999L195.1 492.2H191.6L200.6 3.79999H204.1Z" fill="white"/>
<path fill-rule="evenodd" clip-rule="evenodd" d="M207.6 3.79999L198.6 492.2H195.1L204.1 3.79999H207.6Z" fill="white"/>
<path fill-rule="evenodd" clip-rule="evenodd" d="M211.1 3.79999L202.1 492.2H198.6L207.6 3.79999H211.1Z" fill="white"/>
<path fill-rule="evenodd" clip-rule="evenodd" d="M214.5 3.79999L205.6 492.2H202.1L211.1 3.79999H214.5Z" fill="white"/>
<path fill-rule="evenodd" clip-rule="evenodd" d="M218 3.79999L209.1 492.2H205.6L214.5 3.79999H218Z" fill="white"/>
<path fill-rule="evenodd" clip-rule="evenodd" d="M221.5 3.79999L212.6 492.2H209.1L218 3.79999H221.5Z" fill="white"/>
<path fill-rule="evenodd" clip-rule="evenodd" d="M225 3.79999L216.1 492.2H212.6L221.5 3.79999H225Z" fill="white"/>
<path fill-rule="evenodd" clip-rule="evenodd" d="M228.5 3.79999L219.6 492.2H216.1L225 3.79999H228.5Z" fill="white"/>
<path fill-rule="evenodd" clip-rule="evenodd" d="M232 3.79999L223 492.2H219.6L228.5 3.79999H232Z" fill="white"/>
<path fill-rule="evenodd" clip-rule="evenodd" d="M235.5 3.79999L226.5 492.2H223L232 3.79999H235.5Z" fill="white"/>
<path fill-rule="evenodd" clip-rule="evenodd" d="M239 3.79999L230 492.2H226.5L235.5 3.79999H239Z" fill="white"/>
<path fill-rule="evenodd" clip-rule="evenodd" d="M242.5 3.79999L233.5 492.2H230L239 3.79999H242.5Z" fill="white"/>
<path fill-rule="evenodd" clip-rule="evenodd" d="M246 3.79999L237 492.2H233.5L242.5 3.79999H246Z" fill="white"/>
<path fill-rule="evenodd" clip-rule="evenodd" d="M249.4 3.79999L240.5 492.2H237L246 3.79999H249.4Z" fill="white"/>
<path fill-rule="evenodd" clip-rule="evenodd" d="M252.9 3.79999L244 492.2H240.5L249.4 3.79999H252.9Z" fill="white"/>
<path fill-rule="evenodd" clip-rule="evenodd" d="M253.9 3.79999L244.9 492.2H244L252.9 3.79999H253.9Z" fill="white"/>
<path fill-rule="evenodd" clip-rule="evenodd" d="M254.8 3.79999L245.9 492.2H244.9L253.9 3.79999H254.8Z" fill="white"/>
<path fill-rule="evenodd" clip-rule="evenodd" d="M255.8 3.79999L246.9 492.2H245.9L254.8 3.79999H255.8Z" fill="white"/>
<path fill-rule="evenodd" clip-rule="evenodd" d="M256.8 3.79999L247.8 492.2H246.9L255.8 3.79999H256.8Z" fill="white"/>
<path fill-rule="evenodd" clip-rule="evenodd" d="M257.7 3.79999L248.8 492.2H247.8L256.8 3.79999H257.7Z" fill="white"/>
<path fill-rule="evenodd" clip-rule="evenodd" d="M258.7 3.79999L249.7 492.2H248.8L257.7 3.79999H258.7Z" fill="white"/>
<path fill-rule="evenodd" clip-rule="evenodd" d="M259.6 3.79999L250.7 492.2H249.7L258.7 3.79999H259.6Z" fill="white"/>
<path fill-rule="evenodd" clip-rule="evenodd" d="M260.6 3.79999L251.7 492.2H250.7L259.6 3.79999H260.6Z" fill="white"/>
<path fill-rule="evenodd" clip-rule="evenodd" d="M261.6 3.79999L252.6 492.2H251.7L260.6 3.79999H261.6Z" fill="white"/>
<path fill-rule="evenodd" clip-rule="evenodd" d="M262.5 3.79999L253.6 492.2H252.6L261.6 3.79999H262.5Z" fill="white"/>
<path fill-rule="evenodd" clip-rule="evenodd" d="M263.5 3.79999L254.5 492.2H253.6L262.5 3.79999H263.5Z" fill="white"/>
<path fill-rule="evenodd" clip-rule="evenodd" d="M264.4 3.79999L255.5 492.2H254.5L263.5 3.79999H264.4Z" fill="white"/>
<path fill-rule="evenodd" clip-rule="evenodd" d="M265.4 3.79999L256.4 492.2H255.5L264.4 3.79999H265.4Z" fill="white"/>
<path fill-rule="evenodd" clip-rule="evenodd" d="M266.3 3.79999L257.4 492.2H256.4L265.4 3.79999H266.3Z" fill="white"/>
<path fill-rule="evenodd" clip-rule="evenodd" d="M267.3 3.79999L258.4 492.2H257.4L266.3 3.79999H267.3Z" fill="white"/>
<path fill-rule="evenodd" clip-rule="evenodd" d="M268.3 3.79999L259.3 492.2H258.4L267.3 3.79999H268.3Z" fill="white"/>
<path fill-rule="evenodd" clip-rule="evenodd" d="M269.2 3.79999L260.3 492.2H259.3L268.3 3.79999H269.2Z" fill="white"/>
<path fill-rule="evenodd" clip-rule="evenodd" d="M270.2 3.79999L261.2 492.2H260.3L269.2 3.79999H270.2Z" fill="white"/>
<path fill-rule="evenodd" clip-rule="evenodd" d="M271.1 3.79999L262.2 492.2H261.2L270.2 3.79999H271.1Z" fill="white"/>
<path fill-rule="evenodd" clip-rule="evenodd" d="M272.1 3.79999L263.1 492.2H262.2L271.1 3.79999H272.1Z" fill="white"/>
<path fill-rule="evenodd" clip-rule="evenodd" d="M273.1 3.79999L264.1 492.2H263.1L272.1 3.79999H273.1Z" fill="white"/>
<path fill-rule="evenodd" clip-rule="evenodd" d="M274 3.79999L265.1 492.2H264.1L273.1 3.79999H274Z" fill="white"/>
<path fill-rule="evenodd" clip-rule="evenodd" d="M275 3.79999L266 492.2H265.1L274 3.79999H275Z" fill="white"/>
<path fill-rule="evenodd" clip-rule="evenodd" d="M275.9 3.79999L267 492.2H266L275 3.79999H275.9Z" fill="white"/>
<path fill-rule="evenodd" clip-rule="evenodd" d="M276.9 3.79999L267.9 492.2H267L275.9 3.79999H276.9Z" fill="white"/>
<path fill-rule="evenodd" clip-rule="evenodd" d="M277.8 3.79999L268.9 492.2H267.9L276.9 3.79999H277.8Z" fill="white"/>
<path fill-rule="evenodd" clip-rule="evenodd" d="M278.8 3.79999L269.9 492.2H268.9L277.8 3.79999H278.8Z" fill="white"/>
<path fill-rule="evenodd" clip-rule="evenodd" d="M279.8 3.79999L270.8 492.2H269.9L278.8 3.79999H279.8Z" fill="white"/>
<path fill-rule="evenodd" clip-rule="evenodd" d="M280.7 3.79999L271.8 492.2H270.8L279.8 3.79999H280.7Z" fill="white"/>
<path fill-rule="evenodd" clip-rule="evenodd" d="M281.7 3.79999L272.7 492.2H271.8L280.7 3.79999H281.7Z" fill="white"/>
<path fill-rule="evenodd" clip-rule="evenodd" d="M282.6 3.79999L273.7 492.2H272.7L281.7 3.79999H282.6Z" fill="white"/>
<path fill-rule="evenodd" clip-rule="evenodd" d="M283.6 3.79999L274.6 492.2H273.7L282.6 3.79999H283.6Z" fill="white"/>
<path fill-rule="evenodd" clip-rule="evenodd" d="M284.5 3.79999L275.6 492.2H274.6L283.6 3.79999H284.5Z" fill="white"/>
<path fill-rule="evenodd" clip-rule="evenodd" d="M285.5 3.79999L276.6 492.2H275.6L284.5 3.79999H285.5Z" fill="white"/>
<path fill-rule="evenodd" clip-rule="evenodd" d="M286.5 3.79999L277.5 492.2H276.6L285.5 3.79999H286.5Z" fill="white"/>
<path fill-rule="evenodd" clip-rule="evenodd" d="M287.4 3.79999L278.5 492.2H277.5L286.5 3.79999H287.4Z" fill="white"/>
<path fill-rule="evenodd" clip-rule="evenodd" d="M288.4 3.79999L279.4 492.2H278.5L287.4 3.79999H288.4Z" fill="white"/>
<path fill-rule="evenodd" clip-rule="evenodd" d="M289.3 3.79999L280.4 492.2H279.4L288.4 3.79999H289.3Z" fill="white"/>
<path fill-rule="evenodd" clip-rule="evenodd" d="M290.3 3.79999L281.3 492.2H280.4L289.3 3.79999H290.3Z" fill="white"/>
<path fill-rule="evenodd" clip-rule="evenodd" d="M291.3 3.79999L282.3 492.2H281.3L290.3 3.79999H291.3Z" fill="white"/>
<path fill-rule="evenodd" clip-rule="evenodd" d="M292.2 3.79999L283.3 492.2H282.3L291.3 3.79999H292.2Z" fill="white"/>
<path fill-rule="evenodd" clip-rule="evenodd" d="M293.2 3.79999L284.2 492.2H283.3L292.2 3.79999H293.2Z" fill="white"/>
<path fill-rule="evenodd" clip-rule="evenodd" d="M294.1 3.79999L285.2 492.2H284.2L293.2 3.79999H294.1Z" fill="white"/>
<path fill-rule="evenodd" clip-rule="evenodd" d="M295.1 3.79999L286.1 492.2H285.2L294.1 3.79999H295.1Z" fill="white"/>
<path fill-rule="evenodd" clip-rule="evenodd" d="M296 3.79999L287.1 492.2H286.1L295.1 3.79999H296Z" fill="white"/>
<path fill-rule="evenodd" clip-rule="evenodd" d="M297 3.79999L288.1 492.2H287.1L296 3.79999H297Z" fill="white"/>
<path fill-rule="evenodd" clip-rule="evenodd" d="M298 3.79999L289 492.2H288.1L297 3.79999H298Z" fill="white"/>
<path fill-rule="evenodd" clip-rule="evenodd" d="M298.9 3.79999L290 492.2H289L298 3.79999H298.9Z" fill="white"/>
<path fill-rule="evenodd" clip-rule="evenodd" d="M299.9 3.79999L290.9 492.2H290L298.9 3.79999H299.9Z" fill="white"/>
<path fill-rule="evenodd" clip-rule="evenodd" d="M300.8 3.79999L291.9 492.2H290.9L299.9 3.79999H300.8Z" fill="white"/>
<path fill-rule="evenodd" clip-rule="evenodd" d="M301.8 3.79999L292.8 492.2H291.9L300.8 3.79999H301.8Z" fill="white"/>
<path fill-rule="evenodd" clip-rule="evenodd" d="M302.7 3.79999L293.8 492.2H292.8L301.8 3.79999H302.7Z" fill="white"/>
<path fill-rule="evenodd" clip-rule="evenodd" d="M303.7 3.79999L294.8 492.2H293.8L302.7 3.79999H303.7Z" fill="white"/>
<path fill-rule="evenodd" clip-rule="evenodd" d="M304.7 3.79999L295.7 492.2H294.8L303.7 3.79999H304.7Z" fill="white"/>
<path fill-rule="evenodd" clip-rule="evenodd" d="M305.6 3.79999L296.7 492.2H295.7L304.7 3.79999H305.6Z" fill="white"/>
<path fill-rule="evenodd" clip-rule="evenodd" d="M306.6 3.79999L297.6 492.2H296.7L305.6 3.79999H306.6Z" fill="white"/>
<path fill-rule="evenodd" clip-rule="evenodd" d="M307.5 3.79999L298.6 492.2H297.6L306.6 3.79999H307.5Z" fill="white"/>
<path fill-rule="evenodd" clip-rule="evenodd" d="M308.5 3.79999L299.6 492.2H298.6L307.5 3.79999H308.5Z" fill="white"/>
<path fill-rule="evenodd" clip-rule="evenodd" d="M309.5 3.79999L300.5 492.2H299.6L308.5 3.79999H309.5Z" fill="white"/>
<path fill-rule="evenodd" clip-rule="evenodd" d="M310.4 3.79999L301.5 492.2H300.5L309.5 3.79999H310.4Z" fill="white"/>
<path fill-rule="evenodd" clip-rule="evenodd" d="M311.4 3.79999L302.4 492.2H301.5L310.4 3.79999H311.4Z" fill="white"/>
<path fill-rule="evenodd" clip-rule="evenodd" d="M312.3 3.79999L303.4 492.2H302.4L311.4 3.79999H312.3Z" fill="white"/>
<path fill-rule="evenodd" clip-rule="evenodd" d="M313.3 3.79999L304.3 492.2H303.4L312.3 3.79999H313.3Z" fill="white"/>
<path fill-rule="evenodd" clip-rule="evenodd" d="M314.2 3.79999L305.3 492.2H304.3L313.3 3.79999H314.2Z" fill="white"/>
<path fill-rule="evenodd" clip-rule="evenodd" d="M315.2 3.79999L306.3 492.2H305.3L314.2 3.79999H315.2Z" fill="white"/>
<path fill-rule="evenodd" clip-rule="evenodd" d="M316.2 3.79999L307.2 492.2H306.3L315.2 3.79999H316.2Z" fill="white"/>
<path fill-rule="evenodd" clip-rule="evenodd" d="M317.1 3.79999L308.2 492.2H307.2L316.2 3.79999H317.1Z" fill="white"/>
<path fill-rule="evenodd" clip-rule="evenodd" d="M318.1 3.79999L309.1 492.2H308.2L317.1 3.79999H318.1Z" fill="white"/>
<path fill-rule="evenodd" clip-rule="evenodd" d="M319 3.79999L310.1 492.2H309.1L318.1 3.79999H319Z" fill="white"/>
<path fill-rule="evenodd" clip-rule="evenodd" d="M320 3.79999L311 492.2H310.1L319 3.79999H320Z" fill="white"/>
<path fill-rule="evenodd" clip-rule="evenodd" d="M321 3.79999L312 492.2H311L320 3.79999H321Z" fill="white"/>
<path fill-rule="evenodd" clip-rule="evenodd" d="M321.9 3.79999L313 492.2H312L321 3.79999H321.9Z" fill="white"/>
<path fill-rule="evenodd" clip-rule="evenodd" d="M322.9 3.79999L313.9 492.2H313L321.9 3.79999H322.9Z" fill="white"/>
<path fill-rule="evenodd" clip-rule="evenodd" d="M323.8 3.79999L314.9 492.2H313.9L322.9 3.79999H323.8Z" fill="white"/>
<path fill-rule="evenodd" clip-rule="evenodd" d="M324.8 3.79999L315.8 492.2H314.9L323.8 3.79999H324.8Z" fill="white"/>
<path fill-rule="evenodd" clip-rule="evenodd" d="M325.7 3.79999L316.8 492.2H315.8L324.8 3.79999H325.7Z" fill="white"/>
<path fill-rule="evenodd" clip-rule="evenodd" d="M326.7 3.79999L317.8 492.2H316.8L325.7 3.79999H326.7Z" fill="white"/>
<path fill-rule="evenodd" clip-rule="evenodd" d="M327.7 3.79999L318.7 492.2H317.8L326.7 3.79999H327.7Z" fill="white"/>
<path fill-rule="evenodd" clip-rule="evenodd" d="M328.6 3.79999L319.7 492.2H318.7L327.7 3.79999H328.6Z" fill="white"/>
<path fill-rule="evenodd" clip-rule="evenodd" d="M329.6 3.79999L320.6 492.2H319.7L328.6 3.79999H329.6Z" fill="white"/>
<path fill-rule="evenodd" clip-rule="evenodd" d="M330.5 3.79999L321.6 492.2H320.6L329.6 3.79999H330.5Z" fill="white"/>
<path fill-rule="evenodd" clip-rule="evenodd" d="M331.5 3.79999L322.5 492.2H321.6L330.5 3.79999H331.5Z" fill="white"/>
<path fill-rule="evenodd" clip-rule="evenodd" d="M332.4 3.79999L323.5 492.2H322.5L331.5 3.79999H332.4Z" fill="white"/>
<path fill-rule="evenodd" clip-rule="evenodd" d="M333.4 3.79999L324.5 492.2H323.5L332.4 3.79999H333.4Z" fill="white"/>
<path fill-rule="evenodd" clip-rule="evenodd" d="M334.4 3.79999L325.4 492.2H324.5L333.4 3.79999H334.4Z" fill="white"/>
<path fill-rule="evenodd" clip-rule="evenodd" d="M335.3 3.79999L326.4 492.2H325.4L334.4 3.79999H335.3Z" fill="white"/>
<path fill-rule="evenodd" clip-rule="evenodd" d="M336.3 3.79999L327.3 492.2H326.4L335.3 3.79999H336.3Z" fill="white"/>
<path fill-rule="evenodd" clip-rule="evenodd" d="M337.2 3.79999L328.3 492.2H327.3L336.3 3.79999H337.2Z" fill="white"/>
<path fill-rule="evenodd" clip-rule="evenodd" d="M338.2 3.79999L329.3 492.2H328.3L337.2 3.79999H338.2Z" fill="white"/>
<path fill-rule="evenodd" clip-rule="evenodd" d="M339.2 3.79999L330.2 492.2H329.3L338.2 3.79999H339.2Z" fill="white"/>
<path fill-rule="evenodd" clip-rule="evenodd" d="M340.1 3.79999L331.2 492.2H330.2L339.2 3.79999H340.1Z" fill="white"/>
<path fill-rule="evenodd" clip-rule="evenodd" d="M341.1 3.79999L332.1 492.2H331.2L340.1 3.79999H341.1Z" fill="white"/>
<path fill-rule="evenodd" clip-rule="evenodd" d="M342 3.79999L333.1 492.2H332.1L341.1 3.79999H342Z" fill="white"/>
<path fill-rule="evenodd" clip-rule="evenodd" d="M343 3.79999L334 492.2H333.1L342 3.79999H343Z" fill="white"/>
<path fill-rule="evenodd" clip-rule="evenodd" d="M343.9 3.79999L335 492.2H334L343 3.79999H343.9Z" fill="white"/>
<path fill-rule="evenodd" clip-rule="evenodd" d="M344.9 3.79999L336 492.2H335L343.9 3.79999H344.9Z" fill="white"/>
<path fill-rule="evenodd" clip-rule="evenodd" d="M345.9 3.79999L336.9 492.2H336L344.9 3.79999H345.9Z" fill="white"/>
<path fill-rule="evenodd" clip-rule="evenodd" d="M346.8 3.79999L337.9 492.2H336.9L345.9 3.79999H346.8Z" fill="white"/>
<path fill-rule="evenodd" clip-rule="evenodd" d="M347.8 3.79999L338.8 492.2H337.9L346.8 3.79999H347.8Z" fill="white"/>
<path fill-rule="evenodd" clip-rule="evenodd" d="M348.7 3.79999L339.8 492.2H338.8L347.8 3.79999H348.7Z" fill="white"/>
<path fill-rule="evenodd" clip-rule="evenodd" d="M349.7 3.79999L340.7 492.2H339.8L348.7 3.79999H349.7Z" fill="white"/>
<path fill-rule="evenodd" clip-rule="evenodd" d="M350.6 3.79999L341.7 492.2H340.7L349.7 3.79999H350.6Z" fill="white"/>
<path fill-rule="evenodd" clip-rule="evenodd" d="M351.6 3.79999L342.7 492.2H341.7L350.6 3.79999H351.6Z" fill="white"/>
<path fill-rule="evenodd" clip-rule="evenodd" d="M352.6 3.79999L343.6 492.2H342.7L351.6 3.79999H352.6Z" fill="white"/>
<path fill-rule="evenodd" clip-rule="evenodd" d="M353.5 3.79999L344.6 492.2H343.6L352.6 3.79999H353.5Z" fill="white"/>
<path fill-rule="evenodd" clip-rule="evenodd" d="M354.5 3.79999L345.5 492.2H344.6L353.5 3.79999H354.5Z" fill="white"/>
<path fill-rule="evenodd" clip-rule="evenodd" d="M355.4 3.79999L346.5 492.2H345.5L354.5 3.79999H355.4Z" fill="white"/>
<path fill-rule="evenodd" clip-rule="evenodd" d="M356.4 3.79999L347.5 492.2H346.5L355.4 3.79999H356.4Z" fill="white"/>
<path fill-rule="evenodd" clip-rule="evenodd" d="M357.4 3.79999L348.4 492.2H347.5L356.4 3.79999H357.4Z" fill="white"/>
<path fill-rule="evenodd" clip-rule="evenodd" d="M358.3 3.79999L349.4 492.2H348.4L357.4 3.79999H358.3Z" fill="white"/>
<path fill-rule="evenodd" clip-rule="evenodd" d="M359.3 3.79999L350.3 492.2H349.4L358.3 3.79999H359.3Z" fill="white"/>
<path fill-rule="evenodd" clip-rule="evenodd" d="M360.2 3.79999L351.3 492.2H350.3L359.3 3.79999H360.2Z" fill="white"/>
<path fill-rule="evenodd" clip-rule="evenodd" d="M361.2 3.79999L352.2 492.2H351.3L360.2 3.79999H361.2Z" fill="white"/>
<path fill-rule="evenodd" clip-rule="evenodd" d="M362.1 3.79999L353.2 492.2H352.2L361.2 3.79999H362.1Z" fill="white"/>
<path fill-rule="evenodd" clip-rule="evenodd" d="M363.1 3.79999L354.2 492.2H353.2L362.1 3.79999H363.1Z" fill="white"/>
<path fill-rule="evenodd" clip-rule="evenodd" d="M364.1 3.79999L355.1 492.2H354.2L363.1 3.79999H364.1Z" fill="white"/>
<path fill-rule="evenodd" clip-rule="evenodd" d="M365 3.79999L356.1 492.2H355.1L364.1 3.79999H365Z" fill="white"/>
<path fill-rule="evenodd" clip-rule="evenodd" d="M366 3.79999L357 492.2H356.1L365 3.79999H366Z" fill="white"/>
<path fill-rule="evenodd" clip-rule="evenodd" d="M366.9 3.79999L358 492.2H357L366 3.79999H366.9Z" fill="white"/>
<path fill-rule="evenodd" clip-rule="evenodd" d="M367.9 3.79999L358.9 492.2H358L366.9 3.79999H367.9Z" fill="white"/>
<path fill-rule="evenodd" clip-rule="evenodd" d="M368.9 3.79999L359.9 492.2H358.9L367.9 3.79999H368.9Z" fill="white"/>
<path fill-rule="evenodd" clip-rule="evenodd" d="M369.8 3.79999L360.9 492.2H359.9L368.9 3.79999H369.8Z" fill="white"/>
<path fill-rule="evenodd" clip-rule="evenodd" d="M370.8 3.79999L361.8 492.2H360.9L369.8 3.79999H370.8Z" fill="white"/>
<path fill-rule="evenodd" clip-rule="evenodd" d="M371.7 3.79999L362.8 492.2H361.8L370.8 3.79999H371.7Z" fill="white"/>
<path fill-rule="evenodd" clip-rule="evenodd" d="M372.7 3.79999L363.7 492.2H362.8L371.7 3.79999H372.7Z" fill="white"/>
<path fill-rule="evenodd" clip-rule="evenodd" d="M373.6 3.79999L364.7 492.2H363.7L372.7 3.79999H373.6Z" fill="white"/>
<path fill-rule="evenodd" clip-rule="evenodd" d="M374.6 3.79999L365.7 492.2H364.7L373.6 3.79999H374.6Z" fill="white"/>
<path fill-rule="evenodd" clip-rule="evenodd" d="M375.6 3.79999L366.6 492.2H365.7L374.6 3.79999H375.6Z" fill="white"/>
<path fill-rule="evenodd" clip-rule="evenodd" d="M376.5 3.79999L367.6 492.2H366.6L375.6 3.79999H376.5Z" fill="white"/>
<path fill-rule="evenodd" clip-rule="evenodd" d="M377.5 3.79999L368.5 492.2H367.6L376.5 3.79999H377.5Z" fill="white"/>
<path fill-rule="evenodd" clip-rule="evenodd" d="M378.4 3.79999L369.5 492.2H368.5L377.5 3.79999H378.4Z" fill="white"/>
<path fill-rule="evenodd" clip-rule="evenodd" d="M379.4 3.79999L370.4 492.2H369.5L378.4 3.79999H379.4Z" fill="white"/>
<path fill-rule="evenodd" clip-rule="evenodd" d="M380.3 3.79999L371.4 492.2H370.4L379.4 3.79999H380.3Z" fill="white"/>
<path fill-rule="evenodd" clip-rule="evenodd" d="M381.3 3.79999L372.4 492.2H371.4L380.3 3.79999H381.3Z" fill="white"/>
<path fill-rule="evenodd" clip-rule="evenodd" d="M382.3 3.79999L373.3 492.2H372.4L381.3 3.79999H382.3Z" fill="white"/>
<path fill-rule="evenodd" clip-rule="evenodd" d="M383.2 3.79999L374.3 492.2H373.3L382.3 3.79999H383.2Z" fill="white"/>
<path fill-rule="evenodd" clip-rule="evenodd" d="M384.2 3.79999L375.2 492.2H374.3L383.2 3.79999H384.2Z" fill="white"/>
<path fill-rule="evenodd" clip-rule="evenodd" d="M385.1 3.79999L376.2 492.2H375.2L384.2 3.79999H385.1Z" fill="white"/>
<path fill-rule="evenodd" clip-rule="evenodd" d="M386.1 3.79999L377.2 492.2H376.2L385.1 3.79999H386.1Z" fill="white"/>
<path fill-rule="evenodd" clip-rule="evenodd" d="M387.1 3.79999L378.1 492.2H377.2L386.1 3.79999H387.1Z" fill="white"/>
<path fill-rule="evenodd" clip-rule="evenodd" d="M388 3.79999L379.1 492.2H378.1L387.1 3.79999H388Z" fill="white"/>
<path fill-rule="evenodd" clip-rule="evenodd" d="M389 3.79999L380 492.2H379.1L388 3.79999H389Z" fill="white"/>
<path fill-rule="evenodd" clip-rule="evenodd" d="M389.9 3.79999L381 492.2H380L389 3.79999H389.9Z" fill="white"/>
<path fill-rule="evenodd" clip-rule="evenodd" d="M390.9 3.79999L381.9 492.2H381L389.9 3.79999H390.9Z" fill="white"/>
<path fill-rule="evenodd" clip-rule="evenodd" d="M391.8 3.79999L382.9 492.2H381.9L390.9 3.79999H391.8Z" fill="white"/>
<path fill-rule="evenodd" clip-rule="evenodd" d="M392.8 3.79999L383.9 492.2H382.9L391.8 3.79999H392.8Z" fill="white"/>
<path fill-rule="evenodd" clip-rule="evenodd" d="M393.8 3.79999L384.8 492.2H383.9L392.8 3.79999H393.8Z" fill="white"/>
<path fill-rule="evenodd" clip-rule="evenodd" d="M394.7 3.79999L385.8 492.2H384.8L393.8 3.79999H394.7Z" fill="white"/>
<path fill-rule="evenodd" clip-rule="evenodd" d="M395.7 3.79999L386.7 492.2H385.8L394.7 3.79999H395.7Z" fill="white"/>
<path fill-rule="evenodd" clip-rule="evenodd" d="M396.6 3.79999L387.7 492.2H386.7L395.7 3.79999H396.6Z" fill="white"/>
<path fill-rule="evenodd" clip-rule="evenodd" d="M397.6 3.79999L388.6 492.2H387.7L396.6 3.79999H397.6Z" fill="white"/>
<path fill-rule="evenodd" clip-rule="evenodd" d="M398.5 3.79999L389.6 492.2H388.6L397.6 3.79999H398.5Z" fill="white"/>
<path fill-rule="evenodd" clip-rule="evenodd" d="M399.5 3.79999L390.6 492.2H389.6L398.5 3.79999H399.5Z" fill="white"/>
<path fill-rule="evenodd" clip-rule="evenodd" d="M400.5 3.79999L391.5 492.2H390.6L399.5 3.79999H400.5Z" fill="white"/>
<path fill-rule="evenodd" clip-rule="evenodd" d="M401.4 3.79999L392.5 492.2H391.5L400.5 3.79999H401.4Z" fill="white"/>
<path fill-rule="evenodd" clip-rule="evenodd" d="M402.4 3.79999L393.4 492.2H392.5L401.4 3.79999H402.4Z" fill="white"/>
<path fill-rule="evenodd" clip-rule="evenodd" d="M403.3 3.79999L394.4 492.2H393.4L402.4 3.79999H403.3Z" fill="white"/>
<path fill-rule="evenodd" clip-rule="evenodd" d="M404.3 3.79999L395.4 492.2H394.4L403.3 3.79999H404.3Z" fill="white"/>
<path fill-rule="evenodd" clip-rule="evenodd" d="M405.3 3.79999L396.3 492.2H395.4L404.3 3.79999H405.3Z" fill="white"/>
<path fill-rule="evenodd" clip-rule="evenodd" d="M406.2 3.79999L397.3 492.2H396.3L405.3 3.79999H406.2Z" fill="white"/>
<path fill-rule="evenodd" clip-rule="evenodd" d="M407.2 3.79999L398.2 492.2H397.3L406.2 3.79999H407.2Z" fill="white"/>
<path fill-rule="evenodd" clip-rule="evenodd" d="M408.1 3.79999L399.2 492.2H398.2L407.2 3.79999H408.1Z" fill="white"/>
<path fill-rule="evenodd" clip-rule="evenodd" d="M409.1 3.79999L400.1 492.2H399.2L408.1 3.79999H409.1Z" fill="white"/>
<path fill-rule="evenodd" clip-rule="evenodd" d="M410 3.79999L401.1 492.2H400.1L409.1 3.79999H410Z" fill="white"/>
<path fill-rule="evenodd" clip-rule="evenodd" d="M411 3.79999L402.1 492.2H401.1L410 3.79999H411Z" fill="white"/>
<path fill-rule="evenodd" clip-rule="evenodd" d="M412 3.79999L403 492.2H402.1L411 3.79999H412Z" fill="white"/>
<path fill-rule="evenodd" clip-rule="evenodd" d="M412.9 3.79999L404 492.2H403L412 3.79999H412.9Z" fill="white"/>
<path fill-rule="evenodd" clip-rule="evenodd" d="M413.9 3.79999L404.9 492.2H404L412.9 3.79999H413.9Z" fill="white"/>
<path fill-rule="evenodd" clip-rule="evenodd" d="M414.8 3.79999L405.9 492.2H404.9L413.9 3.79999H414.8Z" fill="white"/>
<path fill-rule="evenodd" clip-rule="evenodd" d="M415.8 3.79999L406.8 492.2H405.9L414.8 3.79999H415.8Z" fill="white"/>
<path fill-rule="evenodd" clip-rule="evenodd" d="M416.8 3.79999L407.8 492.2H406.8L415.8 3.79999H416.8Z" fill="white"/>
<path fill-rule="evenodd" clip-rule="evenodd" d="M417.7 3.79999L408.8 492.2H407.8L416.8 3.79999H417.7Z" fill="white"/>
<path fill-rule="evenodd" clip-rule="evenodd" d="M418.7 3.79999L409.7 492.2H408.8L417.7 3.79999H418.7Z" fill="white"/>
<path fill-rule="evenodd" clip-rule="evenodd" d="M419.6 3.79999L410.7 492.2H409.7L418.7 3.79999H419.6Z" fill="white"/>
<path fill-rule="evenodd" clip-rule="evenodd" d="M420.6 3.79999L411.6 492.2H410.7L419.6 3.79999H420.6Z" fill="white"/>
<path fill-rule="evenodd" clip-rule="evenodd" d="M421.5 3.79999L412.6 492.2H411.6L420.6 3.79999H421.5Z" fill="white"/>
<path fill-rule="evenodd" clip-rule="evenodd" d="M422.5 3.79999L413.6 492.2H412.6L421.5 3.79999H422.5Z" fill="white"/>
<path fill-rule="evenodd" clip-rule="evenodd" d="M423.5 3.79999L414.5 492.2H413.6L422.5 3.79999H423.5Z" fill="white"/>
<path fill-rule="evenodd" clip-rule="evenodd" d="M424.4 3.79999L415.5 492.2H414.5L423.5 3.79999H424.4Z" fill="white"/>
<path fill-rule="evenodd" clip-rule="evenodd" d="M425.4 3.79999L416.4 492.2H415.5L424.4 3.79999H425.4Z" fill="white"/>
<path fill-rule="evenodd" clip-rule="evenodd" d="M426.3 3.79999L417.4 492.2H416.4L425.4 3.79999H426.3Z" fill="white"/>
<path fill-rule="evenodd" clip-rule="evenodd" d="M427.3 3.79999L418.3 492.2H417.4L426.3 3.79999H427.3Z" fill="white"/>
<path fill-rule="evenodd" clip-rule="evenodd" d="M428.2 3.79999L419.3 492.2H418.3L427.3 3.79999H428.2Z" fill="white"/>
<path fill-rule="evenodd" clip-rule="evenodd" d="M429.2 3.79999L420.3 492.2H419.3L428.2 3.79999H429.2Z" fill="white"/>
<path fill-rule="evenodd" clip-rule="evenodd" d="M430.2 3.79999L421.2 492.2H420.3L429.2 3.79999H430.2Z" fill="white"/>
<path fill-rule="evenodd" clip-rule="evenodd" d="M431.1 3.79999L422.2 492.2H421.2L430.2 3.79999H431.1Z" fill="white"/>
<path fill-rule="evenodd" clip-rule="evenodd" d="M432.1 3.79999L423.1 492.2H422.2L431.1 3.79999H432.1Z" fill="white"/>
<path fill-rule="evenodd" clip-rule="evenodd" d="M433 3.79999L424.1 492.2H423.1L432.1 3.79999H433Z" fill="white"/>
<path fill-rule="evenodd" clip-rule="evenodd" d="M434 3.79999L425.1 492.2H424.1L433 3.79999H434Z" fill="white"/>
<path fill-rule="evenodd" clip-rule="evenodd" d="M435 3.79999L426 492.2H425.1L434 3.79999H435Z" fill="white"/>
<path fill-rule="evenodd" clip-rule="evenodd" d="M435.9 3.79999L427 492.2H426L435 3.79999H435.9Z" fill="white"/>
<path fill-rule="evenodd" clip-rule="evenodd" d="M436.9 3.79999L427.9 492.2H427L435.9 3.79999H436.9Z" fill="white"/>
<path fill-rule="evenodd" clip-rule="evenodd" d="M437.8 3.79999L428.9 492.2H427.9L436.9 3.79999H437.8Z" fill="white"/>
<path fill-rule="evenodd" clip-rule="evenodd" d="M438.8 3.79999L429.8 492.2H428.9L437.8 3.79999H438.8Z" fill="white"/>
<path fill-rule="evenodd" clip-rule="evenodd" d="M439.7 3.79999L430.8 492.2H429.8L438.8 3.79999H439.7Z" fill="white"/>
<path fill-rule="evenodd" clip-rule="evenodd" d="M440.7 3.79999L431.8 492.2H430.8L439.7 3.79999H440.7Z" fill="white"/>
<path fill-rule="evenodd" clip-rule="evenodd" d="M441.7 3.79999L432.7 492.2H431.8L440.7 3.79999H441.7Z" fill="white"/>
<path fill-rule="evenodd" clip-rule="evenodd" d="M442.6 3.79999L433.7 492.2H432.7L441.7 3.79999H442.6Z" fill="white"/>
<path fill-rule="evenodd" clip-rule="evenodd" d="M443.6 3.79999L434.6 492.2H433.7L442.6 3.79999H443.6Z" fill="white"/>
<path fill-rule="evenodd" clip-rule="evenodd" d="M444.5 3.79999L435.6 492.2H434.6L443.6 3.79999H444.5Z" fill="white"/>
<path fill-rule="evenodd" clip-rule="evenodd" d="M445.5 3.79999L436.5 492.2H435.6L444.5 3.79999H445.5Z" fill="white"/>
<path fill-rule="evenodd" clip-rule="evenodd" d="M446.4 3.79999L437.5 492.2H436.5L445.5 3.79999H446.4Z" fill="white"/>
<path fill-rule="evenodd" clip-rule="evenodd" d="M447.4 3.79999L438.5 492.2H437.5L446.4 3.79999H447.4Z" fill="white"/>
<path fill-rule="evenodd" clip-rule="evenodd" d="M448.4 3.79999L439.4 492.2H438.5L447.4 3.79999H448.4Z" fill="white"/>
<path fill-rule="evenodd" clip-rule="evenodd" d="M449.3 3.79999L440.4 492.2H439.4L448.4 3.79999H449.3Z" fill="white"/>
<path fill-rule="evenodd" clip-rule="evenodd" d="M450.3 3.79999L441.3 492.2H440.4L449.3 3.79999H450.3Z" fill="white"/>
<path fill-rule="evenodd" clip-rule="evenodd" d="M451.2 3.79999L442.3 492.2H441.3L450.3 3.79999H451.2Z" fill="white"/>
<path fill-rule="evenodd" clip-rule="evenodd" d="M452.2 3.79999L443.3 492.2H442.3L451.2 3.79999H452.2Z" fill="white"/>
<path fill-rule="evenodd" clip-rule="evenodd" d="M453.2 3.79999L444.2 492.2H443.3L452.2 3.79999H453.2Z" fill="white"/>
<path fill-rule="evenodd" clip-rule="evenodd" d="M454.1 3.79999L445.2 492.2H444.2L453.2 3.79999H454.1Z" fill="white"/>
<path fill-rule="evenodd" clip-rule="evenodd" d="M455.1 3.79999L446.1 492.2H445.2L454.1 3.79999H455.1Z" fill="white"/>
<path fill-rule="evenodd" clip-rule="evenodd" d="M456 3.79999L447.1 492.2H446.1L455.1 3.79999H456Z" fill="white"/>
<path fill-rule="evenodd" clip-rule="evenodd" d="M457 3.79999L448 492.2H447.1L456 3.79999H457Z" fill="white"/>
<path fill-rule="evenodd" clip-rule="evenodd" d="M457.9 3.79999L449 492.2H448L457 3.79999H457.9Z" fill="white"/>
<path fill-rule="evenodd" clip-rule="evenodd" d="M458.9 3.79999L450 492.2H449L457.9 3.79999H458.9Z" fill="white"/>
<path fill-rule="evenodd" clip-rule="evenodd" d="M459.9 3.79999L450.9 492.2H450L458.9 3.79999H459.9Z" fill="white"/>
<path fill-rule="evenodd" clip-rule="evenodd" d="M460.8 3.79999L451.9 492.2H450.9L459.9 3.79999H460.8Z" fill="white"/>
<path fill-rule="evenodd" clip-rule="evenodd" d="M461.8 3.79999L452.8 492.2H451.9L460.8 3.79999H461.8Z" fill="white"/>
<path fill-rule="evenodd" clip-rule="evenodd" d="M462.7 3.79999L453.8 492.2H452.8L461.8 3.79999H462.7Z" fill="white"/>
<path fill-rule="evenodd" clip-rule="evenodd" d="M463.7 3.79999L454.7 492.2H453.8L462.7 3.79999H463.7Z" fill="white"/>
<path fill-rule="evenodd" clip-rule="evenodd" d="M464.7 3.79999L455.7 492.2H454.7L463.7 3.79999H464.7Z" fill="white"/>
<path fill-rule="evenodd" clip-rule="evenodd" d="M465.6 3.79999L456.7 492.2H455.7L464.7 3.79999H465.6Z" fill="white"/>
<path fill-rule="evenodd" clip-rule="evenodd" d="M466.6 3.79999L457.6 492.2H456.7L465.6 3.79999H466.6Z" fill="white"/>
<path fill-rule="evenodd" clip-rule="evenodd" d="M467.5 3.79999L458.6 492.2H457.6L466.6 3.79999H467.5Z" fill="white"/>
<path fill-rule="evenodd" clip-rule="evenodd" d="M468.3 3.79999H468.5L459.5 492.2H458.6L467.5 3.79999H468.3Z" fill="white"/>
<path fill-rule="evenodd" clip-rule="evenodd" d="M468.5 3.79999H469.4L460.5 492.2H459.5L468.5 3.79999Z" fill="white"/>
<path fill-rule="evenodd" clip-rule="evenodd" d="M469.4 3.79999H470.4L461.5 492.2H460.5L469.4 3.79999Z" fill="white"/>
<path fill-rule="evenodd" clip-rule="evenodd" d="M470.4 3.79999H471.4L462.4 492.2H461.5L470.4 3.79999Z" fill="white"/>
<path fill-rule="evenodd" clip-rule="evenodd" d="M471.4 3.79999H472.3L463.4 492.2H462.4L471.4 3.79999Z" fill="white"/>
<path fill-rule="evenodd" clip-rule="evenodd" d="M472.3 3.79999H473.3L464.3 492.2H463.4L472.3 3.79999Z" fill="white"/>
<path fill-rule="evenodd" clip-rule="evenodd" d="M473.3 3.79999L474.2 3.89999L465.3 492.2H464.3L473.3 3.79999Z" fill="white"/>
<path fill-rule="evenodd" clip-rule="evenodd" d="M474.2 3.89999H475.2L466.2 492.2H465.3L474.2 3.89999Z" fill="white"/>
<path fill-rule="evenodd" clip-rule="evenodd" d="M475.2 3.89999H476.1L467.2 492.2H466.2L475.2 3.89999Z" fill="white"/>
<path fill-rule="evenodd" clip-rule="evenodd" d="M476.1 3.89999H477.1L468.2 492.2H467.2L476.1 3.89999Z" fill="white"/>
<path fill-rule="evenodd" clip-rule="evenodd" d="M477.1 3.89999H478.1L469.1 492.2H468.2L477.1 3.89999Z" fill="white"/>
<path fill-rule="evenodd" clip-rule="evenodd" d="M478.1 3.89999H479L470.1 492.2H469.1L478.1 3.89999Z" fill="white"/>
<path fill-rule="evenodd" clip-rule="evenodd" d="M479 3.89999L480 3.99999L471 492.2H470.1L479 3.89999Z" fill="white"/>
<path fill-rule="evenodd" clip-rule="evenodd" d="M480 4H480.9L472 492.2H471L480 4Z" fill="white"/>
<path fill-rule="evenodd" clip-rule="evenodd" d="M480.9 4H481.9L473 492.2H472L480.9 4Z" fill="white"/>
<path fill-rule="evenodd" clip-rule="evenodd" d="M481.9 4H482.8L473.9 492.2H473L481.9 4Z" fill="white"/>
<path fill-rule="evenodd" clip-rule="evenodd" d="M482.8 4H483.8L474.9 492.2H473.9L482.8 4Z" fill="white"/>
<path fill-rule="evenodd" clip-rule="evenodd" d="M483.8 4L484.8 4.1L475.8 492.2H474.9L483.8 4Z" fill="white"/>
<path fill-rule="evenodd" clip-rule="evenodd" d="M484.8 4.09998H485.7L476.8 492.2H475.8L484.8 4.09998Z" fill="white"/>
<path fill-rule="evenodd" clip-rule="evenodd" d="M485.7 4.09998H486.7L477.7 492.2H476.8L485.7 4.09998Z" fill="white"/>
<path fill-rule="evenodd" clip-rule="evenodd" d="M486.7 4.09998H487.6L478.7 492.2H477.7L486.7 4.09998Z" fill="white"/>
<path fill-rule="evenodd" clip-rule="evenodd" d="M487.6 4.09998H488.6L479.7 492.2H478.7L487.6 4.09998Z" fill="white"/>
<path fill-rule="evenodd" clip-rule="evenodd" d="M488.6 4.09998H489.6L480.6 492.2H479.7L488.6 4.09998Z" fill="white"/>
<path fill-rule="evenodd" clip-rule="evenodd" d="M489.6 4.09998L490.5 4.19998L481.6 492.2H480.6L489.6 4.09998Z" fill="white"/>
<path fill-rule="evenodd" clip-rule="evenodd" d="M490.5 4.19998H491.5L482.5 492.2H481.6L490.5 4.19998Z" fill="white"/>
<path fill-rule="evenodd" clip-rule="evenodd" d="M491.5 4.19998H492.4L483.5 492.2H482.5L491.5 4.19998Z" fill="white"/>
<path fill-rule="evenodd" clip-rule="evenodd" d="M492.4 4.19998H492.7V40.9L484.4 492.2H483.5L492.4 4.19998Z" fill="white"/>
<path fill-rule="evenodd" clip-rule="evenodd" d="M492.7 93.3L485.4 492.2H484.4L492.7 40.9V93.3Z" fill="white"/>
<path fill-rule="evenodd" clip-rule="evenodd" d="M492.7 145.6L486.4 492.2H485.4L492.7 93.3V145.6Z" fill="white"/>
<path fill-rule="evenodd" clip-rule="evenodd" d="M492.7 197.9L487.3 492.2H486.4L492.7 145.6V197.9Z" fill="white"/>
<path fill-rule="evenodd" clip-rule="evenodd" d="M492.7 250.2L488.3 492.2H487.3L492.7 197.9V250.2Z" fill="white"/>
<path fill-rule="evenodd" clip-rule="evenodd" d="M488.3 492.2L492.7 250.2V492.2H488.3Z" fill="white"/>
</g>
<path d="M477.5 231.5C475.9 231.5 473.7 231.5 470.9 231.3H470.8C465.6 231.1 457.4 230.7 448.3 229.9C432.5 228.5 410.6 225.6 395.8 219.7C373.4 210.8 360.8 198.8 346.3 185L345.2 184C330.3 169.7 313.5 153.6 284.3 139.9C260.6 128.7 232 126.5 199.3 133.1C189.6 135.1 179.7 137.9 169.9 141.4C166.2 142.7 163.4 143.9 161.3 144.8C153.6 148 146 151.7 138.6 155.3C134.8 157.1 130.8 159.1 126.9 160.9L118.2 164.9L127.4 167.4C127.6 167.4 149.9 173.5 160.7 176.9H160.9C161 176.9 161.4 177.1 162.3 177.4C162.8 177.6 163.3 177.8 163.9 178C165.3 178.5 167.1 179.2 169.1 180C177.1 183.3 183.8 186.7 189.6 190.5C200.7 197.7 208.4 205.5 212.4 213.9C187.2 218.1 164.1 229.5 148.8 238.6C137.6 245.1 128.4 251.8 122.4 256.3C120.5 257.8 118.9 259.1 117.4 260.2C116.5 260.9 115.7 261.6 114.9 262.1H114.8C113.4 263.4 91.4 282.7 90.5 283.5L84.5 288.8L92.4 289.6C92.7 289.6 121.9 292.7 136.1 295.6C142.9 296.9 156.5 300 171.9 305.3C187.2 310.7 200.1 316.9 210.1 323.9C221.5 331.8 229.2 340.7 232.9 350.2C243.7 377.7 234.9 406.7 210.5 424C198.7 432.4 184.5 436.9 169.6 436.9H169.5C152.5 436.9 135.7 431.3 119.4 420.2L117.7 419C92.3 399.6 71.1999 374.4 56.6999 346C40.9999 315.5 33.0999 282.5 33.0999 248C33.0999 129.4 129.6 32.9 248.1 32.9C366.6 32.9 347.5 47.1 390.1 72.9C434.7 99.9 466.2 137.6 478.8 179L485.5 177C470.6 127 439.4 82 397.5 50.3C354.5 17.5 302.9 0.299988 248.4 0.299988C193.9 0.299988 120 26 73.2 72.8C26.5 119.6 0.699951 181.9 0.699951 248C0.699951 314.1 26.5 376.4 73.3 423.2C120.1 470 182.3 495.7 248.5 495.7C314.7 495.7 376.9 469.9 423.7 423.1C470.5 376.3 496.2 314.1 496.2 247.9V231.5H477.5ZM270.5 169.7C295.2 181.4 308.8 194.5 323.2 208.4L323.8 208.9C338.5 223 355.2 239 383.8 250.4C393.1 254.1 404.7 257.1 418.5 259.4C413.4 260.2 408.1 260.5 402.8 260.5C381.8 260.5 363.4 252 340.1 241.1L339.6 240.9C337.5 239.9 335.4 238.9 333.2 237.9C309.9 227.1 282.2 215.4 246.9 212.9C241.3 190.1 224.2 174.3 209.7 164.6C227 161.5 250.5 160.2 270.4 169.6L270.5 169.7ZM248.5 463.1C236.9 463.1 225.2 462.2 213.6 460.3C219.2 457.7 224.7 454.5 229.9 450.9C266.4 425 280 379.8 263.7 338.5C257.6 323 246 309.1 229.1 297.3C216.4 288.5 200.9 280.8 183.1 274.7C176.7 272.5 169.9 270.4 163 268.5C163.8 268 164.7 267.5 165.5 267C182.5 257 207.9 245.2 232.3 245.2C267.6 245.2 293.6 255.9 319.3 267.8C320.5 268.3 321.7 268.9 322.8 269.5C324 270 325.1 270.6 326.3 271.2L326.7 271.4C350 282.3 374 293.5 402.6 293.5C431.2 293.5 443.1 289 460.9 280.5C445.2 385.1 354.9 463.3 248.3 463.3L248.5 463.1Z" fill="white"/>
</svg>
