<svg xmlns="http://www.w3.org/2000/svg" width="550" height="550" viewBox="0 0 550 550">
  <g id="Group_2" data-name="Group 2" transform="translate(-685 -265)">
    <rect id="Rectangle_1" data-name="Rectangle 1" width="550" height="550" transform="translate(685 265)" fill="#fff"/>
    <g id="Group_1" data-name="Group 1" transform="translate(-0.151 0.094)">
      <g id="Audits" transform="translate(780.151 373.906)">
        <path id="Path_1" data-name="Path 1" d="M6.229,147.409,158.828,0l13.5,20.762L28.028,164.537v.519L140.142,277.689l-8.3,23.357L0,166.094Z" fill="#1367d7" opacity="0.98"/>
        <path id="Path_2" data-name="Path 2" d="M84.381,43.714c0,.519.519.519.519,1.038A1.608,1.608,0,0,0,84.381,43.714ZM41.3,19.319l1.038-.519A1.608,1.608,0,0,1,41.3,19.319Z" transform="translate(173.065 78.78)" fill="#1367d7"/>
        <path id="Path_3" data-name="Path 3" d="M202.094,160.156,49.5,307.046,36,286.284,180.294,143.028v-.519L68.7,29.357,77,6,208.842,141.471l-6.748,18.686Z" transform="translate(150.856 25.143)" fill="#1367d7"/>
        <path id="Path_4" data-name="Path 4" d="M22.2,149.78a120.88,120.88,0,0,1,5.709-14.533c8.824-18.167,20.762-34.257,33.738-49.309C78.776,66.733,97.981,49.6,119.78,35.59a125.7,125.7,0,0,1,30.1-15.052c.519-.519,1.557-.519,2.6-1.038l-6.229,7.786c-6.748,8.3-14.014,16.609-19.724,25.952-.519,1.038-1.038,1.038-2.076,1.038a56.426,56.426,0,0,1-13.5,2.076c1.557,2.076,4.152,3.114,6.229,4.152,1.038.519,3.114.519,3.633,2.076,0,1.038-1.557,2.6-2.076,3.633a7.481,7.481,0,0,1-5.709,4.671,52.183,52.183,0,0,1-12.976,2.076c0,1.038.519,1.038,1.038,1.557a28.853,28.853,0,0,0,8.824,4.671c1.038.519,1.038,1.038.519,2.076-1.038,2.6-3.114,3.633-5.709,4.152a93.586,93.586,0,0,1-20.243,4.152h-.519A28.525,28.525,0,0,0,88.638,93.2,55.344,55.344,0,0,0,98.5,96.838c.519,0,1.038.519.519,1.038-2.6,3.633-5.19,7.267-8.824,9.862-2.6,2.6-5.709,2.6-9.343,2.6H68.914a56.414,56.414,0,0,0-9.343.519,9.627,9.627,0,0,0-6.229,3.633c-5.19,5.709-8.3,12.976-11.938,19.724l-1.557,3.114c-1.038,4.152-3.633,6.229-7.267,7.786-3.114.519-6.748,2.6-10.381,4.671Z" transform="translate(93.028 81.714)" fill="#1367d7" fill-rule="evenodd"/>
      </g>
    </g>
  </g>
</svg>
