<svg width="5010" height="1227" viewBox="0 0 5010 1227" fill="none" xmlns="http://www.w3.org/2000/svg">
<path d="M275.114 703.251L200.167 815.647L205.082 857.176L302.636 934.232C302.636 934.232 408.299 1018.22 465.37 1026.45C484.291 1029.18 663.242 889.175 781.991 826.602C878.378 775.788 934.588 756.54 934.588 756.54L1057.94 780.863L822.72 555.39C822.72 555.39 653.168 660.483 612.5 703.189C571.831 745.894 465.001 822.764 465.001 822.764L349.693 787.61L275.114 703.189V703.251Z" fill="url(#paint0_linear_166_629)"/>
<path d="M358.17 499.316L287.401 605.213L356.082 686.354L461.622 719.219L634.554 571.915L736.285 512.994L807.485 480.996L698.996 391.747C698.996 391.747 563.354 400.288 514.208 461.747C514.208 461.747 419.295 553.967 403.999 542.021L358.232 499.316H358.17Z" fill="url(#paint1_linear_166_629)"/>
<path d="M528.768 200.5L368.798 417.432C368.798 417.432 398.163 461.747 414.565 452.463C432.995 442.065 500.754 371.199 531.04 356.778C591.674 327.874 564.828 336.539 634.554 318.343L684.129 327.07L528.768 200.5Z" fill="url(#paint2_linear_166_629)"/>
<path d="M1246.94 826.156V400.835H1489.98C1512.3 400.835 1532.35 405.175 1550.12 413.856C1568.31 422.535 1582.57 434.729 1592.9 450.436C1603.24 466.142 1608.4 484.536 1608.4 505.616C1608.4 522.562 1605.3 537.649 1599.1 550.875C1592.9 564.102 1584.43 575.055 1573.68 583.735C1563.35 592.416 1551.57 598.822 1538.34 602.956V605.436C1554.05 608.742 1567.9 614.942 1579.88 624.036C1592.28 633.129 1602 644.909 1609.02 659.375C1616.46 673.429 1620.18 690.169 1620.18 709.596C1620.18 735.222 1614.19 756.716 1602.2 774.076C1590.63 791.436 1575.13 804.456 1555.7 813.136C1536.28 821.816 1514.58 826.156 1490.6 826.156H1246.94ZM1339.32 750.516H1472.62C1487.92 750.516 1500.32 746.176 1509.82 737.496C1519.74 728.816 1524.7 715.382 1524.7 697.196C1524.7 686.449 1522.64 677.149 1518.5 669.296C1514.37 661.442 1508.17 655.449 1499.9 651.316C1491.64 646.769 1481.1 644.496 1468.28 644.496H1339.32V750.516ZM1339.32 572.576H1462.08C1473.24 572.576 1482.54 570.509 1489.98 566.376C1497.84 561.829 1503.62 556.042 1507.34 549.016C1511.48 541.576 1513.54 533.102 1513.54 523.595C1513.54 507.476 1509 495.282 1499.9 487.015C1491.22 478.749 1479.65 474.615 1465.18 474.615H1339.32V572.576Z" fill="#1F1F1F"/>
<path d="M1768.79 826.156V400.835H2108.55V476.476H1861.79V571.336H2080.03V646.355H1861.79V749.896H2112.27V826.156H1768.79Z" fill="#1F1F1F"/>
<path d="M2266.41 826.156V400.835H2440.01C2484.23 400.835 2521.85 408.482 2552.85 423.775C2583.85 439.069 2607.61 462.422 2624.15 493.836C2641.09 524.836 2649.57 564.722 2649.57 613.495C2649.57 661.856 2641.09 701.742 2624.15 733.156C2607.61 764.569 2583.85 787.922 2552.85 803.216C2521.85 818.509 2484.23 826.156 2440.01 826.156H2266.41ZM2358.79 749.896H2439.39C2457.99 749.896 2474.52 747.209 2488.99 741.836C2503.45 736.462 2515.44 728.609 2524.95 718.276C2534.45 707.529 2541.69 694.302 2546.65 678.596C2551.61 662.476 2554.09 643.876 2554.09 622.796V604.196C2554.09 583.116 2551.61 564.722 2546.65 549.016C2541.69 532.896 2534.45 519.669 2524.95 509.335C2515.44 498.589 2503.45 490.529 2488.99 485.156C2474.52 479.369 2457.99 476.476 2439.39 476.476H2358.79V749.896Z" fill="#1F1F1F"/>
<path d="M2799.15 826.156V400.835H3032.27C3063.68 400.835 3089.72 406.415 3110.39 417.575C3131.47 428.735 3147.17 444.442 3157.51 464.696C3167.84 484.536 3173.01 507.476 3173.01 533.516C3173.01 561.209 3166.81 585.802 3154.41 607.296C3142.01 628.376 3124.03 644.496 3100.47 655.656L3187.27 826.156H3084.97L3009.95 671.156H2891.53V826.156H2799.15ZM2891.53 597.995H3019.87C3038.47 597.995 3052.93 592.416 3063.27 581.256C3073.6 569.682 3078.77 554.182 3078.77 534.755C3078.77 522.356 3076.49 511.816 3071.95 503.135C3067.4 494.042 3060.79 487.222 3052.11 482.676C3043.43 478.129 3032.68 475.856 3019.87 475.856H2891.53V597.995Z" fill="#1F1F1F"/>
<path d="M3522.42 833.596C3477.36 833.596 3438.51 825.536 3405.86 809.416C3373.2 793.296 3348.2 768.909 3330.84 736.256C3313.48 703.602 3304.8 662.682 3304.8 613.495C3304.8 563.482 3313.48 522.355 3330.84 490.115C3348.2 457.462 3373.2 433.282 3405.86 417.575C3438.51 401.456 3477.36 393.396 3522.42 393.396C3568.3 393.396 3607.36 401.456 3639.6 417.575C3672.25 433.282 3697.26 457.462 3714.62 490.115C3731.98 522.355 3740.66 563.482 3740.66 613.495C3740.66 662.682 3731.98 703.602 3714.62 736.256C3697.26 768.909 3672.25 793.296 3639.6 809.416C3607.36 825.536 3568.3 833.596 3522.42 833.596ZM3522.42 757.956C3542.67 757.956 3560.44 755.062 3575.74 749.276C3591.03 743.489 3603.84 734.809 3614.18 723.236C3624.51 711.662 3632.36 697.609 3637.74 681.076C3643.11 664.129 3645.8 644.909 3645.8 623.415V604.196C3645.8 582.289 3643.11 562.862 3637.74 545.915C3632.36 528.969 3624.51 514.915 3614.18 503.755C3603.84 492.182 3591.03 483.502 3575.74 477.715C3560.44 471.929 3542.67 469.035 3522.42 469.035C3502.58 469.035 3485.01 471.929 3469.72 477.715C3454.42 483.502 3441.61 492.182 3431.28 503.755C3420.94 514.915 3413.09 528.969 3407.72 545.915C3402.76 562.862 3400.28 582.289 3400.28 604.196V623.415C3400.28 644.909 3402.76 664.129 3407.72 681.076C3413.09 697.609 3420.94 711.662 3431.28 723.236C3441.61 734.809 3454.42 743.489 3469.72 749.276C3485.01 755.062 3502.58 757.956 3522.42 757.956Z" fill="#1F1F1F"/>
<path d="M4080.4 833.596C4036.17 833.596 3998.35 825.949 3966.94 810.656C3935.52 794.949 3911.55 770.769 3895.02 738.116C3878.9 705.462 3870.84 663.922 3870.84 613.495C3870.84 539.096 3889.02 483.916 3925.4 447.956C3962.18 411.582 4013.85 393.396 4080.4 393.396C4116.77 393.396 4149.42 399.596 4178.36 411.995C4207.29 424.396 4230.02 442.996 4246.56 467.796C4263.5 492.596 4271.98 523.802 4271.98 561.416H4178.98C4178.98 541.576 4174.84 524.835 4166.58 511.196C4158.72 497.556 4147.36 487.222 4132.48 480.195C4118.01 472.755 4101.06 469.035 4081.64 469.035C4055.18 469.035 4033.28 474.202 4015.92 484.536C3998.97 494.869 3986.36 510.162 3978.1 530.415C3970.24 550.256 3966.32 574.642 3966.32 603.576V622.796C3966.32 652.556 3970.45 677.562 3978.72 697.815C3986.98 717.655 3999.38 732.742 4015.92 743.076C4032.86 752.995 4054.56 757.956 4081.02 757.956C4101.68 757.956 4119.66 754.442 4134.96 747.416C4150.25 740.389 4162.03 730.056 4170.3 716.416C4178.56 702.776 4182.7 686.035 4182.7 666.195H4271.98C4271.98 703.809 4263.71 735.016 4247.18 759.816C4231.06 784.616 4208.53 803.216 4179.6 815.616C4150.66 827.602 4117.6 833.596 4080.4 833.596Z" fill="#1F1F1F"/>
<path d="M4419.16 826.156V400.835H4511.54V594.276L4692.58 400.835H4806.66L4644.22 573.816L4809.76 826.156H4699.4L4580.36 637.676L4511.54 699.676V826.156H4419.16Z" fill="#1F1F1F"/>
<defs>
<linearGradient id="paint0_linear_166_629" x1="1057.94" y1="1146.49" x2="419.282" y2="130.491" gradientUnits="userSpaceOnUse">
<stop offset="0.333372" stop-color="#3FB0FF"/>
<stop offset="0.71875" stop-color="#9236EA"/>
<stop offset="1" stop-color="#F29A6B"/>
</linearGradient>
<linearGradient id="paint1_linear_166_629" x1="1057.94" y1="1146.49" x2="419.282" y2="130.491" gradientUnits="userSpaceOnUse">
<stop offset="0.333372" stop-color="#3FB0FF"/>
<stop offset="0.71875" stop-color="#9236EA"/>
<stop offset="1" stop-color="#F29A6B"/>
</linearGradient>
<linearGradient id="paint2_linear_166_629" x1="1057.94" y1="1146.49" x2="419.282" y2="130.491" gradientUnits="userSpaceOnUse">
<stop offset="0.333372" stop-color="#3FB0FF"/>
<stop offset="0.71875" stop-color="#9236EA"/>
<stop offset="1" stop-color="#F29A6B"/>
</linearGradient>
</defs>
</svg>
