<svg width="500" height="204" viewBox="0 0 500 204" fill="none" xmlns="http://www.w3.org/2000/svg">
<path d="M430.819 46.8965V70.222L407.05 46.8965H395.039V93.0868H409.769V69.4473L433.685 93.0868H445.528V46.8965H430.819Z" fill="black"/>
<path d="M203.306 93.0868H242.373V80.1887H203.306V59.9412H242.415V46.8965H203.306H190.284H188.724V93.0868H190.284H203.306Z" fill="black"/>
<path d="M341.327 93.0868H377.339V81.466H341.327V75.0797H377.339V64.7361H341.327V58.5174H377.339V46.8965H341.327H327.946H326.745V93.0868H328.199H341.327Z" fill="black"/>
<path d="M136.509 82.7014H158.171V93.1706H172.689V46.8965H121.969V93.0868H136.509V82.7014ZM136.509 59.669H158.171V69.9289H136.509V59.669Z" fill="black"/>
<path d="M68.4459 76.6711H89.7286V93.0868H104.331V46.8965H89.7286V62.9773H68.4459V46.8965H53.8642V93.0868H68.4459V76.6711Z" fill="black"/>
<path d="M272.506 78.6602H295.095L309.571 64.9455H309.655V46.8965H295.095V64.9455H272.506V46.8965H257.924V93.0868H272.506V78.6602Z" fill="black"/>
<path d="M309.698 78.6601H295.117V93.0867H309.698V78.6601Z" fill="black"/>
<path d="M102.33 110.382H53.8642V156.573H68.4038V146.103H104.437V110.382H102.33ZM89.9814 133.415H68.4038V123.218H90.0657L89.9814 133.415Z" fill="black"/>
<path d="M159.139 143.506V156.635H172.689V143.506H159.139Z" fill="black"/>
<path d="M172.626 110.382H122.054V156.635H136.656V143.507H159.224L172.774 129.792L172.626 110.382ZM158.213 131.802H136.551V121.71H158.213V131.802Z" fill="black"/>
<path d="M377.297 110.382H341.327H329.97H326.809V130.504V143.36V156.573H341.327V143.36H377.297V130.504H341.327V123.218H377.297V110.382Z" fill="black"/>
<path d="M227.834 110.382H188.724V156.573H242.415V110.382H227.834ZM227.834 143.444H203.348V123.197H227.876L227.834 143.444Z" fill="black"/>
<path d="M309.739 110.382H257.86V156.573H309.739V123.427V110.382ZM295.2 143.444H272.484V123.197H295.2V143.444Z" fill="black"/>
<path d="M422.083 144.629C428.252 143.634 432.441 137.858 431.439 131.728C430.438 125.599 424.626 121.436 418.457 122.431C412.288 123.426 408.099 129.202 409.101 135.332C410.102 141.461 415.914 145.624 422.083 144.629Z" fill="#F13F2D"/>
<path d="M444.157 125.751V126.002L445.864 125.457V125.185C444.568 121.352 442.422 117.856 439.584 114.957C436.747 112.058 433.291 109.829 429.47 108.435H429.217L428.606 110.11H428.859C432.428 111.407 435.657 113.487 438.305 116.195C440.954 118.903 442.954 122.169 444.157 125.751V125.751Z" fill="black"/>
<path d="M443.968 141.873C442.691 145.413 440.634 148.625 437.947 151.273C435.26 153.922 432.011 155.94 428.438 157.179H428.164L428.754 158.855H429.007C432.838 157.532 436.322 155.372 439.203 152.535C442.084 149.698 444.288 146.255 445.654 142.46V142.208L443.947 141.601L443.968 141.873Z" fill="black"/>
<path d="M396.429 141.434V141.162L394.723 141.727V141.999C396.039 145.912 398.245 149.472 401.168 152.402C404.091 155.332 407.654 157.554 411.58 158.897H411.833L412.423 157.201H412.17C408.506 155.947 405.181 153.873 402.452 151.139C399.722 148.405 397.662 145.085 396.429 141.434V141.434Z" fill="black"/>
<path d="M396.536 125.311C397.827 121.653 399.952 118.342 402.744 115.635C405.537 112.929 408.922 110.902 412.635 109.712H412.909L412.361 108.016H412.087C408.109 109.298 404.482 111.477 401.492 114.383C398.502 117.289 396.229 120.843 394.85 124.767V125.018L396.536 125.604V125.311Z" fill="black"/>
</svg>
