<svg width="1489" height="1489" viewBox="0 0 1489 1489" fill="none" xmlns="http://www.w3.org/2000/svg">
<rect width="1489" height="1489" fill="url(#paint0_radial_268_2)"/>
<path d="M759.69 702.625L683.94 745.99V833.53L760.989 789.5L759.69 702.625Z" fill="url(#paint1_linear_268_2)"/>
<path d="M683.939 837.461C681.503 837.461 679.083 836.827 676.907 835.577L609.197 796.484C604.86 793.983 602.164 789.321 602.164 784.303V706.117C602.164 701.115 604.86 696.437 609.197 693.936L676.907 654.876C681.243 652.375 686.635 652.375 690.972 654.876L758.682 693.969C763.018 696.47 765.714 701.131 765.714 706.15V784.335C765.714 789.338 763.018 794.015 758.682 796.516L690.972 835.609C688.811 836.86 686.375 837.493 683.939 837.493V837.461ZM683.939 662.396C683.143 662.396 682.331 662.607 681.617 663.013L613.907 702.106C612.477 702.934 611.584 704.477 611.584 706.117V784.303C611.584 785.959 612.477 787.486 613.907 788.314L681.617 827.407C683.046 828.236 684.832 828.236 686.262 827.407L753.972 788.314C755.401 787.486 756.294 785.943 756.294 784.303V706.117C756.294 704.461 755.401 702.934 753.972 702.106L686.262 663.013C685.547 662.607 684.751 662.396 683.939 662.396Z" fill="white"/>
<path d="M683.938 797.004C682.249 797.004 680.576 796.565 679.066 795.704L642.653 774.688C639.648 772.95 637.781 769.718 637.781 766.259V724.21C637.781 720.734 639.648 717.519 642.653 715.781L679.066 694.765C682.071 693.027 685.806 693.027 688.811 694.765L725.224 715.781C728.228 717.519 730.096 720.751 730.096 724.21V766.259C730.096 769.718 728.228 772.95 725.224 774.688L688.811 795.704C687.317 796.565 685.627 797.004 683.938 797.004ZM683.938 702.869C683.938 702.869 683.825 702.869 683.776 702.918L647.363 723.934C647.265 723.999 647.201 724.096 647.201 724.21V766.259C647.201 766.373 647.265 766.47 647.363 766.535L683.776 787.551C683.873 787.616 683.987 787.6 684.085 787.551L720.498 766.535C720.595 766.486 720.66 766.373 720.66 766.259V724.21C720.66 724.096 720.595 723.999 720.498 723.934L684.085 702.918C684.085 702.918 683.987 702.869 683.922 702.869H683.938Z" fill="white"/>
<path d="M676.041 741.946V748.491C676.041 749.287 676.463 750.018 677.145 750.407L682.813 753.688C683.495 754.078 684.34 754.078 685.022 753.688L690.69 750.407C691.372 750.018 691.795 749.287 691.795 748.491V741.946C691.795 741.15 691.372 740.419 690.69 740.029L685.022 736.748C684.34 736.359 683.495 736.359 682.813 736.748L677.145 740.029C676.463 740.419 676.041 741.15 676.041 741.946Z" fill="white"/>
<path d="M757.388 697.809L681.354 741.161L686.02 749.344L762.054 705.992L757.388 697.809Z" fill="white"/>
<path d="M236.415 662.184C190.42 662.184 153 699.604 153 745.6C153 791.595 190.42 829.031 236.415 829.031C282.411 829.031 319.847 791.611 319.847 745.6C319.847 699.588 282.427 662.184 236.415 662.184ZM236.415 819.563C195.65 819.563 162.469 786.382 162.469 745.6C162.469 704.818 195.65 671.653 236.415 671.653C277.181 671.653 310.378 704.818 310.378 745.6C310.378 786.382 277.197 819.563 236.415 819.563Z" fill="white"/>
<path d="M1074.79 664.247H1065.09V826.953H1074.79V664.247Z" fill="white"/>
<path d="M1248.02 662.184C1202.03 662.184 1164.59 699.604 1164.59 745.6C1164.59 791.595 1202.03 829.031 1248.02 829.031C1294.02 829.031 1331.45 791.611 1331.45 745.6C1331.45 699.588 1294.03 662.184 1248.02 662.184ZM1248.02 819.563C1207.24 819.563 1174.08 786.382 1174.08 745.6C1174.08 704.818 1207.24 671.653 1248.02 671.653C1288.8 671.653 1321.99 704.834 1321.99 745.6C1321.99 786.365 1288.8 819.563 1248.02 819.563Z" fill="white"/>
<path d="M461.992 745.616L533.21 826.953H520.477L455.625 752.908L390.773 826.953H378.024L449.258 745.6L378.008 664.247H390.741L455.625 738.356L520.493 664.247H533.226L461.992 745.616Z" fill="white"/>
<path d="M930.755 749.872C940.061 748.637 948.751 744.366 955.474 737.658C960.054 733.078 963.579 727.459 965.674 721.417L966.21 719.793C966.389 719.208 966.551 718.607 966.713 718.006C967.006 716.821 967.266 715.586 967.46 714.401C967.525 714.092 967.574 713.8 967.607 713.54C967.704 712.841 967.785 712.127 967.85 711.396C967.932 710.698 967.98 709.95 968.013 709.236C968.045 708.57 968.061 707.92 968.061 707.254C968.061 706.507 968.045 705.776 968.013 705.046C967.525 695.756 964.164 687.066 958.317 680.034C958.187 679.839 958.041 679.677 957.992 679.628C949.806 669.867 937.804 664.264 925.054 664.264H845.18V748.053V748.637V826.969H854.892V750.261H919.614L961.321 826.969H972.398L930.755 749.872ZM854.892 673.732H924.827C934.263 673.732 943.31 677.728 949.693 684.776C953.298 688.35 955.815 692.686 957.147 697.607C957.407 698.679 957.829 700.579 957.911 701.131C958.122 702.707 958.365 704.786 958.365 706.978C958.365 707.514 958.365 708.066 958.317 708.619C958.3 709.041 958.268 709.479 958.235 709.983C958.235 710.34 958.187 710.714 958.138 711.071L958.106 711.412C957.976 712.565 957.813 713.637 957.586 714.693C957.521 715.002 957.456 715.294 957.358 715.635L957.163 716.398C957.099 716.707 957.017 716.999 956.904 717.308C956.774 717.763 956.628 718.217 956.465 718.688C956.351 719.046 956.222 719.419 956.059 719.793C955.815 720.394 955.556 720.995 955.215 721.693C954.971 722.213 954.711 722.684 954.467 723.155C954.321 723.415 954.175 723.658 953.964 723.983C953.688 724.47 953.379 724.974 953.022 725.461C952.713 725.916 952.405 726.354 952.015 726.841C951.008 728.271 949.839 729.667 948.523 730.967C942.189 737.301 933.776 740.793 924.827 740.793H854.892V673.732Z" fill="white"/>
<defs>
<radialGradient id="paint0_radial_268_2" cx="0" cy="0" r="1" gradientUnits="userSpaceOnUse" gradientTransform="translate(744.5 744.5) rotate(90) scale(744.5)">
<stop stop-color="#262624"/>
<stop offset="1" stop-color="#202020"/>
</radialGradient>
<linearGradient id="paint1_linear_268_2" x1="722.465" y1="819.465" x2="722.465" y2="696.356" gradientUnits="userSpaceOnUse">
<stop stop-color="#FF6C1A" stop-opacity="0"/>
<stop offset="1" stop-color="#FF6C1A"/>
</linearGradient>
</defs>
</svg>
