<?xml version="1.0" standalone="no"?>
<!DOCTYPE svg PUBLIC "-//W3C//DTD SVG 20010904//EN"
 "http://www.w3.org/TR/2001/REC-SVG-20010904/DTD/svg10.dtd">
<svg version="1.0" xmlns="http://www.w3.org/2000/svg"
 width="8000.000000pt" height="4500.000000pt" viewBox="0 0 8000.000000 4500.000000"
 preserveAspectRatio="xMidYMid meet">

<g transform="translate(0.000000,4500.000000) scale(0.100000,-0.100000)"
fill="#000000" stroke="none">
<path d="M37140 40580 c-1554 -58 -2901 -489 -3935 -1260 -219 -163 -370 -295
-596 -520 -218 -218 -343 -360 -505 -575 -899 -1193 -1342 -2799 -1311 -4750
11 -667 63 -1187 173 -1750 225 -1147 661 -2103 1315 -2886 129 -154 406 -438
561 -575 880 -776 2018 -1273 3353 -1463 468 -67 754 -86 1295 -85 463 0 679
12 1045 54 1775 208 3204 928 4173 2101 770 933 1238 2135 1401 3594 46 415
55 605 56 1170 0 552 -6 705 -46 1095 -141 1392 -556 2551 -1246 3476 -255
342 -619 719 -943 980 -938 755 -2132 1213 -3523 1353 -388 40 -883 55 -1267
41z m-133 -1515 c-428 -150 -723 -499 -826 -980 -34 -158 -44 -286 -38 -505 5
-212 17 -298 61 -466 139 -520 514 -854 1074 -956 168 -30 477 -30 646 1 133
24 320 83 417 131 434 217 688 648 718 1220 32 623 -147 1089 -528 1375 -91
69 -225 140 -336 179 -88 32 -78 32 92 1 295 -54 517 -127 778 -255 521 -254
880 -614 1135 -1135 211 -431 312 -881 327 -1465 13 -538 -58 -1029 -212
-1447 -54 -144 -183 -402 -265 -528 -313 -478 -757 -814 -1328 -1004 -215 -72
-449 -121 -727 -153 -168 -19 -656 -16 -835 5 -1111 134 -1884 694 -2253 1632
-307 779 -316 1904 -22 2702 20 54 72 170 115 258 365 749 1013 1219 1915
1391 153 29 177 28 92 -1z"/>
<path d="M29980 37251 c-574 -204 -1075 -491 -1520 -871 -144 -123 -409 -392
-521 -530 -97 -120 -199 -254 -199 -263 0 -3 37 -34 83 -69 111 -84 302 -271
400 -393 230 -285 408 -649 507 -1040 77 -301 108 -548 117 -915 20 -869 -171
-1564 -580 -2110 -84 -113 -281 -317 -392 -407 -233 -189 -523 -346 -828 -448
-83 -28 -101 -38 -99 -52 8 -44 96 -346 133 -456 175 -522 446 -1039 749
-1432 269 -348 629 -692 983 -938 1056 -735 2516 -1062 4067 -912 257 25 748
106 864 141 13 5 -29 26 -135 68 -845 340 -1554 801 -2154 1401 -1049 1049
-1699 2477 -1919 4215 -95 751 -111 1605 -46 2378 85 994 284 1829 637 2670 7
17 3 16 -147 -37z"/>
<path d="M44980 37294 c0 -3 18 -47 40 -99 523 -1229 740 -2892 595 -4565
-125 -1432 -535 -2684 -1210 -3691 -697 -1039 -1663 -1812 -2879 -2304 -121
-49 -173 -75 -160 -78 58 -18 388 -80 537 -102 786 -113 1612 -97 2362 46
1385 264 2465 940 3173 1988 242 357 454 796 600 1241 54 164 122 405 122 430
0 10 -21 21 -63 33 -101 30 -283 105 -417 173 -774 392 -1254 1121 -1384 2104
-51 380 -49 848 5 1225 110 769 435 1383 951 1795 57 45 107 86 112 91 19 17
-228 321 -429 528 -492 507 -1124 906 -1813 1145 -142 49 -142 49 -142 40z"/>
<path d="M26170 34789 c-588 -73 -985 -369 -1160 -864 -71 -201 -100 -388
-100 -645 0 -632 222 -1075 664 -1328 313 -180 785 -239 1195 -151 606 131
969 543 1057 1198 18 136 18 426 -1 562 -67 507 -307 874 -701 1073 -118 60
-280 112 -424 137 -132 24 -412 33 -530 18z"/>
<path d="M48530 34790 c-503 -58 -881 -297 -1081 -683 -88 -170 -137 -332
-164 -535 -20 -144 -19 -452 0 -592 74 -530 338 -903 772 -1090 359 -154 850
-172 1238 -43 322 106 579 322 728 610 176 342 227 837 131 1273 -59 267 -167
480 -331 651 -195 204 -453 336 -763 390 -130 23 -409 33 -530 19z"/>
<path d="M16381 24830 c-325 -48 -608 -308 -740 -683 -58 -164 -75 -272 -75
-467 0 -143 4 -194 22 -277 90 -416 321 -716 635 -824 126 -43 187 -49 537
-50 302 0 321 -1 271 -15 -156 -42 -255 -100 -382 -224 -175 -172 -287 -392
-335 -660 -36 -200 -18 -480 43 -675 85 -273 280 -518 502 -634 152 -79 180
-83 591 -91 201 -3 355 -7 343 -8 -46 -4 -188 -63 -261 -108 -137 -86 -277
-245 -361 -412 -40 -80 -95 -242 -116 -347 -39 -189 -29 -427 25 -640 55 -218
141 -377 280 -516 125 -127 251 -202 412 -246 59 -17 365 -18 5017 -20 l4953
-3 -6 -33 c-25 -122 -79 -430 -100 -573 -46 -305 -65 -552 -113 -1397 -62
-1123 -64 -1558 -7 -2167 215 -2321 1235 -4499 2885 -6160 1632 -1643 3736
-2662 6024 -2920 477 -53 1138 -74 1605 -51 936 47 1803 207 2670 493 1298
427 2448 1085 3501 2003 232 202 708 676 908 905 1523 1741 2376 3821 2511
6115 22 382 13 847 -35 1751 -25 467 -52 923 -60 1014 -27 297 -77 638 -131
890 -13 63 -24 118 -24 122 0 4 2229 9 4953 10 l4952 3 75 21 c212 61 354 167
498 370 460 648 193 1692 -483 1883 l-70 20 321 0 c363 1 450 11 574 64 105
45 182 99 270 187 163 162 269 364 325 620 26 118 31 385 10 512 -61 371 -254
674 -526 827 -56 31 -185 79 -223 83 -12 1 143 5 344 8 404 8 416 9 565 79 91
43 218 136 287 209 223 238 344 665 294 1037 -64 484 -342 852 -726 962 -63
17 -675 18 -21220 19 -11635 1 -21179 -2 -21209 -6z m21739 -3889 c423 -45
749 -104 1104 -201 614 -169 1255 -462 1796 -823 1159 -772 2034 -1915 2471
-3227 477 -1433 413 -3011 -177 -4404 -810 -1911 -2545 -3323 -4564 -3715
-391 -76 -648 -102 -1076 -108 -462 -7 -728 11 -1134 78 -1711 281 -3241 1274
-4204 2727 -414 625 -726 1356 -885 2072 -105 473 -146 859 -145 1380 0 380
13 561 60 889 252 1759 1271 3356 2764 4333 904 592 1893 927 2980 1008 153
11 877 5 1010 -9z"/>
</g>
</svg>
