<svg fill="none" height="114" viewBox="0 0 265 114" width="265" xmlns="http://www.w3.org/2000/svg"><g fill="#161616"><path d="m131.479 48.6364c0-.6545-.236-1.1551-.708-1.5016-.472-.3542-1.321-.7238-2.549-1.1088-1.227-.3928-2.199-.7778-2.915-1.1551-1.951-1.0319-2.926-2.4218-2.926-4.1698 0-.9086.259-1.7172.779-2.4256.527-.7162 1.278-1.2744 2.254-1.6749.983-.4004 2.084-.6006 3.304-.6006 1.227 0 2.321.2195 3.281.6584.96.4312 1.703 1.0434 2.23 1.8365.535.7932.803 1.6941.803 2.7029h-3.541c0-.77-.248-1.3668-.743-1.7904-.496-.4312-1.192-.6468-2.089-.6468-.865 0-1.538.181-2.018.5429-.48.3542-.72.8239-.72 1.4092 0 .5467.279 1.0049.838 1.3745.566.3696 1.396.7161 2.49 1.0396 2.014.5929 3.481 1.3283 4.402 2.2061.92.8779 1.381 1.9713 1.381 3.2804 0 1.4554-.563 2.5989-1.688 3.4306-1.125.8239-2.639 1.2359-4.543 1.2359-1.322 0-2.526-.2349-3.612-.7046-1.085-.4774-1.915-1.1281-2.49-1.9521-.566-.8239-.849-1.7788-.849-2.8645h3.552c0 1.8558 1.133 2.7837 3.399 2.7837.841 0 1.498-.1656 1.97-.4967.472-.3388.708-.8086.708-1.4092z"/><path d="m150.822 48.1975 2.313-11.9665h3.528l-3.811 16.8178h-3.564l-2.797-11.2504-2.797 11.2504h-3.564l-3.812-16.8178h3.529l2.324 11.9434 2.833-11.9434h2.997z"/><path d="m167.768 49.5836h-6.207l-1.18 3.4652h-3.765l6.396-16.8178h3.281l6.432 16.8178h-3.765zm-5.251-2.8068h4.295l-2.159-6.2951z"/><path d="m177.87 47.1233v5.9255h-3.54v-16.8178h6.703c1.29 0 2.423.231 3.399.6931.983.462 1.738 1.1204 2.266 1.9751.527.8471.79 1.8135.79 2.8992 0 1.6479-.578 2.9493-1.734 3.9041-1.149.9472-2.742 1.4208-4.78 1.4208zm0-2.8068h3.163c.936 0 1.648-.2156 2.136-.6469.496-.4312.744-1.0472.744-1.8481 0-.8239-.248-1.49-.744-1.9982-.496-.5083-1.18-.7701-2.053-.7855h-3.246z"/><path d="m132.166 68.9904c0-.884-.317-1.5816-.952-2.093-.634-.5187-1.795-1.0082-3.482-1.4685-1.687-.4675-2.918-.9752-3.694-1.5232-1.105-.7743-1.658-1.7898-1.658-3.0464 0-1.22.512-2.2099 1.534-2.9697 1.03-.767 2.344-1.1506 3.941-1.1506 1.083 0 2.049.2046 2.9.6137.859.4091 1.523.9789 1.993 1.7095.47.7305.705 1.5451.705 2.4437h-1.388c0-1.0885-.381-1.9616-1.142-2.6191-.761-.6648-1.784-.9972-3.068-.9972-1.246 0-2.239.274-2.978.8219-.739.5406-1.108 1.2493-1.108 2.1259 0 .8109.332 1.4721.996 1.9835.665.5114 1.728.9643 3.191 1.3588 1.463.3872 2.572.7927 3.325 1.2164.754.4164 1.322.9168 1.702 1.5013.381.5844.571 1.2748.571 2.0711 0 1.2565-.515 2.2647-1.545 3.0245-1.022.7598-2.373 1.1396-4.053 1.1396-1.149 0-2.205-.2009-3.168-.6027-.956-.4018-1.683-.9643-2.184-1.6875-.492-.7233-.739-1.5525-.739-2.4876h1.378c0 1.1251.429 2.0127 1.287 2.6629.859.6502 2.001.9753 3.426.9753 1.269 0 2.288-.274 3.057-.8219.768-.5479 1.153-1.2748 1.153-2.1807z"/><path d="m137.68 66.4152v6.4983h-1.377v-15.9553h5.553c1.695 0 3.031.4237 4.009 1.2711.985.8475 1.477 2.0127 1.477 3.4957 0 1.4977-.474 2.6556-1.422 3.4738-.94.8109-2.306 1.2164-4.097 1.2164zm0-1.1397h4.176c1.336 0 2.355-.3105 3.057-.9314.701-.621 1.052-1.4867 1.052-2.5971 0-1.1032-.351-1.9798-1.052-2.63-.694-.6575-1.683-.9936-2.967-1.0082h-4.266z"/><path d="m157.458 68.4425h-7.4l-1.68 4.471h-1.444l6.169-15.9553h1.31l6.169 15.9553h-1.433zm-6.975-1.1506h6.539l-3.27-8.69z"/><path d="m174.169 67.9384c-.187 1.6803-.803 2.966-1.848 3.8573-1.037.8913-2.422 1.3369-4.153 1.3369-1.21 0-2.281-.2958-3.214-.8876-.925-.5917-1.642-1.4282-2.149-2.5094-.508-1.0886-.765-2.3305-.773-3.7259v-2.0711c0-1.4173.254-2.6738.761-3.7696.508-1.0959 1.236-1.9397 2.184-2.5314.955-.5991 2.052-.8986 3.291-.8986 1.747 0 3.124.4639 4.132 1.3917 1.015.9205 1.604 2.1953 1.769 3.8245h-1.389c-.343-2.7104-1.847-4.0656-4.512-4.0656-1.478 0-2.657.5406-3.538 1.6219-.873 1.0812-1.31 2.5752-1.31 4.4819v1.9506c0 1.841.426 3.3094 1.277 4.4052.858 1.0959 2.015 1.6438 3.471 1.6438 1.44 0 2.526-.3361 3.258-1.0082.731-.6794 1.183-1.6949 1.354-3.0464z"/><path d="m186.289 65.2646h-7.625v6.5092h8.767v1.1397h-10.144v-15.9553h10.088v1.1506h-8.711v6.0161h7.625z"/><path clip-rule="evenodd" d="m115.303 54.5652c0 10.2173-8.463 18.5-18.9016 18.5-10.439 0-18.9014-8.2827-18.9014-18.5s8.4624-18.5 18.9014-18.5c10.4386 0 18.9016 8.2827 18.9016 18.5zm-7.561-7.5193c0 1.3183-1.092 2.3871-2.439 2.3871s-2.439-1.0688-2.439-2.3871c0-1.3184 1.092-2.3871 2.439-2.3871s2.439 1.0687 2.439 2.3871zm-11.4626-.0002c2.4246 0 4.3896-1.2824 4.3896-2.8645 0-1.582-1.965-2.8645-4.3896-2.8645-2.4245 0-4.39 1.2825-4.39 2.8645 0 1.5821 1.9655 2.8645 4.39 2.8645z" fill-rule="evenodd"/></g></svg>