<?xml version="1.0" encoding="UTF-8"?>
<svg width="1600px" height="1600px" viewBox="0 0 1600 1600" version="1.1" xmlns="http://www.w3.org/2000/svg" xmlns:xlink="http://www.w3.org/1999/xlink">
    <title>Swing - Token Circle</title>
    <defs>
        <path d="M156.568147,156.506999 C130.365936,182.661072 107.487166,210.918388 87.8836734,240.700957 L87.8836734,240.700957 C72.2458338,264.414625 58.679125,289.171888 47.2477679,314.587417 L47.2477679,314.587417 C-41.5860784,511.650087 -5.15665545,751.821219 156.568147,913.498023 L156.568147,913.498023 C365.286745,1122.28106 704.855849,1122.28106 913.558392,913.498023 L913.558392,913.498023 C1122.26093,704.811321 1122.26093,365.225812 913.558392,156.506999 L913.558392,156.506999 C809.199093,52.1636479 672.135195,0 535.071297,0 L535.071297,0 C397.991344,0 260.927446,52.1636479 156.568147,156.506999 L156.568147,156.506999 Z M485.203608,666.776331 C358.415087,615.319116 233.456868,560.153128 116.494177,488.594686 L116.494177,488.594686 L116.253347,488.450188 C101.450382,479.475279 94.0488997,462.071341 97.5168395,445.100896 L97.5168395,445.100896 C102.076538,422.703762 108.354151,400.595623 116.38179,378.937033 L116.38179,378.937033 C132.806338,334.608368 156.503926,292.382946 187.522721,254.139238 L187.522721,254.139238 C197.300385,242.017491 207.800536,230.313182 219.07134,219.042367 L219.07134,219.042367 C393.287148,44.8103236 676.77517,44.8103236 851.055199,219.042367 L851.055199,219.042367 C889.796582,257.767734 919.900226,301.919791 941.414297,349.074187 L941.414297,349.074187 C956.056709,381.232939 926.24206,415.703654 892.365426,405.653041 L892.365426,405.653041 C863.241154,397.063459 834.068716,388.714706 804.71967,380.99211 L804.71967,380.99211 C737.030624,363.122569 668.474592,348.14298 600.111223,332.440903 L600.111223,332.440903 C588.551424,329.807835 584.136223,325.1518 587.620218,313.335104 L587.620218,313.335104 C593.721223,292.800384 599.180017,272.073 604.975972,251.474059 L604.975972,251.474059 C610.948535,230.024187 600.175444,218.817592 578.16366,224.067673 L578.16366,224.067673 C562.975368,227.712225 547.947629,232.031099 532.743282,235.788037 L532.743282,235.788037 C472.985542,250.574963 413.243857,265.008671 353.710891,280.229089 L353.710891,280.229089 C332.710589,285.511281 329.403202,296.525212 343.435514,312.548395 L343.435514,312.548395 C357.14672,328.250472 371.96574,342.95712 386.335213,358.033041 L386.335213,358.033041 C427.565164,401.157558 468.50612,444.47474 510.073231,487.246041 L510.073231,487.246041 C525.550518,503.124726 535.665342,501.117815 542.906272,480.342265 L542.906272,480.342265 C550.259589,459.133223 556.055544,437.201692 561.161122,415.254106 L561.161122,415.254106 C564.564841,400.370849 571.757605,397.898334 584.906876,403.260802 L584.906876,403.260802 C711.695397,454.701962 836.669671,509.884005 953.632362,581.442447 L953.632362,581.442447 C953.728694,581.490613 953.80897,581.538779 953.889247,581.603 L953.889247,581.603 C968.611936,590.545798 976.10975,607.853404 972.657865,624.743573 L972.657865,624.743573 C970.827564,633.830869 968.708267,642.90211 966.28392,651.909129 L966.28392,651.909129 C958.111785,682.205468 946.712538,711.827484 932.070126,740.181132 L932.070126,740.181132 C911.503316,780.078536 884.482285,817.55159 851.055199,850.994766 L851.055199,850.994766 C818.157937,883.876007 781.295022,910.57596 742.055925,931.094624 L742.055925,931.094624 C573.587906,1019.01341 360.405941,992.313458 219.07134,850.994766 L219.07134,850.994766 C180.329957,812.253343 150.210258,768.117342 128.712242,720.962946 L128.712242,720.962946 C114.037719,688.820249 143.852368,654.333479 177.761113,664.368037 L177.761113,664.368037 C206.86933,672.957619 236.057823,681.306371 265.406869,689.061078 L265.406869,689.061078 C333.095915,706.914564 401.635892,721.878097 469.99926,737.580174 L469.99926,737.580174 C481.55906,740.245353 485.974261,744.869277 482.506321,756.653863 L482.506321,756.653863 C476.421371,777.220693 470.946522,797.932022 465.086346,818.514908 L465.086346,818.514908 C459.129838,839.99689 469.951095,851.21954 491.882603,845.969459 L491.882603,845.969459 C507.08695,842.308853 522.17891,838.006034 537.367202,834.249095 L537.367202,834.249095 C597.076776,819.43006 656.818461,804.996351 716.399593,789.808043 L716.399593,789.808043 C737.367784,784.509797 740.723337,773.527976 726.691025,757.472683 L726.691025,757.472683 C712.963764,741.770606 698.160799,727.080012 683.791326,711.939871 L683.791326,711.939871 C642.54532,668.879574 601.556198,625.482116 560.037253,582.758981 L560.037253,582.758981 C544.592076,566.848185 534.461197,568.887208 527.204212,589.662757 L527.204212,589.662757 C519.883005,610.90391 514.05494,632.835441 508.965417,654.766971 L508.965417,654.766971 C506.621347,664.978138 502.495141,669.377288 495.880367,669.377288 L495.880367,669.377288 C492.861975,669.377288 489.313758,668.462137 485.203608,666.776331 L485.203608,666.776331 Z" id="path-1"></path>
    </defs>
    <g id="Website" stroke="none" stroke-width="1" fill="none" fill-rule="evenodd">
        <g id="Group-4">
            <circle id="Oval" fill="#22BA79" cx="800" cy="800" r="800"></circle>
            <g id="Group-5" transform="translate(268.184150, 264.102693)">
                <mask id="mask-2" fill="white">
                    <use xlink:href="#path-1"></use>
                </mask>
                <g id="Clip-4"></g>
                <polygon id="Fill-3" fill="#FFFFFF" mask="url(#mask-2)" points="-43.1486007 1121.86362 1130.49334 1121.86362 1130.49334 -69.0377612 -43.1486007 -69.0377612"></polygon>
            </g>
        </g>
    </g>
</svg>