<svg width="2405" height="708" viewBox="0 0 2405 708" fill="none" xmlns="http://www.w3.org/2000/svg">
<path d="M143.807 256.685H0V707.288H229.237V633.255H303.988V448.174L143.807 256.685ZM229.237 632.544H74.7512V331.43H108.923L229.237 475.224V632.544Z" fill="url(#paint0_linear_835_622)"/>
<path d="M433.807 578.443H359.056V707.288H520.661V632.544H433.807V578.443ZM637.416 255.974H562.664V496.58L402.483 255.974H312.782L562.664 631.832V708H637.416V255.974Z" fill="url(#paint1_linear_835_622)"/>
<path d="M809.532 256.685L704.169 352.786L704.881 708H779.632L778.92 385.531L838.721 331.43H961.171V402.615L908.489 453.869H814.516V528.613H938.389L1035.92 434.649V256.685H809.532Z" fill="url(#paint2_linear_835_622)"/>
<path d="M1197.03 708V359.192H1122.28V708H1197.03ZM1197.74 330.006V255.262H1055.35V330.006H1197.74Z" fill="url(#paint3_linear_835_622)"/>
<path d="M1556.48 707.288H1631.23V451.733L1556.48 526.478V707.288ZM1631.23 397.632V396.92L1555.05 257.397H1348.6L1259.61 396.209V708H1333.65V707.288H1334.36L1635.5 405.463L1631.23 397.632ZM1333.65 601.934V418.276L1389.18 332.142H1510.91L1542.95 391.937L1333.65 601.934Z" fill="url(#paint4_linear_835_622)"/>
<path d="M1956.23 372.006V708H2030.98V290.143L1956.23 372.006ZM1975.45 200.449L1974.74 201.873H1976.88L1975.45 200.449ZM1924.91 255.974L1770.42 426.106V255.974H1696.38V708H1770.42V537.155L2026 255.974H1924.91Z" fill="url(#paint5_linear_835_622)"/>
<path d="M2328.78 553.528V615.459L2313.83 630.408H2093.14V705.153H2345.16L2402.82 646.069V553.528H2328.78ZM2402.82 449.598H2170.03V346.379L2185.69 331.43H2400.69V256.685H2155.79L2095.28 314.345V524.342H2402.82V449.598Z" fill="url(#paint6_linear_835_622)"/>
<path d="M1525.85 0.250719V82.4878L1478.32 141.408H1453.91V0.250719H1435.92V158.958H1487.31L1543.83 88.5052V0.250719H1525.85ZM1363.98 141.408V0.250719H1346.25V158.958H1397.38L1424.1 125.612V97.0297L1388.65 141.408H1363.98Z" fill="url(#paint7_linear_835_622)"/>
<path d="M1682.17 72.2082V37.3577L1655.19 0.501437H1590.18L1563.72 37.3577V127.117L1595.58 159.46H1658.53L1682.17 126.114V93.0182H1664.18V120.598L1649.28 141.909H1603.03L1581.45 120.096V43.1243L1599.69 18.052H1645.94L1664.18 43.1243V72.2082H1682.17Z" fill="url(#paint8_linear_835_622)"/>
<path d="M1750.75 18.052H1815.76V0.501437H1743.56L1704.76 36.3548L1705.02 159.209H1723L1722.75 43.8765L1750.75 18.052ZM1765.65 96.779H1783.13L1815.5 66.1908V29.836H1797.51V58.6691L1775.67 79.2284H1740.22V96.779L1804.45 159.209H1829.89L1765.65 96.779Z" fill="url(#paint9_linear_835_622)"/>
<path d="M1864.8 0H1847.08V159.46L1921.84 159.71V142.16L1864.8 141.909V0ZM1927.75 73.2111L1909 90.7617H1937.52V159.46H1955.5V73.2111H1927.75Z" fill="url(#paint10_linear_835_622)"/>
<path d="M2048.72 0.250719H1976.78V17.8013H2039.98L2059.77 42.6229V82.7385L2010.69 141.408H1995.02V33.0954H1977.04V158.958H2019.17L2077.75 89.0066V36.6055L2048.72 0.250719Z" fill="url(#paint11_linear_835_622)"/>
<path d="M2277.58 72.2082V37.3577L2250.6 0.501437H2185.59L2159.13 37.3577V127.117L2190.99 159.46H2253.94L2277.58 126.114V93.0182H2259.59V120.598L2244.69 141.909H2198.44L2176.86 120.096V43.1243L2195.1 18.052H2241.35L2259.59 43.1243V72.2082H2277.58Z" fill="url(#paint12_linear_835_622)"/>
<path d="M2316.87 159.209V106.056H2299.14V159.209H2316.87ZM2341.28 18.052H2405V0.501437H2333.32L2299.14 36.3548V91.5138H2376.22V73.9632H2316.87V43.1243L2341.28 18.052Z" fill="url(#paint13_linear_835_622)"/>
<defs>
<linearGradient id="paint0_linear_835_622" x1="1202.5" y1="0" x2="1202.5" y2="708" gradientUnits="userSpaceOnUse">
<stop stop-color="#5690FF"/>
<stop offset="1" stop-color="#8C56FF"/>
</linearGradient>
<linearGradient id="paint1_linear_835_622" x1="1202.5" y1="0" x2="1202.5" y2="708" gradientUnits="userSpaceOnUse">
<stop stop-color="#5690FF"/>
<stop offset="1" stop-color="#8C56FF"/>
</linearGradient>
<linearGradient id="paint2_linear_835_622" x1="1202.5" y1="0" x2="1202.5" y2="708" gradientUnits="userSpaceOnUse">
<stop stop-color="#5690FF"/>
<stop offset="1" stop-color="#8C56FF"/>
</linearGradient>
<linearGradient id="paint3_linear_835_622" x1="1202.5" y1="0" x2="1202.5" y2="708" gradientUnits="userSpaceOnUse">
<stop stop-color="#5690FF"/>
<stop offset="1" stop-color="#8C56FF"/>
</linearGradient>
<linearGradient id="paint4_linear_835_622" x1="1202.5" y1="0" x2="1202.5" y2="708" gradientUnits="userSpaceOnUse">
<stop stop-color="#5690FF"/>
<stop offset="1" stop-color="#8C56FF"/>
</linearGradient>
<linearGradient id="paint5_linear_835_622" x1="1202.5" y1="0" x2="1202.5" y2="708" gradientUnits="userSpaceOnUse">
<stop stop-color="#5690FF"/>
<stop offset="1" stop-color="#8C56FF"/>
</linearGradient>
<linearGradient id="paint6_linear_835_622" x1="1202.5" y1="0" x2="1202.5" y2="708" gradientUnits="userSpaceOnUse">
<stop stop-color="#5690FF"/>
<stop offset="1" stop-color="#8C56FF"/>
</linearGradient>
<linearGradient id="paint7_linear_835_622" x1="1202.5" y1="0" x2="1202.5" y2="708" gradientUnits="userSpaceOnUse">
<stop stop-color="#5690FF"/>
<stop offset="1" stop-color="#8C56FF"/>
</linearGradient>
<linearGradient id="paint8_linear_835_622" x1="1202.5" y1="0" x2="1202.5" y2="708" gradientUnits="userSpaceOnUse">
<stop stop-color="#5690FF"/>
<stop offset="1" stop-color="#8C56FF"/>
</linearGradient>
<linearGradient id="paint9_linear_835_622" x1="1202.5" y1="0" x2="1202.5" y2="708" gradientUnits="userSpaceOnUse">
<stop stop-color="#5690FF"/>
<stop offset="1" stop-color="#8C56FF"/>
</linearGradient>
<linearGradient id="paint10_linear_835_622" x1="1202.5" y1="0" x2="1202.5" y2="708" gradientUnits="userSpaceOnUse">
<stop stop-color="#5690FF"/>
<stop offset="1" stop-color="#8C56FF"/>
</linearGradient>
<linearGradient id="paint11_linear_835_622" x1="1202.5" y1="0" x2="1202.5" y2="708" gradientUnits="userSpaceOnUse">
<stop stop-color="#5690FF"/>
<stop offset="1" stop-color="#8C56FF"/>
</linearGradient>
<linearGradient id="paint12_linear_835_622" x1="1202.5" y1="0" x2="1202.5" y2="708" gradientUnits="userSpaceOnUse">
<stop stop-color="#5690FF"/>
<stop offset="1" stop-color="#8C56FF"/>
</linearGradient>
<linearGradient id="paint13_linear_835_622" x1="1202.5" y1="0" x2="1202.5" y2="708" gradientUnits="userSpaceOnUse">
<stop stop-color="#5690FF"/>
<stop offset="1" stop-color="#8C56FF"/>
</linearGradient>
</defs>
</svg>
