<svg width="14" height="15" viewBox="0 0 14 15" fill="none" xmlns="http://www.w3.org/2000/svg">
<path d="M7 14.5C3.1339 14.5 0 11.3661 0 7.5C0 3.6339 3.1339 0.5 7 0.5C10.8661 0.5 14 3.6339 14 7.5C14 11.3661 10.8661 14.5 7 14.5ZM7 13.1C8.48521 13.1 9.90959 12.51 10.9598 11.4598C12.01 10.4096 12.6 8.98521 12.6 7.5C12.6 6.01479 12.01 4.59041 10.9598 3.5402C9.90959 2.49 8.48521 1.9 7 1.9C5.51479 1.9 4.09041 2.49 3.0402 3.5402C1.99 4.59041 1.4 6.01479 1.4 7.5C1.4 8.98521 1.99 10.4096 3.0402 11.4598C4.09041 12.51 5.51479 13.1 7 13.1ZM7 6.1C7.18565 6.1 7.3637 6.17375 7.49497 6.30503C7.62625 6.4363 7.7 6.61435 7.7 6.8V10.3C7.7 10.4857 7.62625 10.6637 7.49497 10.795C7.3637 10.9262 7.18565 11 7 11C6.81435 11 6.6363 10.9262 6.50503 10.795C6.37375 10.6637 6.3 10.4857 6.3 10.3V6.8C6.3 6.61435 6.37375 6.4363 6.50503 6.30503C6.6363 6.17375 6.81435 6.1 7 6.1ZM7 5.4C6.81435 5.4 6.6363 5.32625 6.50503 5.19497C6.37375 5.0637 6.3 4.88565 6.3 4.7C6.3 4.51435 6.37375 4.3363 6.50503 4.20503C6.6363 4.07375 6.81435 4 7 4C7.18565 4 7.3637 4.07375 7.49497 4.20503C7.62625 4.3363 7.7 4.51435 7.7 4.7C7.7 4.88565 7.62625 5.0637 7.49497 5.19497C7.3637 5.32625 7.18565 5.4 7 5.4Z" fill="black" fill-opacity="0.4"/>
</svg>
