<svg width="47" height="40" viewBox="0 0 47 40" fill="none" xmlns="http://www.w3.org/2000/svg">
<path d="M12.3988 15.6424C12.7719 15.1581 13.0385 14.5124 12.9585 13.8667C12.3988 13.8936 11.7324 14.2434 11.3326 14.7007C10.9861 15.1043 10.6662 15.7769 10.7462 16.3957C11.3859 16.4765 11.9989 16.1267 12.3988 15.6424ZM12.9585 16.5572C12.0523 16.5034 11.2793 17.0684 10.8528 17.0684C10.4263 17.0684 9.75993 16.5841 9.04025 16.5841C8.10733 16.611 7.25437 17.1222 6.77459 17.9831C5.81501 19.6781 6.50804 22.1802 7.46761 23.5524C7.92075 24.225 8.4805 24.9783 9.20018 24.9514C9.89321 24.9245 10.1598 24.494 10.9861 24.494C11.8124 24.494 12.0523 24.9514 12.7986 24.9245C13.5449 24.8976 14.0247 24.2519 14.4778 23.5524C15.0109 22.7721 15.2242 22.0188 15.2242 21.9919C15.1975 21.965 13.7582 21.4269 13.7582 19.7588C13.7315 18.3598 14.8777 17.6872 14.931 17.6603C14.3179 16.6917 13.305 16.5841 12.9585 16.5572Z" fill="black"/>
<path d="M22.9256 14.647C24.8981 14.647 26.2575 16.0191 26.2575 17.9831C26.2575 19.9741 24.8714 21.3462 22.8723 21.3462H20.7133V24.8169H19.1406V14.647H22.9256ZM20.7133 20.0279H22.4991C23.8585 20.0279 24.6315 19.2746 24.6315 18.0101C24.6315 16.7186 23.8585 15.9922 22.4991 15.9922H20.6866V20.0279H20.7133ZM26.6573 22.7453C26.6573 21.4538 27.6435 20.6467 29.4028 20.5391L31.4285 20.4315V19.8665C31.4285 19.0324 30.8688 18.5481 29.9625 18.5481C29.0829 18.5481 28.5498 18.9786 28.4165 19.6243H26.9772C27.0571 18.2791 28.2033 17.2836 30.0158 17.2836C31.8017 17.2836 32.9479 18.2253 32.9479 19.732V24.8438H31.5085V23.6331H31.4818C31.0554 24.4672 30.1224 24.9784 29.1629 24.9784C27.6702 24.9784 26.6573 24.0636 26.6573 22.7453ZM31.4285 22.0727V21.4808L29.616 21.5884C28.7097 21.6422 28.2033 22.0457 28.2033 22.6915C28.2033 23.3372 28.7364 23.7676 29.536 23.7676C30.6022 23.7676 31.4285 23.0412 31.4285 22.0727ZM34.2806 27.5881V26.3505C34.3872 26.3774 34.6538 26.3774 34.7604 26.3774C35.4534 26.3774 35.8266 26.0814 36.0665 25.3281C36.0665 25.3012 36.1998 24.8707 36.1998 24.8707L33.5343 17.4451H35.1602L37.0261 23.4986H37.0527L38.9186 17.4451H40.5178L37.7724 25.2743C37.1327 27.0769 36.413 27.6419 34.8937 27.6419C34.787 27.615 34.4139 27.615 34.2806 27.5881Z" fill="black"/>
<path fill-rule="evenodd" clip-rule="evenodd" d="M42.1333 8.25H4.86667C4.00309 8.25 3.30303 8.92157 3.30303 9.75V30.25C3.30303 31.0784 4.00309 31.75 4.86667 31.75H42.1333C42.9969 31.75 43.697 31.0784 43.697 30.25V9.75C43.697 8.92157 42.9969 8.25 42.1333 8.25ZM4.86667 7C3.28345 7 2 8.23122 2 9.75V30.25C2 31.7688 3.28345 33 4.86667 33H42.1333C43.7165 33 45 31.7688 45 30.25V9.75C45 8.23122 43.7165 7 42.1333 7H4.86667Z" fill="black"/>
</svg>
