<svg width="64" height="64" viewBox="0 0 64 64" fill="none" xmlns="http://www.w3.org/2000/svg">
<g clip-path="url(#clip0)">
<path d="M63.0393 39.7401C58.7653 56.8831 41.4023 67.3161 24.2573 63.0411C7.1193 58.7671 -3.31369 41.4031 0.962306 24.2611C5.23431 7.11613 22.5973 -3.31787 39.7373 0.956131C56.8813 5.23013 67.3133 22.5961 63.0393 39.7401Z" fill="black"/>
<path d="M46.1082 27.4399C46.7452 23.1819 43.5032 20.8929 39.0702 19.3659L40.5082 13.5979L36.9972 12.7229L35.5972 18.3389C34.6742 18.1089 33.7262 17.8919 32.7842 17.6769L34.1942 12.0239L30.6852 11.1489L29.2462 16.9149C28.4822 16.7409 27.7322 16.5689 27.0042 16.3879L27.0082 16.3699L22.1662 15.1609L21.2322 18.9109C21.2322 18.9109 23.8372 19.5079 23.7822 19.5449C25.2042 19.8999 25.4612 20.8409 25.4182 21.5869L23.7802 28.1579C23.8782 28.1829 24.0052 28.2189 24.1452 28.2749C24.0282 28.2459 23.9032 28.2139 23.7742 28.1829L21.4782 37.3879C21.3042 37.8199 20.8632 38.4679 19.8692 38.2219C19.9042 38.2729 17.3172 37.5849 17.3172 37.5849L15.5742 41.6039L20.1432 42.7429C20.9932 42.9559 21.8262 43.1789 22.6462 43.3889L21.1932 49.2229L24.7002 50.0979L26.1392 44.3259C27.0972 44.5859 28.0272 44.8259 28.9372 45.0519L27.5032 50.7969L31.0142 51.6719L32.4672 45.8489C38.4542 46.9819 42.9562 46.5249 44.8512 41.1099C46.3782 36.7499 44.7752 34.2349 41.6252 32.5949C43.9192 32.0659 45.6472 30.5569 46.1082 27.4399ZM38.0862 38.6889C37.0012 43.0489 29.6602 40.6919 27.2802 40.1009L29.2082 32.3719C31.5882 32.9659 39.2202 34.1419 38.0862 38.6889ZM39.1722 27.3769C38.1822 31.3429 32.0722 29.3279 30.0902 28.8339L31.8382 21.8239C33.8202 22.3179 40.2032 23.2399 39.1722 27.3769Z" fill="white"/>
</g>
<defs>
<clipPath id="clip0">
<rect width="64" height="64" fill="white" transform="translate(0 -0.000732422)"/>
</clipPath>
</defs>
</svg>
