<svg width="16" height="16" viewBox="0 0 16 16" fill="none" xmlns="http://www.w3.org/2000/svg">
<path d="M8 1C9.24193 1 10.4274 1.33871 11.5 1.95968C12.5726 2.58065 13.4194 3.42742 14.0403 4.5C14.6613 5.57258 15 6.75806 15 8C15 9.27016 14.6613 10.4274 14.0403 11.5C13.4194 12.5726 12.5726 13.4476 11.5 14.0685C10.4274 14.6895 9.24193 15 8 15C6.72984 15 5.57258 14.6895 4.5 14.0685C3.42742 13.4476 2.55242 12.5726 1.93145 11.5C1.31048 10.4274 1 9.27016 1 8C1 6.75806 1.31048 5.57258 1.93145 4.5C2.55242 3.42742 3.42742 2.58065 4.5 1.95968C5.57258 1.33871 6.72984 1 8 1ZM13.0806 5.51613C12.7419 4.83871 12.2621 4.24597 11.6976 3.7379C11.1048 3.22984 10.4274 2.8629 9.69355 2.60887C10.1452 3.48387 10.4839 4.44355 10.7097 5.51613H13.0806ZM13.5323 9.12903C13.6734 8.39516 13.6734 7.63306 13.5323 6.87097H10.879C10.9355 7.63306 10.9355 8.39516 10.879 9.12903H13.5323ZM6.47581 9.12903H9.52419C9.58064 8.39516 9.58064 7.63306 9.52419 6.87097H6.47581C6.39113 7.63306 6.39113 8.39516 6.47581 9.12903ZM9.29839 10.4839H6.70161C6.95565 11.7258 7.37903 12.7419 8 13.5605C8.59274 12.7419 9.01613 11.7258 9.29839 10.4839ZM2.46774 6.87097C2.29839 7.63306 2.29839 8.39516 2.46774 9.12903H5.12097C5.03629 8.39516 5.03629 7.63306 5.12097 6.87097H2.46774ZM6.67339 5.51613H9.32661C9.04435 4.30242 8.59274 3.28629 8 2.43952C7.37903 3.28629 6.95565 4.30242 6.67339 5.51613ZM6.30645 2.60887C5.54435 2.8629 4.86694 3.22984 4.30242 3.7379C3.70968 4.24597 3.25806 4.83871 2.91935 5.51613H5.29032C5.51613 4.44355 5.85484 3.48387 6.30645 2.60887ZM2.91935 10.4839C3.25806 11.1613 3.70968 11.754 4.30242 12.2621C4.86694 12.7702 5.54435 13.1653 6.30645 13.3911C5.82661 12.5444 5.4879 11.5565 5.29032 10.4839H2.91935ZM9.69355 13.3911C10.4274 13.1653 11.1048 12.7702 11.6976 12.2621C12.2621 11.754 12.7419 11.1613 13.0806 10.4839H10.7097C10.4839 11.5565 10.1452 12.5444 9.69355 13.3911Z" fill="black"/>
</svg>
