<svg width="51" height="40" viewBox="0 0 51 40" fill="none" xmlns="http://www.w3.org/2000/svg">
<path d="M36.88 7H14C6.85 7 1 12.85 1 20C1 27.15 6.85 33 14 33H36.88C44.03 33 49.88 27.15 49.88 20C49.88 12.85 44.03 7 36.88 7Z" fill="none"/>
<path d="M36.88 8.053C38.4855 8.053 40.0455 8.3715 41.5145 8.9955C42.938 9.6 44.212 10.4645 45.317 11.563C46.4155 12.6615 47.28 13.942 47.8845 15.3655C48.5085 16.8345 48.827 18.3945 48.827 20C48.827 21.6055 48.5085 23.1655 47.8845 24.6345C47.28 26.058 46.4155 27.332 45.317 28.437C44.2185 29.5355 42.938 30.4 41.5145 31.0045C40.0455 31.6285 38.4855 31.947 36.88 31.947H14C12.3945 31.947 10.8345 31.6285 9.3655 31.0045C7.942 30.4 6.668 29.5355 5.563 28.437C4.4645 27.3385 3.6 26.058 2.9955 24.6345C2.3715 23.1655 2.053 21.6055 2.053 20C2.053 18.3945 2.3715 16.8345 2.9955 15.3655C3.6 13.942 4.4645 12.668 5.563 11.563C6.6615 10.4645 7.942 9.6 9.3655 8.9955C10.8345 8.3715 12.3945 8.053 14 8.053H36.88ZM36.88 7H14C6.85 7 1 12.85 1 20C1 27.15 6.85 33 14 33H36.88C44.03 33 49.88 27.15 49.88 20C49.88 12.85 44.03 7 36.88 7Z" fill="black"/>
<path d="M24.3105 20.923V24.8555H23.0625V15.1445H26.371C27.2095 15.1445 27.9245 15.424 28.5095 15.983C29.1075 16.542 29.4065 17.2245 29.4065 18.0305C29.4065 18.856 29.1075 19.5385 28.5095 20.091C27.931 20.6435 27.216 20.9165 26.371 20.9165H24.3105V20.923ZM24.3105 16.3405V19.727H26.397C26.891 19.727 27.307 19.558 27.632 19.2265C27.9635 18.895 28.1325 18.492 28.1325 18.037C28.1325 17.5885 27.9635 17.192 27.632 16.8605C27.307 16.516 26.8975 16.347 26.397 16.347H24.3105V16.3405Z" fill="black"/>
<path d="M32.6685 17.9915C33.5915 17.9915 34.3195 18.2385 34.8525 18.7325C35.3855 19.2265 35.652 19.9025 35.652 20.7605V24.8555H34.4625V23.9325H34.4105C33.897 24.693 33.208 25.07 32.35 25.07C31.6155 25.07 31.0045 24.8555 30.5105 24.42C30.0165 23.9845 29.7695 23.445 29.7695 22.795C29.7695 22.106 30.0295 21.56 30.5495 21.157C31.0695 20.7475 31.765 20.546 32.6295 20.546C33.3705 20.546 33.9815 20.6825 34.456 20.9555V20.6695C34.456 20.234 34.287 19.87 33.9425 19.5645C33.598 19.259 33.195 19.1095 32.7335 19.1095C32.038 19.1095 31.4855 19.402 31.0825 19.9935L29.984 19.3045C30.5885 18.427 31.4855 17.9915 32.6685 17.9915ZM31.0565 22.8145C31.0565 23.1395 31.193 23.4125 31.4725 23.627C31.7455 23.8415 32.0705 23.952 32.441 23.952C32.9675 23.952 33.4355 23.757 33.845 23.367C34.2545 22.977 34.4625 22.522 34.4625 21.9955C34.0725 21.69 33.533 21.534 32.8375 21.534C32.3305 21.534 31.908 21.6575 31.57 21.898C31.2255 22.1515 31.0565 22.457 31.0565 22.8145Z" fill="black"/>
<path d="M42.4399 18.206L38.2799 27.774H36.9929L38.5399 24.4265L35.7969 18.206H37.1554L39.1314 22.977H39.1574L41.0814 18.206H42.4399Z" fill="black"/>
<path d="M19.3469 20.13C19.3469 19.7231 19.3105 19.3338 19.2429 18.9594H14.0117V21.1044L17.0245 21.105C16.9023 21.8187 16.509 22.4271 15.9065 22.8327V24.2244H17.6998C18.747 23.2552 19.3469 21.8226 19.3469 20.13Z" fill="#4285F4"/>
<path d="M15.9096 22.8327C15.4104 23.1694 14.7675 23.3664 14.0155 23.3664C12.5627 23.3664 11.3303 22.3875 10.889 21.068H9.03906V22.5032C9.95556 24.3219 11.8393 25.5699 14.0155 25.5699C15.5196 25.5699 16.7832 25.0752 17.7029 24.2237L15.9096 22.8327Z" fill="#34A853"/>
<path d="M10.7132 20.0033C10.7132 19.6328 10.7749 19.2746 10.8874 18.9379V17.5027H9.03746C8.65851 18.2548 8.44531 19.1037 8.44531 20.0033C8.44531 20.9029 8.65916 21.7518 9.03746 22.5038L10.8874 21.0686C10.7749 20.7319 10.7132 20.3738 10.7132 20.0033Z" fill="#FABB05"/>
<path d="M14.0155 16.6395C14.8364 16.6395 15.5716 16.9223 16.152 17.4748L17.7413 15.8868C16.776 14.9879 15.5176 14.436 14.0155 14.436C11.8399 14.436 9.95556 15.684 9.03906 17.5027L10.889 18.9379C11.3303 17.6184 12.5627 16.6395 14.0155 16.6395Z" fill="#E94235"/>
</svg>