<svg width="36" height="40" viewBox="0 0 36 40" fill="none" xmlns="http://www.w3.org/2000/svg">
<path fill-rule="evenodd" clip-rule="evenodd" d="M33.0006 19.9245C33.0006 25.0669 28.8504 29.2356 23.7306 29.2356C21.6398 29.2356 19.7103 28.5401 18.1592 27.3673C20.346 25.651 21.7509 22.9837 21.7509 19.9882C21.7509 16.9551 20.3105 14.2585 18.0765 12.545C19.6415 11.334 21.6024 10.6134 23.7306 10.6134C28.8504 10.6134 33.0006 14.7821 33.0006 19.9245ZM17.9305 12.5411C15.6936 14.2544 14.251 16.9529 14.251 19.9882C14.251 22.9859 15.658 25.6551 17.8477 27.3712C16.2979 28.5416 14.3705 29.2356 12.2819 29.2356C7.16215 29.2356 3.01196 25.067 3.01196 19.9245C3.01196 14.7821 7.16215 10.6134 12.2819 10.6134C14.4078 10.6134 16.3668 11.3325 17.9305 12.5411ZM21.0009 19.9882C21.0009 22.6019 19.839 24.944 18.0009 26.5266C16.1629 24.944 15.001 22.6019 15.001 19.9882C15.001 17.3745 16.1629 15.0324 18.0009 13.4498C19.839 15.0324 21.0009 17.3745 21.0009 19.9882Z" fill="black"/>
</svg>
