<svg width="102" height="28" viewBox="0 0 102 28" fill="none" xmlns="http://www.w3.org/2000/svg">
<g clip-path="url(#clip0_144_418)">
<path d="M12.2 26.3966L12.2 1C5.59311 1 -5.08403e-07 6.81546 -1.11027e-06 13.7C-1.71216e-06 20.5848 5.59311 26.3966 12.2 26.3966Z" fill="white"/>
<path fill-rule="evenodd" clip-rule="evenodd" d="M30.9939 6.92169C34.1312 6.92169 36.6767 9.38693 36.6767 14.1832V14.3976C36.6767 19.2207 34.1312 21.6322 30.9682 21.6322C28.937 21.6322 27.4712 20.641 26.8027 19.2476V25.9999H22.2V7.29693H26.8027V9.38693C27.574 8.04712 28.9627 6.92169 30.9939 6.92169ZM56.126 7.29693L58.9031 14.7728L61.4746 7.29693H65.8716L58.6716 25.9999H54.2746L56.5116 19.8905L51.1376 7.29693H56.126ZM44.7228 6.92169C48.4256 6.92169 50.7911 8.50279 50.7911 12.2271V21.3107H46.317V19.6761C45.6742 20.6945 44.4914 21.6322 42.3314 21.6322C39.9143 21.6322 37.78 20.3997 37.78 17.4255C37.78 14.1297 40.4543 12.8434 44.9284 12.8434H46.214V12.5219C46.214 11.1821 45.9054 10.298 44.44 10.298C43.18 10.298 42.717 11.0751 42.6143 11.9592H38.2941C38.4999 8.58293 41.0455 6.92169 44.7228 6.92169ZM71.6455 1.13395V9.38693C72.4168 8.04712 73.8054 6.92169 75.8369 6.92169C78.9739 6.92169 81.5195 9.38693 81.5195 14.1832V14.3976C81.5195 19.2207 78.9739 21.6322 75.8112 21.6322C73.8054 21.6322 72.314 20.641 71.6455 19.1403V21.3107H67.0427V1.13395H71.6455ZM94.8048 6.92169C98.1219 6.92169 100.436 8.10064 100.745 11.45H96.5791C96.3992 10.5124 95.9106 10.0567 94.8564 10.0567C93.8534 10.0567 93.3393 10.5124 93.3393 11.1555C93.3393 11.8253 93.9564 12.0932 95.602 12.3076C99.3305 12.7899 101.13 13.8082 101.13 16.8093C101.13 20.1318 98.7647 21.6322 95.0363 21.6322C91.205 21.6322 88.9678 19.9709 88.865 16.8628H93.1078C93.262 17.8809 93.6992 18.4436 95.0106 18.4436C96.1421 18.4436 96.6564 17.9882 96.6564 17.2916C96.6564 16.6215 96.0133 16.3001 94.1619 16.0322C90.5622 15.5499 89.0451 14.4511 89.0451 11.5305C89.0451 8.42236 91.6934 6.92169 94.8048 6.92169ZM87.5028 7.29693V21.3107H82.9001V7.29693H87.5028ZM46.214 15.5499H45.0054C43.1541 15.5499 42.3314 15.9249 42.3314 17.0772C42.3314 17.8809 42.8455 18.3901 43.9256 18.3901C45.2369 18.3901 46.214 17.613 46.214 16.4071V15.5499ZM29.3483 10.539C27.677 10.539 26.674 11.7984 26.674 14.1566V14.3707C26.674 16.7555 27.677 17.9613 29.3483 17.9613C31.0712 17.9613 31.9969 16.702 31.9969 14.3976V14.1832C31.9969 11.7182 30.9682 10.539 29.3483 10.539ZM74.1911 10.539C72.5198 10.539 71.517 11.7984 71.517 14.1566V14.3707C71.517 16.7555 72.5198 17.9613 74.1911 17.9613C75.914 17.9613 76.8397 16.702 76.8397 14.3976V14.1832C76.8397 11.7182 75.8112 10.539 74.1911 10.539ZM85.1888 1C86.6288 1 87.7343 2.07191 87.7343 3.49187C87.7343 4.91211 86.6288 5.95711 85.1888 5.95711C83.7487 5.95711 82.6689 4.91211 82.6689 3.49187C82.6689 2.07191 83.7487 1 85.1888 1Z" fill="white"/>
</g>
<defs>
<clipPath id="clip0_144_418">
<rect width="101.131" height="27.3966" fill="white"/>
</clipPath>
</defs>
</svg>
