<svg width="16" height="16" viewBox="0 0 16 16" fill="none" xmlns="http://www.w3.org/2000/svg">
<path d="M8 10.2979C8.21875 10.2979 8.38281 10.3799 8.54688 10.5166C8.68359 10.6807 8.76562 10.8447 8.76562 11.0635C8.76562 11.2822 8.68359 11.4736 8.54688 11.6104C8.38281 11.7744 8.21875 11.8291 8 11.8291C7.78125 11.8291 7.58984 11.7744 7.45312 11.6104C7.28906 11.4736 7.23438 11.2822 7.23438 11.0635C7.23438 10.8447 7.28906 10.6807 7.45312 10.5166C7.58984 10.3799 7.78125 10.2979 8 10.2979ZM8.21875 9.6416C8.30078 9.6416 8.38281 9.61426 8.4375 9.55957C8.49219 9.50488 8.54688 9.42285 8.54688 9.31348C8.54688 9.09473 8.62891 8.87598 8.79297 8.65723C8.90234 8.54785 9.09375 8.41113 9.42188 8.19238C9.80469 7.94629 10.1055 7.72754 10.2695 7.50879C10.5156 7.20801 10.6523 6.8252 10.6523 6.36035C10.6523 5.7041 10.3789 5.18457 9.88672 4.77441C9.36719 4.3916 8.73828 4.17285 8 4.17285C7.39844 4.17285 6.90625 4.28223 6.49609 4.50098C6.14062 4.71973 5.8125 5.02051 5.48438 5.40332C5.42969 5.48535 5.40234 5.56738 5.42969 5.64941C5.42969 5.75879 5.48438 5.81348 5.56641 5.86816L5.92188 6.11426C5.97656 6.16895 6.05859 6.19629 6.16797 6.16895C6.25 6.16895 6.30469 6.11426 6.35938 6.05957C6.57812 5.78613 6.79688 5.59473 7.04297 5.45801C7.28906 5.34863 7.61719 5.2666 8 5.2666C8.49219 5.2666 8.90234 5.40332 9.17578 5.62207C9.42188 5.84082 9.55859 6.08691 9.55859 6.36035C9.55859 6.60645 9.44922 6.8252 9.28516 6.98926C9.17578 7.09863 8.98438 7.2627 8.68359 7.4541C8.27344 7.72754 8 7.94629 7.83594 8.11035C7.5625 8.43848 7.45312 8.84863 7.45312 9.31348C7.45312 9.42285 7.48047 9.50488 7.53516 9.55957C7.58984 9.61426 7.67188 9.6416 7.78125 9.6416H8.21875ZM8 2.09473C6.90625 2.09473 5.92188 2.36816 5.01953 2.8877C4.11719 3.43457 3.40625 4.14551 2.88672 5.04785C2.33984 5.9502 2.09375 6.93457 2.09375 8.00098C2.09375 9.09473 2.33984 10.0791 2.88672 10.9814C3.40625 11.8838 4.11719 12.5947 5.01953 13.1143C5.92188 13.6611 6.90625 13.9072 8 13.9072C9.06641 13.9072 10.0508 13.6611 10.9531 13.1143C11.8555 12.5947 12.5664 11.8838 13.1133 10.9814C13.6328 10.0791 13.9062 9.09473 13.9062 8.00098C13.9062 6.93457 13.6328 5.9502 13.1133 5.04785C12.5664 4.14551 11.8555 3.43457 10.9531 2.8877C10.0234 2.36816 9.03906 2.09473 8 2.09473ZM8 1.21973C9.20312 1.21973 10.3516 1.54785 11.3906 2.14941C12.4297 2.75098 13.25 3.57129 13.8516 4.61035C14.4531 5.64941 14.7812 6.79785 14.7812 8.00098C14.7812 9.23145 14.4531 10.3525 13.8516 11.3916C13.25 12.4307 12.4297 13.2783 11.3906 13.8799C10.3516 14.4814 9.20312 14.7822 8 14.7822C6.76953 14.7822 5.64844 14.4814 4.60938 13.8799C3.57031 13.2783 2.72266 12.4307 2.12109 11.3916C1.51953 10.3525 1.21875 9.23145 1.21875 8.00098C1.21875 6.79785 1.51953 5.64941 2.12109 4.61035C2.72266 3.57129 3.57031 2.75098 4.60938 2.14941C5.64844 1.54785 6.76953 1.21973 8 1.21973Z" fill="#E79C2C"/>
</svg>
