<svg width="42" height="40" viewBox="0 0 42 40" fill="none" xmlns="http://www.w3.org/2000/svg">
<g clip-path="url(#clip0_0_565)">
<path d="M17.0843 26.5358H13.8441L15.8708 13.9778H19.1108L17.0843 26.5358Z" fill="black"/>
<path d="M28.8303 14.2846C28.1911 14.0306 27.1775 13.75 25.924 13.75C22.7242 13.75 20.4709 15.4599 20.4571 17.9046C20.4305 19.7083 22.0704 20.7101 23.2969 21.3115C24.5505 21.9261 24.9766 22.3272 24.9766 22.875C24.9639 23.7163 23.9636 24.1041 23.0307 24.1041C21.7371 24.1041 21.0439 23.9041 19.9906 23.4361L19.5639 23.2354L19.1105 26.0544C19.8704 26.4014 21.2706 26.7093 22.7242 26.7228C26.1241 26.7228 28.3375 25.0393 28.3637 22.4341C28.3767 21.0045 27.5107 19.9091 25.6439 19.014C24.5106 18.4394 23.8166 18.052 23.8166 17.4641C23.8299 16.9296 24.4036 16.3822 25.6829 16.3822C26.7363 16.3554 27.5102 16.6091 28.0965 16.863L28.3896 16.9964L28.8303 14.2846Z" fill="black"/>
<path d="M33.1378 22.0869C33.4046 21.3655 34.4314 18.5733 34.4314 18.5733C34.418 18.6001 34.6978 17.8385 34.8578 17.371L35.0842 18.4531C35.0842 18.4531 35.6978 21.4591 35.8311 22.0869C35.3246 22.0869 33.7778 22.0869 33.1378 22.0869ZM37.1375 13.9778H34.6311C33.8582 13.9778 33.271 14.2047 32.9376 15.0197L28.1246 26.5356H31.5245C31.5245 26.5356 32.0842 24.9856 32.2046 24.6518C32.5775 24.6518 35.8849 24.6518 36.3647 24.6518C36.4578 25.0927 36.7514 26.5356 36.7514 26.5356H39.7515L37.1375 13.9778Z" fill="black"/>
<path d="M11.1364 13.9778L7.96319 22.5411L7.61643 20.8044C7.02976 18.8004 5.18985 16.6231 3.1366 15.5405L6.04318 26.5224H9.46964L14.5627 13.9778H11.1364Z" fill="black"/>
<path d="M5.01752 13.9778H-0.19569L-0.249023 14.2315C3.81761 15.2736 6.51086 17.7856 7.6174 20.8049L6.48411 15.0334C6.29753 14.2313 5.72415 14.0042 5.01752 13.9778Z" fill="black"/>
</g>
<defs>
<clipPath id="clip0_0_565">
<rect width="41.25" height="40" fill="white"/>
</clipPath>
</defs>
</svg>
